<?xml version="1.0" encoding="utf-8"?>
<!-- Generator: Adobe Illustrator 27.8.1, SVG Export Plug-In . SVG Version: 6.00 Build 0)  -->
<svg version="1.1" xmlns="http://www.w3.org/2000/svg" xmlns:xlink="http://www.w3.org/1999/xlink" x="0px" y="0px"
	 viewBox="0 0 100 125" style="enable-background:new 0 0 100 125;" xml:space="preserve">
<style type="text/css">
	.st0{fill:#0071B9;}
	.st1{fill:#5D2C85;}
	.st2{fill-rule:evenodd;clip-rule:evenodd;fill:#FCAE24;}
	.st3{fill:#FCE3AC;}
	.st4{fill:none;}
	.st5{fill:#00B7A1;}
	.st6{fill-rule:evenodd;clip-rule:evenodd;}
	.st7{fill-rule:evenodd;clip-rule:evenodd;fill:#020202;}
	.st8{fill:#FFC0E3;}
	.st9{fill:#FC176F;}
	.st10{fill:#1EC1AA;}
	.st11{font-family:'OCRAExtended';}
	.st12{font-size:6.5px;}
	.st13{fill:#B6FFF6;}
</style>
<g id="Layer_1">
	<g>
		<path class="st0" d="M85,61.7h-5.6V77C81.8,72.2,83.7,67.1,85,61.7z"/>
		<path class="st1" d="M51.4,106.3c7-3,14.5-9.9,19.8-16.5H51.4V106.3z"/>
		<path d="M51.8,78.9c3.2,0,5.7-2.6,5.7-5.8V73h2c0.7-2.7,3-5,5.9-5c2.9,0,5.2,2.3,5.9,5h2v0.1c0,0,0,0,0,0c0,3,2.3,5.4,5.2,5.7
			c0.3-0.6,0.6-1.2,0.9-1.9H79c-2.1,0-3.9-1.7-3.9-3.9v-1.9h-2.5c-1.2-2.9-4-4.9-7.2-5c-3.2,0.1-6,2.1-7.2,5h-2.5v1.9c0,0,0,0,0,0
			c0,2.1-1.7,3.9-3.9,3.9h-0.2h-0.1v1.9H51.8C51.8,78.9,51.8,78.9,51.8,78.9z"/>
		<path class="st1" d="M78.4,78.9c-2.9-0.3-5.2-2.7-5.2-5.7c0,0,0,0,0,0V73h-2c-0.6-2.7-3-5-5.9-5c-2.9,0-5.2,2.3-5.9,5h-2v0.1
			c0,3.2-2.6,5.8-5.7,5.8c0,0,0,0,0,0h-0.4v10.8h19.8c0.5-0.7,1.1-1.3,1.5-2C74.8,85,76.7,82,78.4,78.9z"/>
		<polygon class="st0" points="79.4,77 79.4,77 79.4,77 		"/>
		<path class="st0" d="M51.8,77c2.1,0,3.9-1.7,3.9-3.9c0,0,0,0,0,0v-1.9h2.5c1.2-2.9,4-4.9,7.2-5c3.2,0.1,6,2.1,7.2,5h2.5v1.9
			c0,2.1,1.7,3.9,3.9,3.9h0.4c0,0,0,0,0,0V61.7h-28V77h0.1H51.8z"/>
	</g>
	<path class="st1" d="M230.3-37.4c-4.5,0-8.1-3.6-8.1-8.1c0,0,0,0,0,0v-0.1h-2.8c-0.9-3.7-4.3-7-8.3-7s-7.4,3.2-8.3,7h-2.8v0.1
		c0,4.5-3.6,8.1-8,8.1c0,0,0,0,0,0h-0.5v15.2h39.3v-15.2L230.3-37.4"/>
	<path class="st0" d="M191.7-40h0.4c3,0,5.4-2.4,5.4-5.4c0,0,0,0,0,0v-2.7h3.6c1.7-4.1,5.7-6.9,10.1-7c4.5,0.1,8.4,2.9,10.1,7h3.6
		v2.7c0,3,2.4,5.4,5.4,5.4h0.5v-21.4h-39.3V-40H191.7z"/>
	<g>
		<path d="M-79.2,140.7c-10.7,0-19.4,8.7-19.4,19.4c0,10.7,8.7,19.4,19.4,19.4s19.4-8.7,19.4-19.4
			C-59.9,149.4-68.6,140.7-79.2,140.7z M-79.3,177.6c-9.8,0-17.6-8-17.6-17.6c0-9.8,8-17.7,17.6-17.7c9.8,0,17.7,8,17.7,17.7
			C-61.7,169.7-69.5,177.6-79.3,177.6z"/>
	</g>
	<path d="M83.1,40.7"/>
	<path class="st2" d="M51.4,58.1h34.3c0.6-3.4,0.9-6.9,0.9-10.4V26.5L51.4,13.6V58.1L51.4,58.1z"/>
	<g>
		<path class="st3" d="M65.6,39.3L59,30.8l-3.8,4.6c-0.7,1-0.9,3.3-0.2,4.3l4.3,3.8c3.1,4,6,5.3,10.7,7l3.9,2.9
			c1.2,0.4,3.2-0.6,4-1.6l3.2-4.9l-9.8-3.4c-1.1-0.4-2.2-1-3.2-1.7C67.2,41.1,66.3,40.3,65.6,39.3z"/>
		<g>
			<path class="st4" d="M13.4,47.7c0,3.6,0.3,7,0.9,10.4h34.3V13.6L13.4,26.5V47.7z"/>
			<path class="st4" d="M38.9,100.1c3.2,2.6,6.5,4.8,9.7,6.2V61.7H15C18.6,77.4,28.1,91.1,38.9,100.1z"/>
			<path class="st4" d="M67,37.7l-9.8-12.3l-2.2,3c0.2,0.3,0.3,0.8,0.1,1l-0.7,0.6c-0.2,0.3-0.4,0.6-0.8,0.5l-0.4,2.1
				c-0.1,0.3-0.9,1.1-1.2,0.9l0.3-2c-0.1-0.1-0.3-0.2-0.5-0.3l-0.5,0.2v26.7h34.3c0.6-3.4,0.9-6.9,0.9-10.4v-0.8l-15.3-6
				C69.7,40.3,68.2,39.2,67,37.7z"/>
			<path class="st4" d="M52.6,28.8L53,28c0.2-0.3,0.6-0.3,1-0.3l2.4-3.3l-0.9-0.7c-0.7-1,0.1-2.2,1.3-1.7l17,6.1
				c1.7,0.6,3.3,1.7,4.4,3.1l8.4,10.9V26.5L51.4,13.6v16.7l1-0.6C52.2,29.4,52.4,29,52.6,28.8z"/>
			<path class="st4" d="M72.8,87.7c5.5-7.4,10-16.2,12.2-26H51.4v44.5C59.1,103,67.4,95,72.8,87.7z"/>
			<path class="st4" d="M7.8,21.1v26.7c0,15.4,5.1,29.2,12.1,40.3c9.1,14.2,21.3,23.8,30.1,26.2c8.8-2.5,21-12,30.1-26.2
				c7-11,12.1-24.8,12.1-40.3V21.1L50,5.6L7.8,21.1z M88.3,23.4c0.6,0.2,1.1,0.9,1.1,1.8v20.6l0.1,0.1c0.5,0.6,0.3,1.2-0.1,1.6v0.4
				c0,22.9-12.2,43.3-26.8,55.4c-4,3.3-8.2,6-12.3,7.3c-0.2,0.1-0.5,0.1-0.7,0c-8.8-2.9-18.4-12-24.4-20.2
				c-8.5-11.5-14.6-26.3-14.6-42.5V25.1h0c0-0.8,0.4-1.5,1-1.7l38-13.9c0.2-0.1,0.5-0.1,0.8,0L88.3,23.4z"/>
			<g>
				<path class="st4" d="M13.4,47.7c0,3.6,0.3,7,0.9,10.4h34.3V13.6L13.4,26.5V47.7z"/>
				<path class="st4" d="M38.9,100.1c3.2,2.6,6.5,4.8,9.7,6.2V61.7H15C18.6,77.4,28.1,91.1,38.9,100.1z"/>
				<path class="st4" d="M72.8,87.7c5.5-7.4,10-16.2,12.2-26H51.4v44.5C59.1,103,67.4,95,72.8,87.7z"/>
				<path class="st4" d="M7.8,21.1v26.7c0,15.4,5.1,29.2,12.1,40.3c9.1,14.2,21.3,23.8,30.1,26.2c8.8-2.5,21-12,30.1-26.2
					c7-11,12.1-24.8,12.1-40.3V21.1L50,5.6L7.8,21.1z M88.3,23.4c0.6,0.2,1.1,0.9,1.1,1.8v20.6l-2.8-3.6V26.5L51.4,13.6v16.7
					l-0.8,0.4c-0.2,0.2-0.7,1.2-0.5,1.4l1.3-0.6v26.7h34.3c0.6-3.4,0.9-6.9,0.9-10.4v-0.8l1.6,0.6c0.5,0.2,0.9,0.1,1.2-0.2v0.4
					c0,22.9-12.2,43.3-26.8,55.4c-4,3.3-8.2,6-12.3,7.3c-0.2,0.1-0.5,0.1-0.7,0c-8.8-2.9-18.4-12-24.4-20.2
					c-8.5-11.5-14.6-26.3-14.6-42.5V25.1h0c0-0.8,0.4-1.5,1-1.7l38-13.9c0.2-0.1,0.5-0.1,0.8,0L88.3,23.4z"/>
				<path d="M95,19.7c0-0.8-0.4-1.5-1-1.7L50.4,2c-0.2-0.1-0.5-0.1-0.8,0l-43.5,16C5.5,18.1,5,18.8,5,19.7v28
					C5,64,10.4,78.6,17.8,90.2c9.6,15,22.6,25,31.9,27.5c0.2,0.1,0.4,0.1,0.6,0c9.3-2.5,22.4-12.6,31.9-27.6
					C89.6,78.6,95,64,95,47.7L95,19.7L95,19.7z M92.2,47.7c0,15.4-5.1,29.2-12.1,40.3C71,102.2,58.8,111.7,50,114.2
					c-8.8-2.5-21-12-30.1-26.2c-7-11-12.1-24.8-12.1-40.3V21.1L50,5.6l42.2,15.5V47.7z"/>
			</g>
			<path class="st3" d="M89.5,45.8L89.5,45.8l-0.1,1.6"/>
			<path class="st3" d="M78.2,31.2c-1.2-1.4-2.8-2.5-4.4-3.1l-17-6.1c-1.2-0.5-2,0.7-1.3,1.7l0.9,0.7L54,27.7c-0.3-0.1-0.8,0-1,0.3
				l-0.3,0.8c-0.2,0.3-0.4,0.6-0.2,0.9l-1,0.6v1.2l0.5-0.2c0.1,0.1,0.3,0.2,0.5,0.3l-0.3,2c0.3,0.2,1.1-0.6,1.2-0.9l0.4-2.1
				c0.4,0.1,0.6-0.2,0.8-0.5l0.7-0.6c0.2-0.3,0.1-0.7-0.1-1l2.2-3L67,37.7c1.2,1.4,2.7,2.5,4.4,3.2l15.3,6v-4.8L78.2,31.2z"/>
			<path d="M50.6,30.7c-0.2,0.2-0.7,1.2-0.5,1.4l1.3-0.6v-1.2L50.6,30.7z"/>
			<path d="M86.6,46.9l1.6,0.6c0.5,0.2,0.9,0.1,1.2-0.2v-1.6l-2.8-3.6V46.9z"/>
		</g>
	</g>
	<path class="st5" d="M15,61.7c3.6,15.6,13.1,29.4,23.9,38.4c3.2,2.6,6.5,4.8,9.7,6.2V61.7H15z"/>
	<g>
		<ellipse cx="-76.9" cy="160" rx="3.2" ry="3.1"/>
		<path d="M-73.7,162.2c-0.7,1-1.9,1.7-3.2,1.7c-1.3,0-2.5-0.7-3.2-1.7c-1.3,1-2.2,2.7-2.2,4.5v0.9c0,1,0.8,1.9,1.8,1.9h7.2
			c1,0,1.8-0.8,1.8-1.9v-0.9C-71.5,164.8-72.4,163.2-73.7,162.2z"/>
		<ellipse cx="-69.7" cy="155.5" rx="3.2" ry="3.1"/>
		<path d="M-66.5,157.5c-0.7,1-1.9,1.7-3.2,1.7c-1.3,0-2.5-0.7-3.2-1.7c-0.1,0.1-0.2,0.2-0.4,0.3c0.3,0.6,0.4,1.2,0.4,1.8
			c0,0.6-0.1,1.2-0.4,1.7l0.1,0.1c1.1,0.9,1.9,2,2.3,3.4h4.8c1,0,1.8-0.8,1.8-1.9V162C-64.3,160.1-65.1,158.5-66.5,157.5z"/>
		<ellipse cx="-84.2" cy="155.5" rx="3.2" ry="3.1"/>
		<path d="M-80.7,161.4L-80.7,161.4c-0.2-0.6-0.3-1.2-0.3-1.8c0-0.7,0.2-1.3,0.4-1.8c-0.1-0.1-0.2-0.2-0.4-0.3
			c-0.7,1-1.9,1.7-3.2,1.7c-1.3,0-2.5-0.7-3.2-1.7c-1.3,1-2.2,2.7-2.2,4.5v0.9c0,1,0.8,1.9,1.8,1.9h4.8
			C-82.6,163.4-81.8,162.3-80.7,161.4z"/>
	</g>
	<g>
		<path class="st4" d="M124,75.7C124,75.7,124,75.7,124,75.7c-0.1,0.1-0.1,0.3-0.1,0.4C123.9,76,123.9,75.8,124,75.7z"/>
		<path class="st4" d="M123.3,82.2c-0.5-0.4-1.1-0.6-1.7-0.6c-0.8,0-1.6-0.1-2.4,0.4c-1,0.6-1.5,1.7-1.5,2.8c0,1.3,0,2.8,0,4.1
			c1.4,0,2.8,0,4.2,0c0.4,0,0.8,0,1.1,0c0.1,0,0.4,0.1,0.4,0c0.1-0.1,0-0.7,0-0.8c0-0.5,0-0.9,0-1.3c0-1.1,0-2,0.5-2.9
			c0.1-0.2,0.2-0.4,0.4-0.5c-0.1-0.2-0.1-0.4-0.2-0.5C123.8,82.6,123.6,82.3,123.3,82.2z"/>
		<path class="st4" d="M131.6,83.2c-0.6-0.4-1.3-0.4-2-0.4c-1.4,0-2.9-0.2-4,0.9c-1.3,1.3-0.9,3.7-0.9,5.4c0,0.5,0,1.1,0,1.6
			c0,0.4,0,0.8,0,1.1c0,0.1,0.1,0.1,0.2,0.1c2.8,0,5.6,0,8.3,0c0-1.9,0-3.9,0-5.9C133.1,84.8,132.5,83.7,131.6,83.2z"/>
		<path class="st4" d="M126,81.9c-0.7-0.5-1.2-1.1-1.6-1.9c-0.2,0.4-0.5,0.6-0.9,0.8c0.6,0.4,1.2,0.9,1.6,1.6
			C125.4,82.2,125.7,82.1,126,81.9z"/>
		<path class="st4" d="M135.9,72.5c0-0.8,0-1.5,0-2.2c0-0.2-0.4-0.1-0.5-0.1c-3.3,0-6.7,0-10,0c-1,0-1.9,0-2.9,0c0,0,0,1.8,0,2
			c0,0.2,0,0.3,0,0.5c0,0.1,0.6,0.2,0.6,0.3c0.6,0.3,1.2,0.8,1.6,1.4c2-2.9,6.3-2.9,8.3,0C133.6,73.4,134.7,72.7,135.9,72.5z"/>
		<path class="st4" d="M122.4,73.8C122.4,73.8,122.4,73.8,122.4,73.8c0,0.8,0,1.6,0,2.3c0,0.1,0,0.2,0,0.3c0-0.1,0-0.2,0-0.3
			C122.4,75.4,122.4,74.7,122.4,73.8z"/>
		<path class="st4" d="M122.7,79.9c0.4-0.3,1-0.7,1.1-1.2C123.7,79.2,123,79.7,122.7,79.9c-2.2,1.3-4.7-0.5-4.7-2.9
			c0-0.3,0.1-0.7,0.2-1.1c-0.1,0.4-0.2,0.7-0.2,1.1C118,79.4,120.5,81.3,122.7,79.9z"/>
		<path class="st4" d="M133.3,80c-0.4,0.8-0.9,1.4-1.6,1.9c0.3,0.2,0.6,0.3,0.9,0.5c0.4-0.6,1-1.2,1.6-1.6
			C133.9,80.6,133.5,80.3,133.3,80z"/>
		<path class="st4" d="M136.1,80.3c-0.7-0.1-1.3-0.4-1.9-0.9c-0.4-0.4-0.5-0.6-0.5-1.1c0.1-0.5,0.1-0.9,0.1-1.4c0-0.4-0.1-0.7-0.2-1
			c-0.1-0.2-0.1-0.3,0-0.5c0,0.1,0,0.3,0,0.5c0.1,0.3,0.2,0.6,0.2,1c0.1,0.5,0,0.9-0.1,1.4c-0.1,0.5,0.1,0.7,0.5,1.1
			C134.8,79.9,135.4,80.3,136.1,80.3c1.9,0.2,3.1-1.1,3.4-2.7C139.3,79.2,138,80.6,136.1,80.3z"/>
		<path class="st4" d="M134.7,81.8c-0.6,0.3-1.1,0.8-1.3,1.4c0.4,0.6,0.7,1.2,0.8,1.9c0.1,0.8,0.1,1.6,0.1,2.5c0,0.4,0,0.8,0,1.2
			c0,0.2,0.1,0.1,0.2,0.1c1.6,0,3.2,0,4.9,0c0.5,0,0.6,0.2,0.6-0.4c0-0.9,0-1.8,0-2.6c0-0.7,0.1-1.5-0.1-2.2
			c-0.4-1.2-1.5-2.2-2.9-2.2C136.2,81.5,135.4,81.5,134.7,81.8z"/>
		<path d="M146.4,63.7c-0.1-2.6-2-5-4.6-5.6c-0.4-0.1-0.8-0.2-1.2-0.2c-5.8,0-11.6,0-17.3,0c-2.1,0-4,0-6.1,0
			c-3.2,0-5.7,2.7-5.9,5.8c-0.2,2.7,1.4,5.3,4,6.2c0.6,0.2,1.3,0.3,2,0.3c0.2,0,0.4,0.4,0.5,0.6c0.5,0.8,0.9,1.5,1.3,2.2
			c-2.9,1.6-3,6-0.2,7.9c-1.2,0.6-2.1,1.9-2.3,3.3c-0.1,0.6-0.1,1.3-0.1,1.9c0,0.9,0,1.8,0,2.7c0,0.5-0.1,1.2,0.6,1.2
			c1.6,0,3.1,0,4.7,0c0.5,0,1,0,1.5,0c0,0,0,1.9,0,2.1c0,0.6,0.4,0.8,0.9,0.8c0.6,0,1.2,0,1.9,0c1.8,0,3.7,0,5.5,0
			c0.6,0,1.2,0,1.8,0c0.6,0,0.8-0.3,0.8-0.9c0-0.2,0-2,0-2c0.5,0,1.1,0,1.6,0c1.3,0,2.6,0,3.9,0c0.3,0,0.6,0.1,0.9,0
			c0.5-0.2,0.4-0.8,0.4-1.2c0-2.8,0.6-6.4-2.3-8c2.5-1.7,2.7-5.6,0.3-7.5c-0.2-0.2,0-0.3,0.1-0.5c0.2-0.4,0.5-0.8,0.7-1.2
			c0.2-0.4,0.4-0.7,0.6-1.1s0.2-0.4,0.6-0.5C144.4,69.7,146.6,66.8,146.4,63.7z M118,77c0-0.4,0.1-0.7,0.2-1.1
			c0.1-0.4,0.3-0.7,0.5-1c0.2-0.2,0.9-1.2,1.2-0.8c0.5,0.8,0.9,1.5,1.3,2.3c0.1,0.2,0.3,0.5,0.6,0.5c0.4,0,0.5-0.2,0.6-0.5
			c0-0.1,0-0.2,0-0.3c0-0.8,0-1.5,0-2.3c0,0,0,0,0,0c0,0,0,0,0,0c0.5,0.2,1,0.6,1.3,1.1c0.1,0.2,0.4,0.5,0.3,0.8c0,0,0,0,0,0
			c0,0,0,0,0,0c-0.1,0.1-0.1,0.3-0.1,0.4c0,0.2-0.1,0.3-0.1,0.5c-0.1,0.6-0.1,1.3,0.1,1.9c0,0.1,0,0.1,0,0.2c-0.1,0.5-0.7,1-1.1,1.2
			C120.5,81.3,118,79.4,118,77z M124.7,74.3c-0.4-0.6-1-1.1-1.6-1.4c-0.1-0.1-0.6-0.2-0.6-0.3c0-0.2,0-0.3,0-0.5c0-0.2,0-2,0-2
			c1,0,1.9,0,2.9,0c3.3,0,6.7,0,10,0c0.2,0,0.5-0.1,0.5,0.1c0,0.8,0,1.5,0,2.2c-1.2,0.2-2.2,0.9-2.9,1.8
			C131,71.4,126.7,71.4,124.7,74.3z M129.8,81.5c-2.1,0.5-4.2-0.8-4.7-2.8c-0.6-2.2,0.6-4.7,2.8-5.3c2.1-0.5,4.1,0.8,4.7,2.8
			C133.2,78.4,132,80.9,129.8,81.5z M123.9,83.8c-0.5,0.9-0.5,1.9-0.5,2.9c0,0.5,0,0.9,0,1.3c0,0.1,0.1,0.7,0,0.8
			c-0.1,0.1-0.4,0-0.4,0c-0.4,0-0.8,0-1.1,0c-1.4,0-2.8,0-4.2,0c0-1.3,0-2.8,0-4.1c0-1.1,0.5-2.2,1.5-2.8c0.8-0.5,1.6-0.4,2.4-0.4
			c0.6,0,1.2,0.2,1.7,0.6c0.3,0.2,0.5,0.5,0.7,0.7c0.1,0.1,0.2,0.3,0.2,0.5C124.1,83.5,124,83.6,123.9,83.8z M123.5,80.9
			c0.4-0.2,0.6-0.5,0.9-0.8c0.4,0.8,0.9,1.4,1.6,1.9c-0.3,0.1-0.6,0.3-0.9,0.5C124.7,81.8,124.1,81.2,123.5,80.9z M133.1,91.8
			c-2.8,0-5.6,0-8.3,0c-0.1,0-0.2,0.1-0.2-0.1c0-0.4,0-0.8,0-1.1c0-0.5,0-1.1,0-1.6c0-1.8-0.4-4.1,0.9-5.4c1.1-1.1,2.6-0.9,4-0.9
			c0.7,0,1.4,0.1,2,0.4c0.9,0.6,1.5,1.6,1.5,2.8C133.1,87.9,133.1,89.9,133.1,91.8z M132.5,82.4c-0.3-0.2-0.6-0.4-0.9-0.5
			c0.7-0.5,1.2-1.1,1.6-1.9c0.2,0.3,0.6,0.6,0.9,0.8C133.5,81.2,132.9,81.8,132.5,82.4z M139.8,83.7c0.2,0.7,0.1,1.5,0.1,2.2
			c0,0.9,0,1.8,0,2.6c0,0.5-0.1,0.4-0.6,0.4c-1.6,0-3.3,0-4.9,0c-0.1,0-0.2,0.1-0.2-0.1c0-0.4,0-0.8,0-1.2c0-0.8,0.1-1.6-0.1-2.5
			c-0.1-0.7-0.4-1.3-0.8-1.9c0.3-0.6,0.8-1.1,1.3-1.4c0.7-0.4,1.5-0.3,2.2-0.3C138.3,81.6,139.4,82.5,139.8,83.7z M139.6,77.7
			c-0.3,1.6-1.5,2.9-3.4,2.7c-0.7-0.1-1.3-0.4-1.9-0.9c-0.4-0.4-0.5-0.6-0.5-1.1c0.1-0.5,0.1-0.9,0.1-1.4c0-0.4-0.1-0.7-0.2-1
			c-0.1-0.2-0.1-0.4,0-0.5c0-0.1,0.1-0.3,0.3-0.5c0.5-0.6,1.1-1.1,1.9-1.3c0,0.5,0,1.1,0,1.6c0,0.5-0.2,1.5,0.4,1.6
			c0.6,0.2,0.9-0.8,1.2-1.2c0.3-0.5,0.6-1,0.9-1.5C139.4,75.1,139.8,76.5,139.6,77.7z M143.8,67.5c-0.5,0.5-1.2,0.9-1.9,1.2
			c-0.4,0.1-0.7,0.2-1.1,0.2c-0.4,0-0.7,0-0.9,0.3c-0.3,0.4-0.5,0.9-0.8,1.3c-0.8,1.2-1.5,2.5-2.2,3.7c0-1.4,0-2.8,0-4.2
			c0-0.5,0-1.1-0.6-1.1c-0.4,0-0.8,0-1.1,0c-3.5,0-7,0-10.4,0c-0.8,0-1.5,0-2.3,0c-0.5,0-1.3-0.1-1.3,0.6c-0.1,0.8,0,1.7,0,2.5
			c0,0.7,0,1.4,0,2.2c-0.8-1.2-1.5-2.5-2.2-3.7c-0.2-0.4-0.5-0.9-0.8-1.3c-0.2-0.4-0.8-0.3-1.1-0.3c-0.6,0-1.3-0.2-1.9-0.4
			c-2.6-1.2-3.5-4.6-2.1-7c0.9-1.7,2.6-2.5,4.5-2.5c6.4,0,12.8,0,19.2,0c1.3,0,2.6,0,3.8,0C144.8,59,146.6,64.6,143.8,67.5z"/>
		<path d="M140.5,59c-1.2,0-2.5,0-3.8,0c-6.4,0-12.8,0-19.2,0c-1.9,0-3.5,0.8-4.5,2.5c-1.3,2.5-0.5,5.8,2.1,7
			c0.6,0.2,1.3,0.4,1.9,0.4c0.4,0,0.9-0.1,1.1,0.3c0.3,0.4,0.5,0.9,0.8,1.3c0.8,1.2,1.5,2.5,2.2,3.7c0-0.8,0-1.5,0-2.2
			c0-0.8-0.1-1.7,0-2.5c0-0.7,0.8-0.6,1.3-0.6c0.8,0,1.6,0,2.3,0c3.5,0,7,0,10.4,0c0.4,0,0.8,0,1.1,0c0.6,0,0.6,0.6,0.6,1.1
			c0,1.4,0,2.8,0,4.2c0.8-1.2,1.5-2.5,2.2-3.7c0.2-0.4,0.5-0.9,0.8-1.3c0.2-0.3,0.5-0.3,0.9-0.3c0.4-0.1,0.7-0.1,1.1-0.2
			c0.7-0.3,1.3-0.7,1.9-1.2C146.6,64.6,144.8,59,140.5,59z"/>
		<path d="M122.7,79.9c0.4-0.3,1-0.7,1.1-1.2c0-0.1,0-0.1,0-0.2c-0.1-0.6-0.2-1.3-0.1-1.9c0-0.2,0.1-0.3,0.1-0.5
			c0-0.2,0.1-0.3,0.1-0.4c0.1-0.3-0.2-0.6-0.3-0.8c-0.3-0.5-0.8-0.8-1.3-1.1c0,0.8,0,1.6,0,2.3c0,0.1,0,0.2,0,0.3
			c-0.1,0.3-0.3,0.5-0.6,0.5c-0.3,0-0.5-0.3-0.6-0.5c-0.4-0.8-0.9-1.5-1.3-2.3c-0.2-0.4-1,0.6-1.2,0.8c-0.2,0.3-0.4,0.6-0.5,1
			c-0.1,0.3-0.2,0.7-0.2,1.1C118,79.4,120.5,81.3,122.7,79.9z"/>
		<path d="M123.8,78.5c0,0.1,0,0.1,0,0.2C123.8,78.7,123.8,78.6,123.8,78.5c-0.1-0.7-0.2-1.3-0.1-1.9c0-0.2,0.1-0.3,0.1-0.5
			c0,0.2-0.1,0.3-0.1,0.5C123.6,77.2,123.7,77.9,123.8,78.5z"/>
		<path d="M119.8,74.1c0.5,0.8,0.9,1.5,1.3,2.3c0.1,0.2,0.3,0.5,0.6,0.5c0.4,0,0.5-0.2,0.6-0.5c-0.1,0.3-0.3,0.5-0.6,0.5
			c-0.3,0-0.5-0.3-0.6-0.5C120.7,75.7,120.3,74.9,119.8,74.1c-0.2-0.4-1,0.6-1.2,0.8c-0.2,0.3-0.4,0.6-0.5,1c0.1-0.4,0.3-0.7,0.5-1
			C118.8,74.7,119.6,73.8,119.8,74.1z"/>
		<path d="M123.7,74.9c0.1,0.2,0.4,0.5,0.3,0.8c0,0,0,0,0,0C124.1,75.4,123.8,75.1,123.7,74.9c-0.3-0.5-0.8-0.8-1.3-1.1c0,0,0,0,0,0
			C122.9,74.1,123.4,74.4,123.7,74.9z"/>
		<path d="M138.3,74.3c-0.3,0.5-0.6,1-0.9,1.5c-0.3,0.4-0.6,1.3-1.2,1.2s-0.4-1.2-0.4-1.6c0-0.6,0-1.1,0-1.6
			c-0.8,0.2-1.4,0.6-1.9,1.3c-0.1,0.2-0.2,0.3-0.3,0.5c0,0.1,0,0.3,0,0.5c0.1,0.3,0.2,0.6,0.2,1c0.1,0.5,0,0.9-0.1,1.4
			c-0.1,0.5,0.1,0.7,0.5,1.1c0.5,0.5,1.2,0.9,1.9,0.9c1.9,0.2,3.1-1.1,3.4-2.7C139.8,76.5,139.4,75.1,138.3,74.3z"/>
		<path d="M138.3,74.3c-0.3,0.5-0.6,1-0.9,1.5c-0.3,0.4-0.6,1.3-1.2,1.2c-0.6-0.2-0.4-1.2-0.4-1.6c0-0.6,0-1.1,0-1.6
			c-0.8,0.2-1.4,0.6-1.9,1.3c-0.1,0.2-0.2,0.4-0.3,0.5c0-0.1,0.1-0.3,0.3-0.5c0.5-0.6,1.1-1.1,1.9-1.3c0,0.5,0,1.1,0,1.6
			c0,0.5-0.2,1.5,0.4,1.6s0.9-0.8,1.2-1.2C137.7,75.3,138,74.8,138.3,74.3c1.1,0.8,1.5,2.2,1.2,3.4
			C139.8,76.5,139.4,75.1,138.3,74.3z"/>
		<path d="M127.9,73.4c-2.2,0.6-3.5,3.1-2.8,5.3c0.5,2,2.6,3.3,4.7,2.8c2.3-0.6,3.5-3.1,2.8-5.3C132,74.2,129.9,72.9,127.9,73.4z"/>
	</g>
	<path class="st6" d="M-48.4,75.5c0.5-4.5-2.6-8.7-7.1-9.5c-3.8-0.8-8.3,0.6-11.7,4.8c-0.3,0.3-0.8,0.4-1.1,0.1
		c-0.1,0-0.1-0.1-0.1-0.1c-3.3-4.2-7.9-5.5-11.7-4.8c-4.5,0.8-7.6,5-7.1,9.5h0c0.4,6,5.6,14.2,19.4,23.2"/>
	<path class="st6" d="M-67.8,98.8c13.8-9.1,19-17.2,19.4-23.2"/>
	<path class="st6" d="M-67.8,78.4c-1.2,0-2.2-1-2.2-2.2c0-1.2,1-2.2,2.2-2.2c1.2,0,2.2,1,2.2,2.2c0,0.6-0.2,1.1-0.6,1.5
		C-66.7,78.1-67.3,78.4-67.8,78.4z"/>
	<path class="st6" d="M-60.6,80c-1,0-1.9-0.8-1.9-1.9c0-1,0.8-1.9,1.9-1.9c1,0,1.9,0.8,1.9,1.9c0,0.5-0.2,1-0.5,1.3
		C-59.6,79.8-60.1,80-60.6,80z"/>
	<path class="st6" d="M-63.4,82.7c1.7-1.6,4.4-1.4,6,0.3c0.5,0.6,0.9,1.3,1,2.1h-8.3C-64.6,84.1-64.1,83.3-63.4,82.7z"/>
	<path class="st6" d="M-75.1,80c-1,0-1.9-0.8-1.9-1.9c0-1,0.8-1.9,1.9-1.9c1,0,1.9,0.8,1.9,1.9c0,0.5-0.2,1-0.5,1.3
		C-74.1,79.8-74.6,80-75.1,80z"/>
	<path class="st6" d="M-77.9,82.7c1.7-1.6,4.4-1.5,6,0.3c0.5,0.6,0.9,1.3,1,2.1h-8.3C-79.1,84.1-78.6,83.3-77.9,82.7z"/>
	<path class="st6" d="M-71.3,81.4c1.8-1.9,4.8-2,6.7-0.2c0.1,0.1,0.1,0.1,0.2,0.2c0,0-0.1,0.1-0.1,0.1c-0.7,0.7-1.3,1.5-1.6,2.4
		h-3.5c-0.3-0.9-0.9-1.7-1.6-2.4C-71.2,81.5-71.2,81.4-71.3,81.4L-71.3,81.4z"/>
	<path class="st6" d="M-80.9,85.3c0.2-2.1,1.4-3.9,3.3-4.7c-1.3-1.4-1.3-3.5,0-4.9c1.4-1.3,3.6-1.3,4.9,0c1.2,1.2,1.3,3.2,0.3,4.6
		c0.5-0.5,1-0.9,1.6-1.2c0.1-0.1,0.2-0.1,0.4-0.2l-0.1-0.1c-1.5-1.5-1.5-3.8,0-5.3c1.5-1.5,3.8-1.5,5.3,0c1.5,1.5,1.5,3.8,0,5.3
		l-0.1,0.1c0.1,0.1,0.2,0.1,0.4,0.2c0.6,0.3,1.1,0.7,1.6,1.2c-1.2-1.5-0.9-3.7,0.6-4.9c1.5-1.2,3.7-0.9,4.9,0.6
		c1.1,1.4,1,3.3-0.3,4.6c1.9,0.9,3.1,2.7,3.3,4.7c0,0.2,0,0.3-0.1,0.5c-0.1,0.2-0.1,0.3-0.3,0.4c-0.2,0.3-0.6,0.4-0.9,0.4h-9.2
		c-0.3,0-0.7-0.1-0.9-0.4c-0.1-0.1-0.2-0.3-0.3-0.4c0-0.1,0-0.2-0.1-0.3h-2.9c0,0.1,0,0.2-0.1,0.3c-0.1,0.3-0.3,0.6-0.7,0.7
		c-0.2,0.1-0.3,0.1-0.5,0.1h-9.2c-0.3,0-0.7-0.1-0.9-0.4c-0.1-0.1-0.2-0.3-0.3-0.4C-80.9,85.6-80.9,85.4-80.9,85.3z"/>
	<path class="st7" d="M107.7,1.9c2.1,5.5,9.2,11.8,24.7,16.4c10.5-12.4,13-21.5,11.7-27.2c-0.8-4.4-4.9-7.5-9.3-7
		c-3.8,0.3-7.7,2.9-9.6,7.7c-0.2,0.4-0.6,0.6-1,0.4c-0.1,0-0.1-0.1-0.2-0.1c-4.3-3-9-3-12.3-1.2C107.8-7,106-2.2,107.7,1.9
		L107.7,1.9z M126.7-0.8c-1.1,0.3-2.3-0.3-2.6-1.4c-0.3-1.1,0.3-2.3,1.4-2.6c1.1-0.3,2.3,0.3,2.6,1.4c0.2,0.5,0.1,1.1-0.2,1.6
		C127.7-1.3,127.3-1,126.7-0.8z M134-1.3c-1,0.3-2-0.3-2.3-1.2c-0.3-1,0.3-2,1.2-2.3c1-0.3,2,0.3,2.3,1.2c0.1,0.5,0.1,1-0.1,1.4
		C134.9-1.7,134.5-1.4,134-1.3z M132.1,2c1.2-2,3.7-2.6,5.7-1.4c0.7,0.4,1.2,1,1.5,1.6l-7.8,2.3C131.4,3.7,131.6,2.8,132.1,2z
		 M120.4,2.7c-1,0.3-2-0.3-2.3-1.2c-0.3-1,0.3-2,1.2-2.3c1-0.3,2,0.3,2.3,1.2c0.1,0.5,0.1,1-0.1,1.4C121.3,2.3,120.9,2.6,120.4,2.7z
		 M118.5,6.1c1.2-2,3.7-2.6,5.7-1.4c0.7,0.4,1.2,1,1.5,1.6l-7.8,2.3C117.8,7.7,118,6.8,118.5,6.1z M124.4,3c1.2-2.3,4-3.2,6.3-2
		c0.1,0,0.1,0.1,0.2,0.1c0,0-0.1,0.1-0.1,0.1C130.3,2,130,3,129.9,3.9l-3.3,1c-0.6-0.8-1.3-1.4-2.1-1.8C124.5,3.1,124.4,3,124.4,3
		L124.4,3z M116.4,9.3c-0.4-2,0.3-4,1.8-5.4c-1.6-0.9-2.2-3-1.3-4.6c0.9-1.6,3-2.2,4.6-1.3c1.5,0.8,2.1,2.6,1.5,4.2
		c0.3-0.6,0.7-1.1,1.2-1.5c0.1-0.1,0.2-0.2,0.3-0.3l-0.1,0c-1.8-1-2.4-3.2-1.5-5s3.2-2.4,5-1.5c1.8,1,2.4,3.2,1.5,5l0,0.1
		c0.1,0,0.3,0,0.4,0.1c0.6,0.1,1.2,0.3,1.8,0.7c-1.5-1.1-1.9-3.2-0.8-4.7s3.2-1.9,4.7-0.8c1.4,1,1.8,2.8,1,4.4
		c2,0.3,3.7,1.6,4.4,3.5c0.1,0.2,0.1,0.3,0.1,0.5c0,0.2,0,0.3-0.1,0.5c-0.1,0.3-0.4,0.5-0.7,0.6l-8.6,2.6c-0.3,0.1-0.7,0.1-0.9-0.1
		c-0.1-0.1-0.3-0.2-0.4-0.3c-0.1-0.1-0.1-0.2-0.1-0.2l-2.7,0.8c0,0.1,0,0.2,0,0.3c0,0.3-0.2,0.6-0.4,0.9c-0.1,0.1-0.3,0.2-0.4,0.2
		l-8.6,2.6c-0.3,0.1-0.7,0.1-0.9-0.1c-0.1-0.1-0.3-0.2-0.4-0.3C116.5,9.6,116.5,9.5,116.4,9.3z"/>
	<g>
		<polygon class="st8" points="32.6,27.1 29.9,27.1 29.4,29.7 32.1,29.7 		"/>
		<g>
			<path class="st9" d="M36.9,51.2c0.9-1,2.2-1.7,3.7-1.7H44c2.2,0,4.1,1.4,4.6,3.4V13.6l-19.9,7.3h9.2c1.9,0,3.4,1.4,3.4,3.1v8.9
				c0,1.7-1.5,3.1-3.4,3.1h-5.9l-4.4,3.8c-0.9,0.8-2.3,0.2-2.3-0.9v-3H24c-1.9,0-3.4-1.4-3.4-3.1V24c0-0.1,0-0.1,0-0.2l-7.3,2.7
				v21.2c0,1.6,0.1,3.1,0.2,4.6c0.7-1.7,2.4-2.8,4.4-2.8h3.3c1.5,0,2.9,0.7,3.7,1.7c-1.3,1-2.2,2.4-2.4,4.1l-0.4,2.9h2l0.3-2.7
				c0.3-2.2,2.3-3.8,4.7-3.8h3.3c2.4,0,4.4,1.7,4.8,3.8l0.3,2.7h1.9l-0.4-2.9C39.2,53.6,38.3,52.1,36.9,51.2z M42.3,40.1
				c2.5,0,4.5,1.9,4.5,4.1c0,2.3-2,4.1-4.5,4.1c-2.5,0-4.5-1.9-4.5-4.1C37.8,42,39.8,40.1,42.3,40.1z M19.7,48.4
				c-2.5,0-4.5-1.9-4.5-4.1c0-2.3,2-4.1,4.5-4.1c2.5,0,4.5,1.9,4.5,4.1C24.2,46.6,22.2,48.4,19.7,48.4z M31,50.5
				c-2.5,0-4.5-1.9-4.5-4.1c0-2.3,2-4.1,4.5-4.1s4.5,1.9,4.5,4.1C35.5,48.6,33.5,50.5,31,50.5z"/>
			<path class="st9" d="M47.1,58.1h1.5v-0.3c-0.1,0-0.1,0.1-0.2,0.1C48,58,47.5,58.1,47.1,58.1z"/>
			<path class="st9" d="M14.3,58.1h0.6c-0.2,0-0.4-0.1-0.6-0.1C14.3,58.1,14.3,58.1,14.3,58.1z"/>
			<path class="st8" d="M19.7,40.1c-2.5,0-4.5,1.9-4.5,4.1c0,2.3,2,4.1,4.5,4.1c2.5,0,4.5-1.9,4.5-4.1C24.2,42,22.2,40.1,19.7,40.1z
				"/>
			<path d="M13.3,53.3l-0.5,3.6c0,0.5,0.3,0.9,0.8,1c0.2,0,0.5,0.1,0.7,0.1c-0.3-1.9-0.5-3.8-0.7-5.7C13.4,52.6,13.3,53,13.3,53.3z"
				/>
			<path d="M19.7,58.5c0.9,0,1.7,0,2.5-0.1l0-0.3h-7.4C16.4,58.4,18,58.5,19.7,58.5z"/>
			<path class="st8" d="M25,51.2c-0.9-1-2.2-1.7-3.7-1.7H18c-2,0-3.7,1.2-4.4,2.8c0.1,1.9,0.4,3.8,0.7,5.7c0.2,0,0.4,0.1,0.6,0.1
				h7.4l0.4-2.9C22.8,53.6,23.7,52.1,25,51.2z"/>
			<ellipse class="st8" cx="42.3" cy="44.3" rx="4.5" ry="4.1"/>
			<path d="M39.8,58.4c0.8,0.1,1.7,0.1,2.5,0.1c1.7,0,3.3-0.1,4.8-0.4h-7.4L39.8,58.4z"/>
			<path d="M49.2,56.9l-0.5-3.5c0-0.2-0.1-0.3-0.1-0.5v5C49,57.7,49.2,57.3,49.2,56.9z"/>
			<path class="st8" d="M44,49.5h-3.3c-1.5,0-2.9,0.6-3.7,1.7c1.3,1,2.2,2.4,2.4,4.1l0.4,2.9h7.4c0.4-0.1,0.9-0.1,1.3-0.2
				c0.1,0,0.1,0,0.2-0.1v-5C48.1,50.9,46.2,49.5,44,49.5z"/>
			<path d="M24.2,59c0,0.5,0.3,0.9,0.8,1c1.9,0.4,4,0.6,6.1,0.6s4.2-0.2,6.1-0.6c0.5-0.1,0.8-0.5,0.8-1l-0.1-0.9H24.3L24.2,59z"/>
			<path class="st8" d="M32.7,51.6h-3.3c-2.4,0-4.4,1.7-4.7,3.8l-0.3,2.7h13.5l-0.3-2.7C37.1,53.3,35.1,51.6,32.7,51.6z"/>
			<ellipse class="st8" cx="31" cy="46.4" rx="4.5" ry="4.1"/>
			<path d="M24,20.8c-1.8,0-3.3,1.3-3.4,3l8.1-3H24z"/>
			<path class="st8" d="M20.6,32.9c0,1.7,1.5,3.1,3.4,3.1h1.4v3c0,1.1,1.4,1.6,2.3,0.9l4.4-3.8h5.9c1.9,0,3.4-1.4,3.4-3.1V24
				c0-1.7-1.5-3.1-3.4-3.1h-9.2l-8.1,3c0,0.1,0,0.1,0,0.2V32.9z"/>
		</g>
	</g>
	<g>
		<path class="st9" d="M40.4,26.5l0,0.2c0.5,1.9-0.3,3.9-2,5c-1.2,0.8-2.6,1.1-4,0.7c-0.6-0.1-1.1-0.4-1.6-0.7
			c-0.1,0-4.8-3.4-4.9-3.4c-0.4-0.3-0.9-0.5-1.4-0.5c-0.7-0.1-1.5,0.1-2.1,0.5c-1,0.6-1.5,1.8-1.2,2.9l0,0.1
			c0.3,1.1,1.3,1.9,2.5,1.9c1.3,0.1,2.4-0.6,2.9-1.7l0.4-1.2l1.7,1.3l-0.3,0.7c-0.6,1.3-1.8,2.3-3.2,2.7c-0.5,0.1-1.1,0.2-1.7,0.2
			c-2-0.1-3.7-1.4-4.3-3.3l-0.1-0.2c-0.5-1.9,0.3-3.9,2-5c1.2-0.8,2.6-1.1,4-0.7c0.6,0.1,1.1,0.4,1.6,0.7c0.1,0,1.5,1,1.5,1
			c0.8,0.6,1.3,0.9,3.4,2.4c0.4,0.3,0.9,0.5,1.4,0.5c0.7,0.1,1.5-0.1,2.1-0.5c1-0.6,1.5-1.8,1.2-2.9l0-0.1c-0.3-1.1-1.3-1.9-2.5-1.9
			c-1.3-0.1-2.4,0.6-2.9,1.7l-0.4,1.3L31,26.8l0.3-0.7c0.8-1.9,2.8-3,4.9-2.9C38.2,23.3,39.9,24.6,40.4,26.5z"/>
	</g>
	
		<rect x="11.9" y="59.9" transform="matrix(0.5582 -0.8297 0.8297 0.5582 -53.1288 64.8753)" class="st4" width="44.8" height="44.8"/>
	<path class="st4" d="M52,107.7l-5.8-0.3c-17.5-6.8-27.8-25.2-30.5-41.7L15,61.7h33.6L52,107.7z"/>
	<text transform="matrix(1 0 0 1 15.799 65.9373)"><tspan x="0" y="0" class="st10 st11 st12">01110111 </tspan><tspan x="1.9" y="7.8" class="st10 st11 st12">01101001 </tspan><tspan x="4.8" y="15.6" class="st10 st11 st12">0110110</tspan><tspan x="9.1" y="23.4" class="st10 st11 st12">0 </tspan><tspan x="15.3" y="31.2" class="st10 st11 st12">01101</tspan><tspan x="25.3" y="39" class="st10 st11 st12">10</tspan></text>
	<g>
		<g>
			<path class="st4" d="M32.3,79.7c-0.2-0.2-0.5-0.2-0.7-0.1l-2.8,2.3c-0.1,0.1-0.2,0.2-0.2,0.4s0.1,0.3,0.2,0.4l2.8,2.3
				c0.1,0.1,0.2,0.1,0.3,0.1c0.1,0,0.3-0.1,0.4-0.2c0.2-0.2,0.1-0.5-0.1-0.7l-2.3-2l2.3-2C32.4,80.2,32.5,79.9,32.3,79.7z"/>
			<path class="st4" d="M36.8,79.6c-0.2-0.1-0.5-0.1-0.6,0.2l-2.8,4.6c-0.1,0.2-0.1,0.5,0.2,0.6c0.1,0,0.2,0.1,0.2,0.1
				c0.2,0,0.3-0.1,0.4-0.2l2.8-4.6C37.1,80,37,79.7,36.8,79.6z"/>
			<path class="st4" d="M38.7,79.6c-0.2-0.2-0.5-0.1-0.7,0.1c-0.2,0.2-0.1,0.5,0.1,0.7l2.3,2l-2.3,2c-0.2,0.2-0.2,0.5-0.1,0.7
				c0.1,0.1,0.2,0.2,0.4,0.2c0.1,0,0.2,0,0.3-0.1l2.8-2.3c0.1-0.1,0.2-0.2,0.2-0.4s-0.1-0.3-0.2-0.4L38.7,79.6z"/>
			<path class="st4" d="M13.4,47.7c0,3.6,0.3,7,0.9,10.4h34.3V13.6L13.4,26.5V47.7z"/>
			<path class="st4" d="M44.4,92.4H31c2.5,2.8,5.1,5.4,7.8,7.6c3.2,2.6,6.5,4.8,9.7,6.2V61.7H15c1.9,8.3,5.5,16,10,22.8v-6
				c0-1,0.8-1.8,1.8-1.8h16.6c1,0,1.8,0.8,1.8,1.8v9.2h-18c0.2,0.3,0.5,0.6,0.7,0.9h20.1C48.1,90.8,46.4,92.4,44.4,92.4z"/>
			<path class="st4" d="M72.8,87.7c5.5-7.4,10-16.2,12.2-26H51.4v44.5C59.1,103,67.4,95,72.8,87.7z"/>
			<path d="M89.4,45.7V25.1c0-0.9-0.5-1.6-1.1-1.8l-38-13.9c-0.3-0.1-0.5-0.1-0.8,0l-38,13.9c-0.6,0.2-1,0.9-1,1.7h0v22.6
				c0,15.5,5.6,29.8,13.6,41H28c-0.2-0.3-0.5-0.6-0.7-0.9H25v-3.3c-4.5-6.8-8.1-14.6-10-22.8h33.6v44.5c-3.2-1.4-6.6-3.6-9.7-6.2
				c-2.7-2.3-5.4-4.8-7.8-7.6H27c6.1,7.5,14.7,15.3,22.7,18c0.2,0.1,0.5,0.1,0.7,0c4.1-1.3,8.3-4,12.3-7.3
				C77.2,91,89.4,70.6,89.4,47.7v-0.4c-0.3,0.2-0.7,0.4-1.2,0.2l-1.6-0.6v0.8c0,3.6-0.3,7-0.9,10.4H51.4V31.4l-1.3,0.6
				c-0.2-0.2,0.3-1.2,0.5-1.4l0.8-0.4V13.6l35.2,12.9v15.6L89.4,45.7z M48.6,58.1H14.3c-0.6-3.4-0.9-6.9-0.9-10.4V26.5l35.2-12.9
				V58.1z M51.4,61.7H85c-2.3,9.8-6.7,18.6-12.2,26C67.4,95,59.1,103,51.4,106.3V61.7z"/>
			<path class="st13" d="M45.3,78.6c0-1-0.8-1.8-1.8-1.8H26.9c-1,0-1.8,0.8-1.8,1.8v6c0.7,1.1,1.5,2.2,2.3,3.3h18V78.6z M32.2,84.2
				c0.2,0.2,0.2,0.5,0.1,0.7c-0.1,0.1-0.2,0.2-0.4,0.2c-0.1,0-0.2,0-0.3-0.1l-2.8-2.3c-0.1-0.1-0.2-0.2-0.2-0.4s0.1-0.3,0.2-0.4
				l2.8-2.3c0.2-0.2,0.5-0.1,0.7,0.1c0.2,0.2,0.1,0.5-0.1,0.7l-2.3,2L32.2,84.2z M36.9,80.2l-2.8,4.6c-0.1,0.1-0.2,0.2-0.4,0.2
				c-0.1,0-0.2,0-0.2-0.1c-0.2-0.1-0.3-0.4-0.2-0.6l2.8-4.6c0.1-0.2,0.4-0.3,0.6-0.2C37,79.7,37.1,80,36.9,80.2z M41.5,82.6L38.7,85
				c-0.1,0.1-0.2,0.1-0.3,0.1c-0.1,0-0.3-0.1-0.4-0.2c-0.2-0.2-0.1-0.5,0.1-0.7l2.3-2l-2.3-2c-0.2-0.2-0.2-0.5-0.1-0.7
				c0.2-0.2,0.5-0.2,0.7-0.1l2.8,2.3c0.1,0.1,0.2,0.2,0.2,0.4S41.6,82.6,41.5,82.6z"/>
			<path d="M25,87.8h2.3c-0.8-1.1-1.6-2.2-2.3-3.3V87.8z"/>
			<path class="st13" d="M44.4,92.4c2,0,3.7-1.7,3.7-3.7H28c1,1.3,2,2.5,3,3.7H44.4z"/>
			<path d="M28,88.8h-3.8c0.3,0.5,0.7,1,1,1.4c0.5,0.7,1.1,1.5,1.7,2.2H31C30,91.3,29,90,28,88.8z"/>
		</g>
		<path class="st13" d="M35.2,66.6c-1.5,0-2.8,1.2-2.8,2.8c0,1.2,0.8,2.2,1.8,2.6v3.9h1.8V72c1.1-0.4,1.8-1.4,1.8-2.6
			C37.9,67.9,36.7,66.6,35.2,66.6z"/>
		<path class="st13" d="M43.5,66.6c-1.5,0-2.8,1.2-2.8,2.8c0,1.2,0.8,2.2,1.8,2.6v1.1h-3.7c-0.5,0-0.9,0.4-0.9,0.9v1.8h1.8v-0.9h3.7
			c0.5,0,0.9-0.4,0.9-0.9v-2c1.1-0.4,1.8-1.4,1.8-2.6C46.2,67.9,45,66.6,43.5,66.6z"/>
		<path class="st13" d="M31.5,73.1h-3.7V72c1.1-0.4,1.8-1.4,1.8-2.6c0-1.5-1.2-2.8-2.8-2.8c-1.5,0-2.8,1.2-2.8,2.8
			c0,1.2,0.8,2.2,1.8,2.6v2c0,0.5,0.4,0.9,0.9,0.9h3.7v0.9h1.8V74C32.4,73.5,32,73.1,31.5,73.1z"/>
	</g>
	<g>
		<path d="M139.2,142.3l-6.5-6.2l-2.6,5.1c-0.5,0.9-0.3,2,0.5,2.7l2.8,2.6c3,2.9,6.8,4.8,10.9,5.5l3.7,0.7c1,0.2,2-0.3,2.5-1.2
			l2.6-5.1l-8.5-1.5c-1-0.2-1.9-0.5-2.8-1C140.8,143.5,140,143,139.2,142.3z"/>
		<path d="M129.9,130l0.6,0.6l-1.7,3.3c-0.3,0-0.6,0.2-0.7,0.4l-0.4,0.8c-0.2,0.3-0.1,0.6,0.1,0.9l-1.5,1.3c-0.2,0.2-0.2,0.5,0,0.6
			l0.7,0.4c0.1,0.1,0.3,0.2,0.4,0.2l0.8,0.3c0.3,0.1,0.5-0.1,0.5-0.3l0.1-2c0.3,0,0.6-0.1,0.8-0.4l0.4-0.8c0.1-0.3,0.1-0.6-0.1-0.8
			l1.5-2.9l9.5,9c1.1,1.1,2.5,1.8,4,2l15,2.7c1,0.2,1.7-1.1,0.9-1.8l-11.1-10.5c-1.1-1.1-2.5-1.8-4-2l-15-2.7
			C129.8,128,129.1,129.2,129.9,130z"/>
	</g>
	<path d="M160.8,25.8H132c-0.6,0-1.1,0-1.1,0.6v22.4c0,0.6,0.5,1.1,1.1,1.1h10v1.9h-1.4c-0.8,0-1.4,0.6-1.4,1.4c0,0,0,0,0,0h14.5
		c0-0.8-0.6-1.4-1.4-1.4h-1.5V50h10c0.6,0,1.1-0.5,1.1-1.1V26.9C162,26.3,161.5,25.8,160.8,25.8C160.8,25.8,160.8,25.8,160.8,25.8z
		 M146.4,49.7c-0.7,0-1.2-0.5-1.2-1.2c0-0.7,0.5-1.2,1.2-1.2c0.7,0,1.2,0.5,1.2,1.2c0,0,0,0,0,0C147.6,49.2,147.1,49.7,146.4,49.7z
		 M159.5,45.7h-26.1V28.3h26.1V45.7z"/>
	<path d="M148.3,30.9c-1.3-1.3-3.6-1.2-6.1,0.1c-2.4-1.3-4.8-1.5-6.1-0.1s-1.2,3.6,0.1,6.1c-1.3,2.4-1.4,4.8-0.1,6.1
		c1.5,1.5,3.9,1,6.1-0.2c2.2,1.2,4.6,1.7,6.1,0.2c1.3-1.3,1.2-3.6-0.1-6.1C149.5,34.6,149.6,32.2,148.3,30.9z M147,32.3
		c0.5,0.5,0.5,1.6,0,2.8c-0.8-1-1.8-2-2.8-2.8C145.3,31.8,146.4,31.7,147,32.3z M145.9,37c-0.5,0.7-1.1,1.4-1.7,2
		c-0.6,0.6-1.3,1.2-2,1.7c-0.7-0.5-1.4-1.1-2-1.7c-0.6-0.6-1.2-1.3-1.7-2c0.5-0.7,1.1-1.4,1.7-2c0.6-0.6,1.3-1.1,2-1.6
		c0.7,0.5,1.4,1,2,1.6C144.9,35.6,145.4,36.3,145.9,37z M137.5,32.3c0.6-0.6,1.7-0.4,2.8,0c-0.5,0.4-1,0.8-1.5,1.3
		c-0.5,0.5-0.9,1-1.3,1.5C137,33.8,137,32.8,137.5,32.3z M137.5,41.7c-0.5-0.5-0.5-1.6,0-2.8c0.4,0.5,0.8,1,1.3,1.5
		c0.5,0.5,1,0.9,1.5,1.3C139.1,42.2,138,42.2,137.5,41.7z M147,41.7c-0.5,0.5-1.6,0.5-2.9,0c1.1-0.8,2-1.8,2.8-2.8
		C147.4,40.2,147.5,41.2,147,41.7z"/>
	<path d="M142.2,35.9c-0.6,0-1.1,0.5-1.1,1.1c0,0,0,0,0,0c0,0.3,0.1,0.6,0.3,0.8c0.4,0.4,1.1,0.4,1.6,0c0.4-0.4,0.4-1.1,0-1.6
		C142.8,36,142.5,35.9,142.2,35.9L142.2,35.9z"/>
	<path d="M154.3,34.7h-2.5c-0.5,0-0.9-0.3-0.9-0.8c0-0.5,0.3-0.9,0.8-0.9c0,0,0.1,0,0.1,0h2.5c0.5,0,0.9,0.3,0.9,0.8
		c0,0.5-0.3,0.9-0.8,0.9C154.4,34.7,154.3,34.7,154.3,34.7z"/>
	<path d="M155.3,37.8h-3.5c-0.5,0-0.9-0.3-0.9-0.8c0-0.5,0.3-0.9,0.8-0.9c0,0,0.1,0,0.1,0h3.5c0.5,0,0.9,0.3,0.9,0.8
		c0,0.5-0.3,0.9-0.8,0.9C155.4,37.9,155.3,37.9,155.3,37.8z"/>
	<path d="M156.7,41h-4.9c-0.5,0-0.9-0.3-0.9-0.8c0-0.5,0.3-0.9,0.8-0.9c0,0,0.1,0,0.1,0h4.9c0.5,0,0.9,0.3,0.9,0.8
		c0,0.5-0.3,0.9-0.8,0.9C156.8,41,156.8,41,156.7,41z"/>
</g>
<g id="Layer_2">
</g>
</svg>
