<?xml version="1.0" encoding="utf-8"?>
<!-- Generator: Adobe Illustrator 27.8.1, SVG Export Plug-In . SVG Version: 6.00 Build 0)  -->
<svg version="1.1" xmlns="http://www.w3.org/2000/svg" xmlns:xlink="http://www.w3.org/1999/xlink" x="0px" y="0px"
	 viewBox="0 0 100 125" style="enable-background:new 0 0 100 125;" xml:space="preserve">
<style type="text/css">
	.st0{fill:#5D2C85;}
	.st1{fill:#0071B9;}
	.st2{fill-rule:evenodd;clip-rule:evenodd;fill:#FCAE24;}
	.st3{fill:none;}
	.st4{fill:#00B7A1;}
	.st5{fill:#FFC0E3;}
	.st6{fill:#FC176F;}
	.st7{fill:#1EC1AA;}
	.st8{font-family:'OCRAExtended';}
	.st9{font-size:5.4471px;}
	.st10{fill:#B6FFF6;}
	.st11{fill:#FFE0A9;}
	.st12{font-family:'Super-Smash-TV';}
	.st13{font-size:6.7208px;}
	.st14{font-size:5px;}
</style>
<g id="Layer_1">
	<g>
		<path d="M54.5,75.5c2.7,0,4.8-2.2,4.8-4.8v-0.1h1.7c0.5-2.2,2.6-4.2,4.9-4.2c2.4,0,4.4,2,4.9,4.2h1.7v0.1c0,0,0,0,0,0
			c0,2.5,1.9,4.5,4.3,4.8c0.3-0.5,0.9-0.9,0.9-1.6h-0.4c-1.8,0-3.3-1.5-3.3-3.3V69h-2.1c-1-2.5-3.4-4.1-6.1-4.2
			c-2.7,0.1-5,1.7-6.1,4.2h-2.1v1.6v0c0,1.8-1.5,3.3-3.3,3.3h-0.2h-0.1v1.6H54.5L54.5,75.5z"/>
		<path class="st0" d="M76.8,75.4c-2.4-0.2-4.3-2.3-4.3-4.8c0,0,0,0,0,0v-0.1h-1.7c-0.5-2.2-2.5-4.2-4.9-4.2c-2.4,0-4.4,1.9-4.9,4.2
			h-1.7v0.1c0,2.7-2.2,4.8-4.8,4.8c0,0,0,0,0,0h-0.3l0,22.9l8.4-3.8C63,94,72,83.5,72.4,83C74.1,80.6,75.4,78.1,76.8,75.4z"/>
		<polygon class="st1" points="77.6,73.9 77.6,73.9 77.6,73.9 		"/>
		<path class="st1" d="M54.5,73.9c1.8,0,3.3-1.5,3.3-3.3l0,0V69c0,0,0,0,0,0h2.1c0,0,0,0,0,0c1-2.5,3.4-4.1,6.1-4.2
			c2.7,0.1,5,1.7,6.1,4.2c0,0,0,0,0,0h2.1c0,0,0,0,0,0v1.6c0,1.8,1.5,3.3,3.3,3.3h0.3c0,0,0.2,0.1,0.2,0.1l2.9-6.1l1.6-6.8
			c0,0,0,0,0,0l-28.2,0c0,0,0,0,0,0v12.8h0.1H54.5z"/>
	</g>
	<path d="M80.7,43.4"/>
	<path class="st2" d="M54.2,58.1h28.8c0.5-2.8,0.8-5.8,0.8-8.7V31.5L54.2,20.7V58.1L54.2,58.1z"/>
	<g>
		<g>
			<path class="st3" d="M22.3,49.3c0,3,0.3,5.9,0.8,8.7h28.8V20.7L22.3,31.5V49.3z"/>
			<path class="st3" d="M43.7,93.2c2.7,2.2,5.4,4,8.2,5.2V61.1H23.7C26.7,74.2,34.6,85.7,43.7,93.2z"/>
			<path class="st3" d="M72.1,82.9c4.6-6.2,8.3-13.6,10.2-21.8H54.2v37.3C60.6,95.7,67.6,88.9,72.1,82.9z"/>
			<path class="st3" d="M17.6,27 M85.1,28.9c0.5,0.2,0.9,0.8,0.9,1.5v17.2l0.1,0.1c0.4,0.5,0.3,1-0.1,1.3v0.3
				c0,19.2-10.2,36.3-22.4,46.4c-3.3,2.8-6.9,5-10.3,6.1c-0.2,0.1-0.4,0.1-0.6,0c-7.4-2.4-15.4-10.1-20.5-16.9
				C25.1,75.3,20,62.9,20,49.3V30.4h0c0-0.7,0.3-1.3,0.8-1.4l31.9-11.7c0.2-0.1,0.4-0.1,0.6,0L85.1,28.9z"/>
			<g>
				<path class="st3" d="M22.3,49.3c0,3,0.3,5.9,0.8,8.7h28.8V20.7L22.3,31.5V49.3z"/>
				<path class="st3" d="M43.7,93.2c2.7,2.2,5.4,4,8.2,5.2V61.1H23.7C26.7,74.2,34.6,85.7,43.7,93.2z"/>
				<path class="st3" d="M72.1,82.9c4.6-6.2,8.3-13.6,10.2-21.8H54.2v37.3C60.6,95.7,67.6,88.9,72.1,82.9z"/>
				<path class="st3" d="M85.1,28.9c0.5,0.2,0.9,0.8,0.9,1.5v17.2l-2.3-3V31.5L54.2,20.7v14l-0.7,0.4c-0.2,0.1-0.6,1-0.4,1.2
					l1.1-0.5v22.4h28.8c0.5-2.8,0.8-5.8,0.8-8.7v-0.7l1.3,0.5c0.4,0.2,0.8,0.1,1-0.1v0.3c0,19.2-10.2,36.3-22.4,46.4
					c-3.3,2.8-6.9,5-10.3,6.1c-0.2,0.1-0.4,0.1-0.6,0c-7.4-2.4-15.4-10.1-20.5-16.9C25.1,75.3,20,62.9,20,49.3V30.4h0
					c0-0.7,0.3-1.3,0.8-1.4l31.9-11.7c0.2-0.1,0.4-0.1,0.6,0L85.1,28.9z"/>
			</g>
			<path d="M53.5,35.1c-0.2,0.1-0.6,1-0.4,1.2l1.1-0.5v-1L53.5,35.1z"/>
			<path d="M83.7,48.6l1.3,0.5c0.4,0.2,0.8,0.1,1-0.1v-1.4l-2.3-3V48.6z"/>
		</g>
	</g>
	<path class="st4" d="M23.7,61.1c3,13.1,11,24.6,20,32.1c2.7,2.2,5.4,4,8.2,5.2V61.1H23.7z"/>
	<g>
		<polygon class="st5" points="38.4,32.1 36.1,32.1 35.7,34.3 38,34.3 		"/>
		<g>
			<path class="st6" d="M42,52.2c0.7-0.9,1.9-1.4,3.1-1.4H48c1.9,0,3.4,1.2,3.9,2.8V20.7l-16.6,6.1h7.7c1.6,0,2.9,1.2,2.9,2.6v7.4
				c0,1.4-1.3,2.6-2.9,2.6H38l-3.7,3.2c-0.7,0.6-1.9,0.2-1.9-0.7v-2.5h-1.2c-1.6,0-2.9-1.2-2.9-2.6v-7.4c0,0,0-0.1,0-0.1l-6.1,2.2
				v17.8c0,1.3,0.1,2.6,0.2,3.9c0.6-1.4,2-2.4,3.7-2.4h2.8c1.3,0,2.4,0.6,3.1,1.4c-1.1,0.8-1.9,2-2,3.4l-0.3,2.4h1.7l0.3-2.3
				c0.3-1.8,1.9-3.2,4-3.2h2.8c2,0,3.7,1.4,4,3.2l0.3,2.3h1.6l-0.3-2.4C43.9,54.3,43.1,53,42,52.2z M46.5,43c2.1,0,3.8,1.6,3.8,3.5
				c0,1.9-1.7,3.5-3.8,3.5c-2.1,0-3.8-1.6-3.8-3.5C42.8,44.5,44.5,43,46.5,43z M27.6,49.9c-2.1,0-3.8-1.6-3.8-3.5
				c0-1.9,1.7-3.5,3.8-3.5c2.1,0,3.8,1.6,3.8,3.5C31.3,48.4,29.6,49.9,27.6,49.9z M37.1,51.7c-2.1,0-3.8-1.6-3.8-3.5
				c0-1.9,1.7-3.5,3.8-3.5s3.8,1.6,3.8,3.5C40.8,50.1,39.1,51.7,37.1,51.7z"/>
			<path class="st6" d="M50.6,58.1h1.3v-0.3c-0.1,0-0.1,0.1-0.2,0.1C51.3,57.9,50.9,58,50.6,58.1z"/>
			<path class="st6" d="M23,58.1h0.5C23.4,58,23.2,58,23,58.1C23,58,23,58,23,58.1z"/>
			<path class="st5" d="M27.6,43c-2.1,0-3.8,1.6-3.8,3.5c0,1.9,1.7,3.5,3.8,3.5c2.1,0,3.8-1.6,3.8-3.5C31.3,44.5,29.6,43,27.6,43z"
				/>
			<path d="M22.2,54.1l-0.4,3c0,0.4,0.2,0.7,0.6,0.8c0.2,0,0.4,0.1,0.6,0.1c-0.3-1.6-0.5-3.2-0.6-4.8C22.3,53.5,22.2,53.8,22.2,54.1
				z"/>
			<path d="M27.6,58.4c0.7,0,1.4,0,2.1-0.1l0-0.2h-6.2C24.8,58.3,26.2,58.4,27.6,58.4z"/>
			<path class="st5" d="M32.1,52.2c-0.7-0.8-1.9-1.4-3.1-1.4h-2.8c-1.7,0-3.1,1-3.7,2.4c0.1,1.6,0.3,3.2,0.6,4.8
				c0.2,0,0.3,0.1,0.5,0.1h6.2l0.3-2.4C30.2,54.2,31,53,32.1,52.2z"/>
			<ellipse class="st5" cx="46.5" cy="46.5" rx="3.8" ry="3.5"/>
			<path d="M44.4,58.3c0.7,0.1,1.4,0.1,2.1,0.1c1.4,0,2.7-0.1,4-0.3h-6.2L44.4,58.3z"/>
			<path d="M52.3,57l-0.4-2.9c0-0.1-0.1-0.3-0.1-0.4v4.2C52.1,57.7,52.3,57.4,52.3,57z"/>
			<path class="st5" d="M48,50.8h-2.8c-1.3,0-2.4,0.5-3.1,1.4c1.1,0.8,1.9,2,2,3.4l0.3,2.4h6.2c0.4-0.1,0.7-0.1,1.1-0.2
				c0.1,0,0.1,0,0.2-0.1v-4.2C51.4,52,49.8,50.8,48,50.8z"/>
			<path d="M31.3,58.8c0,0.4,0.2,0.8,0.6,0.8c1.6,0.3,3.3,0.5,5.1,0.5s3.5-0.2,5.1-0.5c0.4-0.1,0.7-0.5,0.6-0.8l-0.1-0.7H31.4
				L31.3,58.8z"/>
			<path class="st5" d="M38.5,52.6h-2.8c-2,0-3.7,1.4-4,3.2l-0.3,2.3h11.3l-0.3-2.3C42.2,54,40.5,52.6,38.5,52.6z"/>
			<ellipse class="st5" cx="37.1" cy="48.2" rx="3.8" ry="3.5"/>
			<path d="M31.2,26.8c-1.5,0-2.8,1.1-2.8,2.5l6.8-2.5H31.2z"/>
			<path class="st5" d="M28.4,36.9c0,1.4,1.3,2.6,2.9,2.6h1.2V42c0,0.9,1.2,1.4,1.9,0.7l3.7-3.2h4.9c1.6,0,2.9-1.2,2.9-2.6v-7.4
				c0-1.4-1.3-2.6-2.9-2.6h-7.7l-6.8,2.5c0,0,0,0.1,0,0.1V36.9z"/>
		</g>
	</g>
	<g>
		<path class="st6" d="M45,31.6l0,0.1c0.4,1.6-0.2,3.3-1.7,4.2c-1,0.7-2.2,0.9-3.3,0.6c-0.5-0.1-0.9-0.3-1.4-0.6
			c-0.1,0-4-2.8-4.1-2.9c-0.3-0.2-0.7-0.4-1.1-0.4c-0.6-0.1-1.2,0.1-1.7,0.4c-0.8,0.5-1.2,1.5-1,2.5l0,0.1c0.3,0.9,1.1,1.6,2.1,1.6
			c1,0.1,2-0.5,2.5-1.5l0.4-1l1.4,1.1l-0.3,0.6c-0.5,1.1-1.5,2-2.7,2.3c-0.5,0.1-0.9,0.2-1.4,0.1c-1.7-0.1-3.1-1.2-3.6-2.7l0-0.2
			c-0.4-1.6,0.3-3.3,1.7-4.2c1-0.7,2.2-0.9,3.3-0.6c0.5,0.1,0.9,0.3,1.4,0.6c0.1,0,1.2,0.8,1.3,0.9c0.7,0.5,1.1,0.8,2.8,2
			c0.3,0.2,0.7,0.4,1.1,0.4c0.6,0.1,1.2-0.1,1.7-0.4c0.8-0.5,1.2-1.5,1-2.5l0-0.1c-0.3-0.9-1.1-1.6-2.1-1.6c-1.1-0.1-2,0.5-2.5,1.5
			l-0.3,1.1l-1.4-1.1l0.3-0.6c0.7-1.6,2.3-2.5,4.1-2.4C43.1,28.9,44.5,30,45,31.6z"/>
	</g>
	
		<rect x="21.1" y="59.6" transform="matrix(0.5582 -0.8297 0.8297 0.5582 -47.388 67.6966)" class="st3" width="37.6" height="37.6"/>
	<path class="st3" d="M54.7,99.6l-4.9-0.2c-14.7-5.7-23.3-21.1-25.5-35l-0.6-3.3h28.2L54.7,99.6z"/>
	<text transform="matrix(1 0 0 1 24.9211 64.6121)"><tspan x="0" y="0" class="st7 st8 st9">01110111 </tspan><tspan x="1" y="6.5" class="st7 st8 st9">01101001 </tspan><tspan x="4.2" y="13.1" class="st7 st8 st9">0110110</tspan><tspan x="16.1" y="19.6" class="st7 st8 st9">0 </tspan><tspan x="12.3" y="26.1" class="st7 st8 st9">01101</tspan><tspan x="21.7" y="32.7" class="st7 st8 st9">10</tspan></text>
	<g>
		<g>
			<path class="st3" d="M38.1,76.1c-0.1-0.2-0.4-0.2-0.5,0L35.3,78c-0.1,0.1-0.1,0.2-0.1,0.3s0.1,0.2,0.1,0.3l2.3,1.9
				c0.1,0.1,0.2,0.1,0.2,0.1c0.1,0,0.2,0,0.3-0.1c0.1-0.2,0.1-0.4,0-0.5l-2-1.6l2-1.6C38.3,76.5,38.3,76.3,38.1,76.1z"/>
			<path class="st3" d="M41.9,76.1c-0.2-0.1-0.4-0.1-0.5,0.1l-2.3,3.9c-0.1,0.2-0.1,0.4,0.1,0.5c0.1,0,0.1,0.1,0.2,0.1
				c0.1,0,0.3-0.1,0.3-0.2l2.3-3.9C42.2,76.4,42.1,76.2,41.9,76.1z"/>
			<path class="st3" d="M43.5,76.1c-0.2-0.1-0.4-0.1-0.5,0c-0.1,0.2-0.1,0.4,0,0.5l2,1.6L43,80c-0.2,0.1-0.2,0.4,0,0.5
				c0.1,0.1,0.2,0.1,0.3,0.1c0.1,0,0.2,0,0.2-0.1l2.3-1.9c0.1-0.1,0.1-0.2,0.1-0.3s-0.1-0.2-0.1-0.3L43.5,76.1z"/>
			<path class="st3" d="M22.3,49.3c0,3,0.3,5.9,0.8,8.7h28.8V20.7L22.3,31.5V49.3z"/>
			<path class="st3" d="M48.3,86.8H37.1c2.1,2.4,4.3,4.5,6.6,6.4c2.7,2.2,5.4,4,8.2,5.2V61.1H23.7c1.6,6.9,4.6,13.4,8.4,19.1v-5
				c0-0.9,0.7-1.5,1.5-1.5h13.9c0.9,0,1.5,0.7,1.5,1.5V83H34c0.2,0.3,0.4,0.5,0.6,0.8h16.8C51.4,85.4,50,86.8,48.3,86.8z"/>
			<path class="st3" d="M72.1,82.9c4.6-6.2,8.3-13.6,10.2-21.8H54.2v37.3C60.6,95.7,67.6,88.9,72.1,82.9z"/>
			<path d="M86,47.7V30.4c0-0.7-0.4-1.3-0.9-1.5L53.3,17.3c-0.2-0.1-0.4-0.1-0.6,0L20.8,29c-0.5,0.2-0.8,0.8-0.8,1.4h0v18.9
				c0,13,4.7,25,11.4,34.4h3.2c-0.2-0.3-0.4-0.5-0.6-0.8H32v-2.7c-3.8-5.7-6.8-12.2-8.4-19.1h28.2v37.3c-2.7-1.1-5.5-3-8.2-5.2
				c-2.3-1.9-4.5-4-6.6-6.4h-3.4c5.1,6.3,12.3,12.8,19,15c0.2,0.1,0.4,0.1,0.6,0c3.4-1.1,7-3.4,10.3-6.1C75.8,85.6,86,68.5,86,49.3
				V49c-0.2,0.2-0.6,0.3-1,0.1l-1.3-0.5v0.7c0,3-0.3,5.9-0.8,8.7H54.2V35.7L53,36.2c-0.2-0.2,0.2-1,0.4-1.2l0.7-0.4v-14l29.5,10.8
				v13.1L86,47.7z M51.8,58.1H23c-0.5-2.8-0.8-5.8-0.8-8.7V31.5l29.5-10.8V58.1z M54.2,61.1h28.2c-1.9,8.2-5.7,15.6-10.2,21.8
				c-4.5,6.1-11.4,12.8-17.9,15.5V61.1z"/>
			<path class="st10" d="M49.1,75.2c0-0.9-0.7-1.5-1.5-1.5H33.6c-0.9,0-1.5,0.7-1.5,1.5v5c0.6,0.9,1.3,1.8,1.9,2.7h15.1V75.2z
				 M38.1,80c0.2,0.1,0.2,0.4,0,0.5c-0.1,0.1-0.2,0.1-0.3,0.1c-0.1,0-0.2,0-0.2-0.1l-2.3-1.9c-0.1-0.1-0.1-0.2-0.1-0.3
				s0.1-0.2,0.1-0.3l2.3-1.9c0.2-0.1,0.4-0.1,0.5,0c0.1,0.2,0.1,0.4,0,0.5l-2,1.6L38.1,80z M42,76.6l-2.3,3.9
				c-0.1,0.1-0.2,0.2-0.3,0.2c-0.1,0-0.1,0-0.2-0.1c-0.2-0.1-0.2-0.3-0.1-0.5l2.3-3.9c0.1-0.2,0.3-0.2,0.5-0.1
				C42.1,76.2,42.2,76.4,42,76.6z M45.8,78.6l-2.3,1.9c-0.1,0.1-0.2,0.1-0.2,0.1c-0.1,0-0.2,0-0.3-0.1c-0.1-0.2-0.1-0.4,0-0.5l2-1.6
				l-2-1.6c-0.2-0.1-0.2-0.4,0-0.5c0.1-0.2,0.4-0.2,0.5,0l2.3,1.9c0.1,0.1,0.1,0.2,0.1,0.3S45.9,78.5,45.8,78.6z"/>
			<path d="M34,83c-0.7-0.9-1.3-1.8-1.9-2.7V83"/>
			<path class="st10" d="M48.3,86.8c1.7,0,3.1-1.4,3.1-3.1H34.6c0.8,1.1,1.7,2.1,2.5,3.1H48.3z"/>
			<path d="M34.6,83.7h-3.2c0.3,0.4,0.6,0.8,0.9,1.2c0.5,0.6,1,1.2,1.5,1.9h3.4C36.2,85.8,35.4,84.8,34.6,83.7z"/>
		</g>
		<path class="st10" d="M40.6,65.2c-1.3,0-2.3,1-2.3,2.3c0,1,0.6,1.9,1.5,2.2v3.2h1.5v-3.2c0.9-0.3,1.5-1.2,1.5-2.2
			C42.9,66.2,41.8,65.2,40.6,65.2z"/>
		<path class="st10" d="M47.5,65.2c-1.3,0-2.3,1-2.3,2.3c0,1,0.6,1.9,1.5,2.2v0.9h-3.1c-0.4,0-0.8,0.3-0.8,0.8v1.5h1.5v-0.8h3.1
			c0.4,0,0.8-0.3,0.8-0.8v-1.7c0.9-0.3,1.5-1.2,1.5-2.2C49.8,66.2,48.8,65.2,47.5,65.2z"/>
		<path class="st10" d="M37.5,70.6h-3.1v-0.9c0.9-0.3,1.5-1.2,1.5-2.2c0-1.3-1-2.3-2.3-2.3s-2.3,1-2.3,2.3c0,1,0.6,1.9,1.5,2.2v1.7
			c0,0.4,0.3,0.8,0.8,0.8h3.1v0.8h1.5v-1.5C38.2,70.9,37.9,70.6,37.5,70.6z"/>
	</g>
	<path class="st11" d="M81.5,31.7H56.3c-0.5,0-1,0-1,0.5v19.6c0,0.5,0.4,1,1,1H65v1.7h-1.2c-0.7,0-1.2,0.5-1.2,1.2c0,0,0,0,0,0h12.7
		c0-0.7-0.6-1.2-1.2-1.2h-1.4v-1.7h8.7c0.5,0,1-0.4,1-1V32.7C82.5,32.1,82.1,31.7,81.5,31.7C81.5,31.7,81.5,31.7,81.5,31.7z
		 M68.9,52.6c-0.6,0-1-0.5-1-1c0-0.6,0.5-1,1-1c0.6,0,1,0.5,1,1c0,0,0,0,0,0C69.9,52.2,69.5,52.6,68.9,52.6z M80.3,49.1H57.5V33.9
		h22.8V49.1z"/>
	<path class="st11" d="M70.6,36.1c-1.2-1.2-3.2-1-5.3,0.1c-2.1-1.2-4.2-1.3-5.3-0.1s-1,3.2,0.1,5.3c-1.2,2.1-1.3,4.2-0.1,5.3
		c1.3,1.3,3.4,0.9,5.3-0.1c1.9,1.1,4,1.5,5.3,0.1c1.2-1.2,1-3.2-0.1-5.3C71.6,39.3,71.7,37.3,70.6,36.1z M69.4,37.3
		c0.4,0.4,0.4,1.4,0,2.5c-0.7-0.9-1.5-1.7-2.5-2.5C67.9,36.9,68.9,36.8,69.4,37.3z M68.5,41.5c-0.4,0.6-0.9,1.2-1.5,1.7
		c-0.5,0.5-1.1,1-1.8,1.5c-0.6-0.4-1.2-0.9-1.8-1.5c-0.5-0.5-1-1.1-1.5-1.7c0.4-0.6,0.9-1.2,1.5-1.8c0.5-0.5,1.1-1,1.7-1.4
		c0.6,0.4,1.2,0.9,1.8,1.4C67.6,40.3,68.1,40.9,68.5,41.5z M61.1,37.3c0.5-0.5,1.5-0.4,2.5,0c-0.5,0.4-0.9,0.7-1.3,1.1
		c-0.4,0.4-0.8,0.9-1.2,1.3C60.7,38.7,60.7,37.8,61.1,37.3z M61.1,45.6c-0.4-0.4-0.4-1.4,0-2.5c0.4,0.5,0.7,0.9,1.2,1.3
		c0.4,0.4,0.8,0.8,1.3,1.2C62.5,46,61.6,46,61.1,45.6z M69.4,45.6C69,46,68,46,66.9,45.6c0.9-0.7,1.8-1.5,2.5-2.5
		C69.8,44.2,69.8,45.2,69.4,45.6z"/>
	<path class="st11" d="M65.3,40.5c-0.5,0-1,0.4-1,1c0,0,0,0,0,0c0,0.3,0.1,0.5,0.3,0.7c0.4,0.4,1,0.4,1.4,0s0.4-1,0-1.4
		C65.8,40.6,65.5,40.5,65.3,40.5L65.3,40.5z"/>
	<path class="st11" d="M75.8,39.4h-2.2c-0.4,0-0.8-0.3-0.8-0.7c0-0.4,0.3-0.8,0.7-0.8c0,0,0.1,0,0.1,0h2.2c0.4,0,0.8,0.3,0.8,0.7
		c0,0.4-0.3,0.8-0.7,0.8C75.9,39.4,75.9,39.4,75.8,39.4z"/>
	<path class="st11" d="M76.7,42.2h-3c-0.4,0-0.8-0.3-0.8-0.7c0-0.4,0.3-0.8,0.7-0.8c0,0,0.1,0,0.1,0h3c0.4,0,0.8,0.3,0.8,0.7
		c0,0.4-0.3,0.8-0.7,0.8C76.8,42.2,76.7,42.2,76.7,42.2z"/>
	<path class="st11" d="M78,45h-4.3c-0.4,0-0.8-0.3-0.8-0.7c0-0.4,0.3-0.8,0.7-0.8c0,0,0.1,0,0.1,0H78c0.4,0,0.8,0.3,0.8,0.7
		c0,0.4-0.3,0.8-0.7,0.8C78,45,78,45,78,45z"/>
	<g>
		<g>
			<rect x="31.7" y="4.1" width="42.6" height="11.8"/>
			<polygon points="83.1,14.9 75.1,14.9 75.1,5.1 83.1,5.1 80.2,10 			"/>
			<polygon points="22.8,14.9 30.9,14.9 30.9,5.1 22.8,5.1 25.8,10 			"/>
		</g>
		<text transform="matrix(1.5234 0 0 1 34.9782 10.0126)"><tspan x="0" y="0" class="st1 st12 st13">Infinite </tspan><tspan x="4.4" y="5" class="st1 st12 st13">Loops</tspan></text>
	</g>
	<g>
		<g>
			<rect x="29.1" y="103" width="47.8" height="13.1"/>
			<polygon points="86.8,115.1 77.8,115.1 77.8,104.1 86.8,104.1 83.5,109.6 			"/>
			<polygon points="19.2,115.1 28.2,115.1 28.2,104.1 19.2,104.1 22.5,109.6 			"/>
		</g>
		<rect x="28.5" y="104.9" class="st3" width="48.9" height="12.7"/>
		<text transform="matrix(1.4489 0 0 1 32.3821 108.0585)"><tspan x="0" y="0" class="st0 st12 st14">nvc computer</tspan><tspan x="0.3" y="6" class="st0 st12 st14">science club</tspan></text>
	</g>
	<path d="M33.3,82.1l-2.7,0.6c0.8,1.1,1.3,1.9,1.6,2.3c0.5,0.6,1.8,2.3,2.3,2.9l3.5,0C37.2,86.9,34.7,83.9,33.3,82.1z"/>
</g>
<g id="Layer_2">
</g>
</svg>
