<?xml version="1.0" encoding="utf-8"?>
<!-- Generator: Adobe Illustrator 27.8.1, SVG Export Plug-In . SVG Version: 6.00 Build 0)  -->
<svg version="1.1" id="Layer_1" xmlns="http://www.w3.org/2000/svg" xmlns:xlink="http://www.w3.org/1999/xlink" x="0px" y="0px"
	 viewBox="0 0 100 125" style="enable-background:new 0 0 100 125;" xml:space="preserve">
<style type="text/css">
	.st0{fill-rule:evenodd;clip-rule:evenodd;}
	.st1{fill:#0071B9;}
	.st2{fill:#5D2C85;}
	.st3{stroke:#000000;stroke-miterlimit:10;}
	.st4{fill:none;}
</style>
<path class="st0" d="M6.1,17.9L49.6,2c0.3-0.1,0.5-0.1,0.8,0L94,18c0.6,0.2,1,0.9,1,1.7h0v28c0,16.3-5.4,30.9-12.8,42.5
	c-9.6,15-22.6,25.1-31.9,27.6c-0.2,0.1-0.4,0-0.6,0c-9.3-2.5-22.3-12.6-31.9-27.5C10.4,78.6,5,64,5,47.7v-28
	C5,18.8,5.5,18.1,6.1,17.9L6.1,17.9z M85,61.7H51.4v44.5c7.7-3.3,16-11.3,21.4-18.5C78.3,80.3,82.7,71.5,85,61.7L85,61.7z
	 M48.6,61.7H15c3.6,15.6,13.1,29.4,23.9,38.4c3.2,2.6,6.5,4.8,9.7,6.2L48.6,61.7L48.6,61.7z M14.3,58.1h34.3V13.6L13.4,26.5v21.2
	C13.4,51.3,13.7,54.7,14.3,58.1L14.3,58.1z M51.4,58.1h34.3c0.6-3.4,0.9-6.9,0.9-10.4V26.5L51.4,13.6V58.1L51.4,58.1z M10.6,47.7
	c0,16.2,6.1,31,14.6,42.5c6,8.2,15.7,17.3,24.4,20.2c0.2,0.1,0.5,0.1,0.7,0c4.1-1.3,8.3-4,12.3-7.3C77.2,91,89.4,70.6,89.4,47.7
	V25.1c0-0.9-0.5-1.6-1.1-1.8l-38-13.9c-0.3-0.1-0.5-0.1-0.8,0l-38,13.9c-0.6,0.2-1,0.9-1,1.7h0L10.6,47.7L10.6,47.7z M50,5.6
	L7.8,21.1v26.7c0,15.4,5.1,29.2,12.1,40.3c9.1,14.2,21.3,23.8,30.1,26.2c8.8-2.5,21-12,30.1-26.2c7-11,12.1-24.8,12.1-40.3V21.1
	L50,5.6z"/>
<g>
	<path class="st1" d="M85,61.7h-5.6V77C81.8,72.2,83.7,67.1,85,61.7z"/>
	<path class="st2" d="M51.4,106.3c7-3,14.5-9.9,19.8-16.5H51.4V106.3z"/>
	<path d="M51.8,78.9c3.2,0,5.7-2.6,5.7-5.8V73h2c0.7-2.7,3-5,5.9-5c2.9,0,5.2,2.3,5.9,5h2v0.1c0,0,0,0,0,0c0,3,2.3,5.4,5.2,5.7
		c0.3-0.6,0.6-1.2,0.9-1.9H79c-2.1,0-3.9-1.7-3.9-3.9v-1.9h-2.5c-1.2-2.9-4-4.9-7.2-5c-3.2,0.1-6,2.1-7.2,5h-2.5v1.9c0,0,0,0,0,0
		c0,2.1-1.7,3.9-3.9,3.9h-0.2h-0.1v1.9H51.8C51.8,78.9,51.8,78.9,51.8,78.9z"/>
	<path class="st2" d="M78.4,78.9c-2.9-0.3-5.2-2.7-5.2-5.7c0,0,0,0,0,0V73h-2c-0.6-2.7-3-5-5.9-5c-2.9,0-5.2,2.3-5.9,5h-2v0.1
		c0,3.2-2.6,5.8-5.7,5.8c0,0,0,0,0,0h-0.4v10.8h19.8c0.5-0.7,1.1-1.3,1.5-2C74.8,85,76.7,82,78.4,78.9z"/>
	<polygon class="st1" points="79.4,77 79.4,77 79.4,77 	"/>
	<path class="st1" d="M51.8,77c2.1,0,3.9-1.7,3.9-3.9c0,0,0,0,0,0v-1.9h2.5c1.2-2.9,4-4.9,7.2-5c3.2,0.1,6,2.1,7.2,5h2.5v1.9
		c0,2.1,1.7,3.9,3.9,3.9h0.4c0,0,0,0,0,0V61.7h-28V77h0.1H51.8z"/>
</g>
<path class="st3" d="M181.1,18h-54c-1.7,0-3,1.3-3,3v44c0,1.7,1.3,3,3,3H147c-0.6,3.2-3.9,4-4.1,4c-2.1,0.1-3.8,1.9-3.8,4
	c0,1.1,0.9,2,2,2h26c1.1,0,2-0.9,2-2c0-2.1-1.7-3.9-3.8-4l0,0c-0.2,0-3.5-0.8-4.1-4h19.9c1.7,0,3-1.3,3-3V21
	C184.1,19.3,182.8,18,181.1,18z M127.1,20h54c0.6,0,1,0.4,1,1v39h-56V21C126.1,20.4,126.6,20,127.1,20z M167.1,76h-26
	c0-1.1,0.9-2,2-2h22C166.2,74,167.1,74.9,167.1,76z M161.2,72H147c1.1-1.1,1.8-2.5,2-4h10.1C159.4,69.5,160.1,70.9,161.2,72
	L161.2,72z M181.1,66h-54c-0.6,0-1-0.4-1-1v-3h56v3C182.1,65.5,181.7,66,181.1,66z"/>
<path class="st3" d="M129.7,58h48c1.1,0,2-0.9,2-2V24c0-1.1-0.9-2-2-2h-48c-1.1,0-2,0.9-2,2v32C127.7,57.1,128.6,58,129.7,58z
	 M129.7,24h48v32h-48V24z"/>
<g>
	<path class="st3" d="M255.3-7.3v0.4c0,4.6-3,8.7-7.4,10.1c-3,1.1-6.3,0.8-9.1-0.8c-1.2-0.6-2.3-1.5-3.1-2.6
		c-0.1-0.1-8.6-10.6-8.7-10.8c-0.7-0.9-1.6-1.6-2.7-2c-1.5-0.6-3.2-0.7-4.8-0.1c-2.6,0.8-4.3,3.2-4.4,5.9v0.3c0,2.7,1.8,5,4.4,5.8
		c2.7,1,5.7,0.1,7.5-2.1l1.7-2.1l2.9,3.6l-1.1,1.3c-2.1,2.6-5.3,4.2-8.7,4.2c-1.3,0-2.5-0.2-3.7-0.6c-4.4-1.4-7.4-5.4-7.4-10v-0.4
		c0-4.6,3-8.6,7.4-10c3-1.1,6.3-0.8,9.1,0.8c1.2,0.6,2.3,1.5,3.1,2.6c0.1,0.1,2.6,3.2,2.7,3.3c1.5,1.9,2.3,2.9,6,7.5
		c0.7,0.9,1.6,1.6,2.7,2c1.5,0.6,3.2,0.7,4.8,0.1c2.6-0.8,4.3-3.2,4.4-5.9v-0.3c0-2.7-1.8-5.1-4.4-5.9c-2.7-1-5.7-0.1-7.5,2.1
		l-1.7,2.1l-2.9-3.6l1.1-1.3c3-3.7,7.9-5.1,12.4-3.6C252.3-15.9,255.3-11.9,255.3-7.3z"/>
</g>
<path class="st2" d="M216.4,141.9c-4.5,0-8.1-3.6-8.1-8.1c0,0,0,0,0,0v-0.1h-2.8c-0.9-3.7-4.3-7-8.3-7s-7.4,3.3-8.3,7h-2.8v0.1
	c0,4.5-3.6,8.1-8,8.1c0,0,0,0,0,0h-0.5v15.2H217v-15.2L216.4,141.9"/>
<path class="st1" d="M177.8,139.3h0.4c3,0,5.4-2.4,5.4-5.4c0,0,0,0,0,0v-2.7h3.6c1.7-4.1,5.7-6.9,10.1-7c4.5,0.1,8.4,2.9,10.1,7h3.6
	v2.7c0,3,2.4,5.4,5.4,5.4h0.5v-21.4h-39.3v21.4H177.8z"/>
<circle cx="132.1" cy="131.4" r="3.5"/>
<path d="M135.7,134.1c-0.8,1.1-2.1,1.8-3.6,1.8s-2.8-0.7-3.6-1.8c-1.5,1.1-2.4,2.8-2.4,4.8v1c0,1.1,0.9,2,2,2h8c1.1,0,2-0.9,2-2v-1
	C138.1,136.9,137.2,135.2,135.7,134.1z"/>
<circle cx="132.1" cy="123.4" r="3.5"/>
<circle cx="140.1" cy="126.4" r="3.5"/>
<path d="M143.7,129.1c-0.8,1.1-2.1,1.8-3.6,1.8s-2.8-0.7-3.6-1.8c-0.1,0.1-0.3,0.2-0.4,0.3c0.3,0.6,0.5,1.3,0.5,2
	c0,0.7-0.1,1.3-0.4,1.8l0.1,0.1c1.2,0.9,2.1,2.2,2.5,3.6h5.3c1.1,0,2-0.9,2-2v-1C146.1,131.9,145.2,130.2,143.7,129.1z"/>
<circle cx="124.1" cy="126.4" r="3.5"/>
<path d="M127.9,133.3L127.9,133.3c-0.2-0.6-0.3-1.2-0.3-1.9c0-0.7,0.2-1.4,0.5-2c-0.1-0.1-0.3-0.2-0.4-0.3c-0.8,1.1-2.1,1.8-3.6,1.8
	s-2.8-0.7-3.6-1.8c-1.5,1.1-2.4,2.8-2.4,4.8v1c0,1.1,0.9,2,2,2h5.3C125.8,135.5,126.7,134.2,127.9,133.3z"/>
<g>
	<g>
		<path d="M225,55.2c-2.1,0-3.7,1.7-3.7,3.7v32c0,2.1,1.7,3.7,3.7,3.7h32c2.1,0,3.7-1.7,3.7-3.7V59c0-2.1-1.7-3.7-3.7-3.7H225z
			 M257,95.6h-32c-2.5,0-4.6-2.1-4.6-4.6V59c0-2.5,2.1-4.6,4.6-4.6h32c2.5,0,4.6,2.1,4.6,4.6v32C261.6,93.5,259.6,95.6,257,95.6z"/>
		<path d="M226.1,59.5c-0.3,0-0.6,0.3-0.6,0.6v29.8c0,0.3,0.3,0.6,0.6,0.6h29.8c0.3,0,0.6-0.3,0.6-0.6V60.1c0-0.3-0.3-0.6-0.6-0.6
			H226.1z M255.9,91.3h-29.8c-0.8,0-1.4-0.6-1.4-1.4V60.1c0-0.8,0.6-1.4,1.4-1.4h29.8c0.8,0,1.4,0.6,1.4,1.4v29.8
			C257.3,90.7,256.7,91.3,255.9,91.3z"/>
		<path d="M228.9,55.2c-0.2,0-0.4-0.2-0.4-0.4v-7.4c0-0.2,0.2-0.4,0.4-0.4c0.2,0,0.4,0.2,0.4,0.4v7.4
			C229.3,55.1,229.1,55.2,228.9,55.2z"/>
		<path d="M237,55.2c-0.2,0-0.4-0.2-0.4-0.4v-7.4c0-0.2,0.2-0.4,0.4-0.4c0.2,0,0.4,0.2,0.4,0.4v7.4C237.4,55.1,237.2,55.2,237,55.2z
			"/>
		<path d="M245,55.2c-0.2,0-0.4-0.2-0.4-0.4v-7.4c0-0.2,0.2-0.4,0.4-0.4c0.2,0,0.4,0.2,0.4,0.4v7.4C245.5,55.1,245.3,55.2,245,55.2z
			"/>
		<path d="M253.1,55.2c-0.2,0-0.4-0.2-0.4-0.4v-7.4c0-0.2,0.2-0.4,0.4-0.4c0.2,0,0.4,0.2,0.4,0.4v7.4
			C253.5,55.1,253.4,55.2,253.1,55.2z"/>
		<path d="M268.5,63.3h-7.4c-0.2,0-0.4-0.2-0.4-0.4c0-0.2,0.2-0.4,0.4-0.4h7.4c0.2,0,0.4,0.2,0.4,0.4
			C269,63.1,268.8,63.3,268.5,63.3z"/>
		<path d="M268.5,71.4h-7.4c-0.2,0-0.4-0.2-0.4-0.4c0-0.2,0.2-0.4,0.4-0.4h7.4c0.2,0,0.4,0.2,0.4,0.4
			C269,71.2,268.8,71.4,268.5,71.4z"/>
		<path d="M268.5,79.5h-7.4c-0.2,0-0.4-0.2-0.4-0.4c0-0.2,0.2-0.4,0.4-0.4h7.4c0.2,0,0.4,0.2,0.4,0.4
			C269,79.3,268.8,79.5,268.5,79.5z"/>
		<path d="M268.5,87.5h-7.4c-0.2,0-0.4-0.2-0.4-0.4c0-0.2,0.2-0.4,0.4-0.4h7.4c0.2,0,0.4,0.2,0.4,0.4
			C269,87.3,268.8,87.5,268.5,87.5z"/>
		<path d="M253.1,103c-0.2,0-0.4-0.2-0.4-0.4v-7.4c0-0.2,0.2-0.4,0.4-0.4c0.2,0,0.4,0.2,0.4,0.4v7.4
			C253.5,102.8,253.4,103,253.1,103z"/>
		<path d="M245,103c-0.2,0-0.4-0.2-0.4-0.4v-7.4c0-0.2,0.2-0.4,0.4-0.4c0.2,0,0.4,0.2,0.4,0.4v7.4C245.5,102.8,245.3,103,245,103z"
			/>
		<path d="M237,103c-0.2,0-0.4-0.2-0.4-0.4v-7.4c0-0.2,0.2-0.4,0.4-0.4c0.2,0,0.4,0.2,0.4,0.4v7.4C237.4,102.8,237.2,103,237,103z"
			/>
		<path d="M228.9,103c-0.2,0-0.4-0.2-0.4-0.4v-7.4c0-0.2,0.2-0.4,0.4-0.4c0.2,0,0.4,0.2,0.4,0.4v7.4
			C229.3,102.8,229.1,103,228.9,103z"/>
		<path d="M220.8,87.5h-7.4c-0.2,0-0.4-0.2-0.4-0.4c0-0.2,0.2-0.4,0.4-0.4h7.4c0.2,0,0.4,0.2,0.4,0.4
			C221.3,87.3,221.1,87.5,220.8,87.5z"/>
		<path d="M220.8,79.5h-7.4c-0.2,0-0.4-0.2-0.4-0.4c0-0.2,0.2-0.4,0.4-0.4h7.4c0.2,0,0.4,0.2,0.4,0.4
			C221.3,79.3,221.1,79.5,220.8,79.5z"/>
		<path d="M220.8,71.4h-7.4c-0.2,0-0.4-0.2-0.4-0.4c0-0.2,0.2-0.4,0.4-0.4h7.4c0.2,0,0.4,0.2,0.4,0.4
			C221.3,71.2,221.1,71.4,220.8,71.4z"/>
		<path d="M220.8,63.3h-7.4c-0.2,0-0.4-0.2-0.4-0.4c0-0.2,0.2-0.4,0.4-0.4h7.4c0.2,0,0.4,0.2,0.4,0.4
			C221.3,63.1,221.1,63.3,220.8,63.3z"/>
		<path d="M256.9,75.4h-8.1c-0.2,0-0.4-0.2-0.4-0.4c0-0.2,0.2-0.4,0.4-0.4h8.1c0.2,0,0.4,0.2,0.4,0.4
			C257.3,75.2,257.1,75.4,256.9,75.4z"/>
		<path d="M241,67.6c-0.2,0-0.4-0.2-0.4-0.4v-8.1c0-0.2,0.2-0.4,0.4-0.4c0.2,0,0.4,0.2,0.4,0.4v8.1C241.4,67.4,241.2,67.6,241,67.6z
			"/>
		<path d="M233.2,75.4h-8.1c-0.2,0-0.4-0.2-0.4-0.4c0-0.2,0.2-0.4,0.4-0.4h8.1c0.2,0,0.4,0.2,0.4,0.4
			C233.6,75.2,233.5,75.4,233.2,75.4z"/>
		<path d="M241,91.3c-0.2,0-0.4-0.2-0.4-0.4v-8.1c0-0.2,0.2-0.4,0.4-0.4c0.2,0,0.4,0.2,0.4,0.4v8.1C241.4,91.1,241.2,91.3,241,91.3z
			"/>
		<path d="M234.4,74.3c-0.4,0-0.7,0.3-0.7,0.7c0,0.4,0.3,0.7,0.7,0.7c0.4,0,0.7-0.3,0.7-0.7C235.1,74.6,234.8,74.3,234.4,74.3z
			 M234.4,76.6c-0.9,0-1.6-0.7-1.6-1.6c0-0.9,0.7-1.6,1.6-1.6c0.9,0,1.6,0.7,1.6,1.6C236,75.9,235.3,76.6,234.4,76.6z"/>
		<path d="M247.6,74.3c-0.4,0-0.7,0.3-0.7,0.7c0,0.4,0.3,0.7,0.7,0.7c0.4,0,0.7-0.3,0.7-0.7C248.4,74.6,248,74.3,247.6,74.3z
			 M247.6,76.6c-0.9,0-1.6-0.7-1.6-1.6c0-0.9,0.7-1.6,1.6-1.6c0.9,0,1.6,0.7,1.6,1.6C249.2,75.9,248.5,76.6,247.6,76.6z"/>
		<path d="M241,67.6c-0.4,0-0.7,0.3-0.7,0.7c0,0.4,0.3,0.7,0.7,0.7c0.4,0,0.7-0.3,0.7-0.7C241.7,68,241.4,67.6,241,67.6z M241,70
			c-0.9,0-1.6-0.7-1.6-1.6c0-0.9,0.7-1.6,1.6-1.6c0.9,0,1.6,0.7,1.6,1.6C242.6,69.2,241.9,70,241,70z"/>
		<path d="M231.7,67.9c-0.2,0-0.4-0.2-0.4-0.4v-2.5h-6.1c-0.2,0-0.4-0.2-0.4-0.4c0-0.2,0.2-0.4,0.4-0.4h6.6c0.2,0,0.4,0.2,0.4,0.4
			v2.9C232.1,67.7,231.9,67.9,231.7,67.9z"/>
		<path d="M231.7,67.9c-0.4,0-0.7,0.3-0.7,0.7c0,0.4,0.3,0.7,0.7,0.7c0.4,0,0.7-0.3,0.7-0.7C232.4,68.3,232.1,67.9,231.7,67.9z
			 M231.7,70.3c-0.9,0-1.6-0.7-1.6-1.6c0-0.9,0.7-1.6,1.6-1.6c0.9,0,1.6,0.7,1.6,1.6C233.3,69.6,232.6,70.3,231.7,70.3z"/>
		<path d="M250.3,67.9c-0.2,0-0.4-0.2-0.4-0.4v-2.9c0-0.2,0.2-0.4,0.4-0.4h6.6c0.2,0,0.4,0.2,0.4,0.4c0,0.2-0.2,0.4-0.4,0.4h-6.1
			v2.5C250.8,67.7,250.6,67.9,250.3,67.9z"/>
		<path d="M250.3,67.9c-0.4,0-0.7,0.3-0.7,0.7c0,0.4,0.3,0.7,0.7,0.7c0.4,0,0.7-0.3,0.7-0.7C251.1,68.3,250.7,67.9,250.3,67.9z
			 M250.3,70.3c-0.9,0-1.6-0.7-1.6-1.6c0-0.9,0.7-1.6,1.6-1.6c0.9,0,1.6,0.7,1.6,1.6C251.9,69.6,251.2,70.3,250.3,70.3z"/>
		<path d="M231.7,83.5c-0.2,0-0.4-0.2-0.4-0.4v-2.5h-6.1c-0.2,0-0.4-0.2-0.4-0.4c0-0.2,0.2-0.4,0.4-0.4h6.6c0.2,0,0.4,0.2,0.4,0.4
			V83C232.1,83.3,231.9,83.5,231.7,83.5z"/>
		<path d="M250.3,83.5c-0.2,0-0.4-0.2-0.4-0.4v-2.9c0-0.2,0.2-0.4,0.4-0.4h6.6c0.2,0,0.4,0.2,0.4,0.4c0,0.2-0.2,0.4-0.4,0.4h-6.1V83
			C250.8,83.3,250.6,83.5,250.3,83.5z"/>
		<path d="M231.7,83.5c-0.4,0-0.7,0.3-0.7,0.7c0,0.4,0.3,0.7,0.7,0.7c0.4,0,0.7-0.3,0.7-0.7C232.4,83.8,232.1,83.5,231.7,83.5z
			 M231.7,85.8c-0.9,0-1.6-0.7-1.6-1.6c0-0.9,0.7-1.6,1.6-1.6c0.9,0,1.6,0.7,1.6,1.6C233.3,85.1,232.6,85.8,231.7,85.8z"/>
		<path d="M241,80.9c-0.4,0-0.7,0.3-0.7,0.7c0,0.4,0.3,0.7,0.7,0.7c0.4,0,0.7-0.3,0.7-0.7C241.7,81.2,241.4,80.9,241,80.9z
			 M241,83.2c-0.9,0-1.6-0.7-1.6-1.6c0-0.9,0.7-1.6,1.6-1.6c0.9,0,1.6,0.7,1.6,1.6C242.6,82.5,241.9,83.2,241,83.2z"/>
		<path d="M250.3,83.5c-0.4,0-0.7,0.3-0.7,0.7c0,0.4,0.3,0.7,0.7,0.7c0.4,0,0.7-0.3,0.7-0.7C251.1,83.8,250.7,83.5,250.3,83.5z
			 M250.3,85.8c-0.9,0-1.6-0.7-1.6-1.6c0-0.9,0.7-1.6,1.6-1.6c0.9,0,1.6,0.7,1.6,1.6C251.9,85.1,251.2,85.8,250.3,85.8z"/>
		<path d="M236.3,91.3c-0.2,0-0.4-0.2-0.4-0.4v-5.5c0-0.2,0.2-0.4,0.4-0.4c0.2,0,0.4,0.2,0.4,0.4v5.5
			C236.8,91.1,236.6,91.3,236.3,91.3z"/>
		<path d="M236.3,83.5c-0.4,0-0.7,0.3-0.7,0.7c0,0.4,0.3,0.7,0.7,0.7c0.4,0,0.7-0.3,0.7-0.7C237.1,83.8,236.8,83.5,236.3,83.5z
			 M236.3,85.8c-0.9,0-1.6-0.7-1.6-1.6c0-0.9,0.7-1.6,1.6-1.6c0.9,0,1.6,0.7,1.6,1.6C237.9,85.1,237.2,85.8,236.3,85.8z"/>
		<path d="M245.7,91.3c-0.2,0-0.4-0.2-0.4-0.4v-5.5c0-0.2,0.2-0.4,0.4-0.4c0.2,0,0.4,0.2,0.4,0.4v5.5
			C246.1,91.1,245.9,91.3,245.7,91.3z"/>
		<path d="M245.7,83.5c-0.4,0-0.7,0.3-0.7,0.7c0,0.4,0.3,0.7,0.7,0.7c0.4,0,0.7-0.3,0.7-0.7C246.4,83.8,246.1,83.5,245.7,83.5z
			 M245.7,85.8c-0.9,0-1.6-0.7-1.6-1.6c0-0.9,0.7-1.6,1.6-1.6c0.9,0,1.6,0.7,1.6,1.6C247.3,85.1,246.5,85.8,245.7,85.8z"/>
		<path d="M236.3,65c-0.2,0-0.4-0.2-0.4-0.4v-5.5c0-0.2,0.2-0.4,0.4-0.4c0.2,0,0.4,0.2,0.4,0.4v5.5C236.8,64.8,236.6,65,236.3,65z"
			/>
		<path d="M236.3,65c-0.4,0-0.7,0.3-0.7,0.7c0,0.4,0.3,0.7,0.7,0.7c0.4,0,0.7-0.3,0.7-0.7C237.1,65.3,236.8,65,236.3,65z
			 M236.3,67.3c-0.9,0-1.6-0.7-1.6-1.6c0-0.9,0.7-1.6,1.6-1.6c0.9,0,1.6,0.7,1.6,1.6C237.9,66.6,237.2,67.3,236.3,67.3z"/>
		<path d="M245.7,65c-0.2,0-0.4-0.2-0.4-0.4v-5.5c0-0.2,0.2-0.4,0.4-0.4c0.2,0,0.4,0.2,0.4,0.4v5.5C246.1,64.8,245.9,65,245.7,65z"
			/>
		<path d="M245.7,65c-0.4,0-0.7,0.3-0.7,0.7c0,0.4,0.3,0.7,0.7,0.7c0.4,0,0.7-0.3,0.7-0.7C246.4,65.3,246.1,65,245.7,65z
			 M245.7,67.3c-0.9,0-1.6-0.7-1.6-1.6c0-0.9,0.7-1.6,1.6-1.6c0.9,0,1.6,0.7,1.6,1.6C247.3,66.6,246.5,67.3,245.7,67.3z"/>
	</g>
</g>
<rect x="209.3" y="43.3" class="st4" width="63.4" height="63.4"/>
<g>
	<path d="M171.6,214.8c-9.2,0-16.7,7.5-16.7,16.7c0,9.2,7.5,16.7,16.7,16.7s16.7-7.5,16.7-16.7C188.3,222.3,180.8,214.8,171.6,214.8
		z M171.6,245.2c-7.6,0-13.7-6.2-13.7-13.7c0-7.6,6.2-13.8,13.7-13.8c7.6,0,13.8,6.2,13.8,13.8C185.3,239.1,179.2,245.2,171.6,245.2
		z"/>
	<path d="M175.7,226.9l-5.7,6.5l-3-3c-0.6-0.6-1.5-0.6-2.1,0c-0.6,0.6-0.6,1.5,0,2.1l4.2,4.2c0.3,0.3,0.7,0.4,1.1,0.4l0,0
		c0.4,0,0.8-0.2,1.1-0.5l6.8-7.7c0.5-0.6,0.5-1.6-0.1-2.1C177.2,226.2,176.3,226.3,175.7,226.9z"/>
	<circle cx="135.9" cy="229.3" r="3.6"/>
	<path d="M207.3,219.7c-1.6,0-3.2,0.3-4.6,0.9l-6.1-10.6c2.8-2.2,4.7-5.5,4.7-9.4c0-6.5-5.3-11.8-11.8-11.8c-6,0-10.9,4.5-11.7,10.4
		h-12.3c-0.7-5.8-5.7-10.4-11.7-10.4c-6.5,0-11.8,5.3-11.8,11.8c0,3.8,1.9,7.2,4.7,9.4l-6.1,10.6c-1.4-0.6-3-0.9-4.6-0.9
		c-6.6,0-11.9,5.3-11.9,11.8s5.3,11.8,11.8,11.8c1.6,0,3.2-0.3,4.6-0.9l6.1,10.6c-2.8,2.2-4.7,5.5-4.7,9.4c0,6.5,5.3,11.8,11.8,11.8
		c6,0,10.9-4.5,11.7-10.4h12.2c0.7,5.8,5.7,10.4,11.7,10.4c6.5,0,11.8-5.3,11.8-11.8c0-3.8-1.9-7.2-4.7-9.4l6.1-10.6
		c1.4,0.6,3,0.9,4.6,0.9c6.5,0,11.8-5.3,11.8-11.8C219.1,225,213.8,219.7,207.3,219.7z M189.4,191.8c4.9,0,8.9,4,8.9,8.9
		c0,2.9-1.4,5.4-3.5,7l-0.2-1.3c-0.2-1.9-1.9-3.4-3.8-3.4h-2.7c-1.9,0-3.6,1.5-3.8,3.4l-0.1,1.2c-2.1-1.6-3.5-4.2-3.5-7.1
		C180.5,195.7,184.5,191.8,189.4,191.8z M144.9,200.6c0-4.9,4-8.9,8.9-8.9c4.9,0,8.9,4,8.9,8.9c0,2.9-1.4,5.4-3.5,7.1l-0.1-1.2
		c-0.2-1.9-1.9-3.4-3.8-3.4h-2.7c-1.9,0-3.6,1.5-3.8,3.4l-0.1,1.2C146.4,206,144.9,203.5,144.9,200.6z M141.3,238.5l-0.1-1.2
		c-0.2-1.9-1.9-3.4-3.8-3.4h-2.8c-1.9,0-3.6,1.5-3.8,3.4l-0.2,1.2c-2.1-1.6-3.5-4.2-3.5-7c0-4.9,4-8.9,8.9-8.9c4.9,0,8.9,4,8.9,8.9
		C144.8,234.4,143.4,236.9,141.3,238.5z M159.1,269.4l-0.1-1.2c-0.2-1.9-1.9-3.4-3.8-3.4h-2.7c-1.9,0-3.6,1.5-3.8,3.4l-0.1,1.2
		c-2.1-1.6-3.5-4.2-3.5-7.1c0-4.9,4-8.9,8.9-8.9c4.9,0,8.9,4,8.9,8.9C162.7,265.3,161.3,267.8,159.1,269.4z M198.3,262.4
		c0,2.9-1.4,5.4-3.5,7l-0.2-1.2c-0.2-1.9-1.9-3.4-3.8-3.4h-2.7c-1.9,0-3.6,1.5-3.8,3.4l-0.1,1.2c-2.1-1.6-3.5-4.2-3.5-7.1
		c0-4.9,4-8.9,8.9-8.9C194.3,253.5,198.3,257.5,198.3,262.4z M194,251.5c-1.4-0.6-3-0.9-4.6-0.9c-6,0-10.9,4.5-11.7,10.4h-12.2
		c-0.7-5.9-5.7-10.5-11.7-10.5c-1.6,0-3.2,0.3-4.6,0.9l-6.1-10.6c2.8-2.2,4.7-5.5,4.7-9.4c0-3.8-1.9-7.2-4.7-9.4l6.1-10.5
		c1.4,0.6,3,0.9,4.6,0.9c6,0,10.9-4.5,11.7-10.4h12.2c0.7,5.9,5.7,10.5,11.7,10.5c1.6,0,3.2-0.3,4.6-0.9l6.1,10.6
		c-2.8,2.2-4.7,5.5-4.7,9.4c0,3.8,1.9,7.2,4.7,9.4L194,251.5z M212.6,238.5l-0.1-1.2c-0.2-1.9-1.9-3.4-3.8-3.4H206
		c-1.9,0-3.6,1.5-3.8,3.4l-0.3,1.2c-2.1-1.6-3.5-4.2-3.5-7c0-4.9,4-8.9,8.9-8.9c4.9,0,8.9,4,8.9,8.9
		C216.1,234.4,214.7,236.9,212.6,238.5z"/>
	<circle cx="207.3" cy="229.3" r="3.6"/>
	<circle cx="153.8" cy="198.4" r="3.6"/>
	<circle cx="189.4" cy="198.4" r="3.6"/>
	<circle cx="153.8" cy="260.2" r="3.6"/>
	<circle cx="189.4" cy="260.2" r="3.6"/>
</g>
</svg>
