<?xml version="1.0" encoding="UTF-8"?>
<svg version="1.1" xmlns="http://www.w3.org/2000/svg" width="752" height="752">
<path d="M0 0 C0.74625687 -0.00350607 1.49251374 -0.00701215 2.26138446 -0.01062447 C4.76999868 -0.01995205 7.27838146 -0.01501168 9.78700542 -0.01015663 C11.60053325 -0.01389221 13.41405946 -0.01849336 15.22758311 -0.02388728 C20.21755233 -0.03614414 25.20745465 -0.03585365 30.1974355 -0.03349853 C35.57656621 -0.03309104 40.95567528 -0.04412299 46.33479595 -0.05361366 C56.87592916 -0.0702393 67.41704001 -0.07572391 77.95818523 -0.07683842 C86.52493518 -0.07778814 95.09167773 -0.08189463 103.65842533 -0.08823967 C127.93687553 -0.10585624 152.21530804 -0.11507787 176.49376468 -0.11357872 C177.80311393 -0.11349881 179.11246318 -0.1134189 180.46148968 -0.11333656 C182.42790644 -0.11321392 182.42790644 -0.11321392 184.43404879 -0.1130888 C205.68382931 -0.11227575 226.93353897 -0.13141707 248.18329898 -0.1596133 C269.9927403 -0.18832425 291.80214703 -0.20215458 313.61160773 -0.20042574 C325.85985028 -0.19976123 338.10801854 -0.20528042 350.35624409 -0.22678185 C360.78410485 -0.24497008 371.21185766 -0.24936036 381.63972739 -0.235763 C386.96120402 -0.2292215 392.2824734 -0.22915885 397.60393047 -0.2464695 C402.47520673 -0.26215289 407.34611059 -0.25938503 412.21737751 -0.24190123 C413.9798099 -0.23882089 415.74226975 -0.2425025 417.50466976 -0.25362138 C435.26842637 -0.35827129 435.26842637 -0.35827129 442.77765179 6.22211266 C443.31647991 6.87308922 443.85530804 7.52406578 444.41046429 8.19476891 C444.96476116 8.84316734 445.51905804 9.49156578 446.09015179 10.15961266 C449.0858362 14.50740328 449.78597156 18.25478058 449.79273319 23.48803234 C449.79918208 24.7505598 449.80563098 26.01308725 449.81227529 27.31387311 C449.8093331 28.71247066 449.80619767 30.11106781 449.80288982 31.50966454 C449.80662638 32.99733355 449.81122792 34.4850006 449.81662047 35.97266454 C449.82886531 40.06191352 449.82858826 44.15108079 449.82623172 48.24034393 C449.82582393 52.65014273 449.8368591 57.0599152 449.84634686 61.46970177 C449.86296597 70.10982177 449.86845681 78.74991449 449.86957161 87.39004914 C449.87052165 94.41265385 449.87462976 101.43524955 449.88097286 108.45785141 C449.89858776 128.36463769 449.90781134 148.2714024 449.90631191 168.17819653 C449.906232 169.25157313 449.90615209 170.32494973 449.90606976 171.43085289 C449.90598799 172.50553883 449.90590623 173.58022477 449.90582199 174.68747696 C449.90500902 192.10584725 449.9241488 209.52413108 449.95234649 226.94247637 C449.98106576 244.82399569 449.99488731 262.70547283 449.99315894 280.58701581 C449.9924947 290.62755654 449.99800157 300.66800664 450.01951504 310.70852661 C450.03771424 319.25709749 450.04208455 327.80553665 450.02849619 336.3541185 C450.02196016 340.71563546 450.02187217 345.07689963 450.03920269 349.43839264 C450.05491053 353.43259618 450.05209345 357.42634601 450.03463443 361.42053833 C450.03155946 362.86399608 450.03521569 364.3074875 450.04635458 365.75090555 C450.11194503 374.85468467 449.77328497 381.42126677 443.57062054 388.49945641 C442.91964397 389.03828453 442.26866741 389.57711266 441.59796429 390.13226891 C440.94956585 390.68656578 440.30116741 391.24086266 439.63312054 391.81195641 C435.08789598 394.94367537 431.21497827 395.5061981 425.74608135 395.49777794 C425.07619019 395.49948679 424.40629903 395.50119564 423.71610814 395.50295627 C421.47894435 395.50624174 419.24208272 395.49526326 417.00494671 395.48431969 C415.39831836 395.48375537 413.7916895 395.48407254 412.18506145 395.4852047 C407.82801323 395.4857784 403.47107517 395.47402114 399.11405253 395.46005678 C394.55899759 395.44755246 390.00394011 395.44637916 385.44887066 395.44400597 C376.82522478 395.43779032 368.20162963 395.42137835 359.57800609 395.40130699 C349.75946254 395.37895062 339.94091657 395.36795521 330.12235391 395.35791612 C309.92669573 395.33701221 289.7310832 395.30183457 269.53546429 395.25726891 C270.12748666 396.99317323 270.72979046 398.72557271 271.33624554 400.45648766 C271.67051556 401.42159264 272.00478558 402.38669762 272.34918499 403.3810482 C276.72661299 413.99444174 285.7931407 420.03545605 296.01983929 424.39789391 C298.99167885 425.4131186 301.96212089 426.05151099 305.03546429 426.69476891 C314.29954876 428.71622024 321.15482325 432.3011381 326.53546429 440.25726891 C330.7563915 447.35979066 332.32530386 453.99320669 331.53546429 462.25726891 C329.5711239 467.93203003 325.90745767 471.57127221 320.53546429 474.25726891 C317.72739121 474.36188596 314.94374913 474.40506339 312.1351347 474.40443993 C311.25561193 474.40811661 310.37608917 474.4117933 309.4699142 474.41558141 C306.50510478 474.42664717 303.54033036 474.43046697 300.57550335 474.43427086 C298.45689055 474.44053332 296.33827886 474.44717992 294.21966839 474.45418358 C288.45097672 474.47161334 282.68229334 474.48215067 276.91358185 474.49038911 C273.31172891 474.49553496 269.70987857 474.50161087 266.10802746 474.50790024 C254.84517861 474.52695761 243.58233634 474.54118772 232.31947446 474.54951221 C219.30632107 474.55928837 206.29333761 474.58561562 193.28024411 474.6260131 C183.23008555 474.65614486 173.17997577 474.67097828 163.1297729 474.67429322 C157.12344983 474.67664702 151.11730817 474.68565041 145.11103344 474.71075439 C139.46067872 474.73398866 133.81062547 474.73828697 128.1602354 474.72799301 C126.08576996 474.72749641 124.01128991 474.73385319 121.93686962 474.74754906 C119.10545921 474.7651975 116.27513896 474.75819644 113.44372845 474.7450161 C112.21132313 474.76146997 112.21132313 474.76146997 110.95402074 474.77825624 C105.68237471 474.71897978 102.73647613 473.71460696 98.53546429 470.25726891 C94.27376202 465.53484207 93.21777637 461.99144597 93.32843304 455.78461266 C94.11179294 446.22170969 98.28738856 439.20898271 105.19562054 432.69086266 C109.80794129 429.03807908 114.91986136 427.72186827 120.53546429 426.25726891 C133.49429364 422.8606068 144.4291738 418.15656356 151.53546429 406.25726891 C152.31758825 404.34530191 153.04862579 402.41162934 153.72687054 400.46039391 C154.07048626 399.48231773 154.41410198 398.50424156 154.7681303 397.49652672 C155.02135052 396.75757164 155.27457073 396.01861656 155.53546429 395.25726891 C154.70278027 395.26095608 153.87009624 395.26464325 153.01217937 395.26844215 C132.73891885 395.3568298 112.4656916 395.42299636 92.19227886 395.46451759 C82.38814652 395.48513134 72.58414291 395.51322925 62.78009319 395.55902672 C54.23357589 395.59893082 45.68715182 395.62471035 37.14054394 395.63362288 C32.61632525 395.63883158 28.09237327 395.65104913 23.56824017 395.68018913 C19.30664814 395.70741474 15.04543176 395.71569952 10.78376102 395.70969963 C9.22291997 395.71079668 7.66206587 395.71870809 6.10130024 395.73409081 C-3.2151626 395.82137979 -10.38171224 395.71138076 -17.70672321 389.29242516 C-18.24555134 388.64144859 -18.78437946 387.99047203 -19.33953571 387.31976891 C-19.89383259 386.67137047 -20.44812946 386.02297203 -21.01922321 385.35492516 C-24.01490763 381.00713453 -24.71504298 377.25975723 -24.72180462 372.02650547 C-24.72825351 370.76397802 -24.7347024 369.50145056 -24.74134672 368.2006647 C-24.73840452 366.80206715 -24.73526909 365.40347 -24.73196125 364.00487328 C-24.7356978 362.51720426 -24.74029934 361.02953721 -24.7456919 359.54187328 C-24.75793674 355.45262429 -24.75765968 351.36345702 -24.75530314 347.27419388 C-24.75489535 342.86439508 -24.76593053 338.45462261 -24.77541828 334.04483604 C-24.7920374 325.40471604 -24.79752824 316.76462332 -24.79864304 308.12448867 C-24.79959308 301.10188396 -24.80370119 294.07928826 -24.81004429 287.0566864 C-24.82765919 267.14990012 -24.83688277 247.24313541 -24.83538334 227.33634128 C-24.83530343 226.26296468 -24.83522352 225.18958808 -24.83514118 224.08368492 C-24.83505942 223.00899898 -24.83497766 221.93431304 -24.83489342 220.82706086 C-24.83408045 203.40869056 -24.85322023 185.99040673 -24.88141792 168.57206144 C-24.91013718 150.69054212 -24.92395874 132.80906498 -24.92223036 114.927522 C-24.92156613 104.88698127 -24.927073 94.84653117 -24.94858646 84.8060112 C-24.96678566 76.25744032 -24.97115598 67.70900116 -24.95756762 59.16041931 C-24.95103159 54.79890235 -24.95094359 50.43763818 -24.96827412 46.07614517 C-24.98398196 42.08194163 -24.98116487 38.08819181 -24.96370585 34.09399948 C-24.96063089 32.65054173 -24.96428712 31.20705031 -24.975426 29.76363226 C-25.04101645 20.65985314 -24.7023564 14.09327104 -18.49969196 7.01508141 C-17.8487154 6.47625328 -17.19773884 5.93742516 -16.52703571 5.38226891 C-15.87863728 4.82797203 -15.23023884 4.27367516 -14.56219196 3.70258141 C-9.8685767 0.46861931 -5.5852683 -0.03325031 0 0 Z M-7.46453571 20.25726891 C-8.532942 23.36323156 -8.58891557 26.27787152 -8.58758354 29.543993 C-8.58957441 30.62169708 -8.59156528 31.69940117 -8.59361649 32.80976295 C-8.59070382 33.99229527 -8.58779116 35.17482758 -8.58479023 36.3931942 C-8.58564625 37.64722542 -8.58650227 38.90125664 -8.58738422 40.1932888 C-8.58963019 43.6830974 -8.58560965 47.17287538 -8.58060844 50.66268009 C-8.5762481 54.48038944 -8.57770264 58.29809733 -8.57842636 62.11580849 C-8.57895848 69.52983706 -8.57433666 76.94385354 -8.56792503 84.357879 C-8.56073183 92.93192814 -8.55993066 101.50596999 -8.55914021 110.08002281 C-8.55388747 132.7224401 -8.53992639 155.36485468 -8.52703571 178.00726891 C-8.50641071 228.57976891 -8.48578571 279.15226891 -8.46453571 331.25726891 C137.39546429 331.25726891 283.25546429 331.25726891 433.53546429 331.25726891 C433.57671429 280.70539391 433.61796429 230.15351891 433.66046429 178.06976891 C433.67867229 162.08773033 433.6968803 146.10569176 433.71564007 129.63934898 C433.72232752 115.35580297 433.72232752 115.35580297 433.72635174 101.07225609 C433.72822058 94.69329424 433.73557285 88.31436722 433.74661541 81.93541527 C433.75932438 74.58298796 433.76514126 67.23059419 433.76235419 59.87815581 C433.76114661 56.11512465 433.76309358 52.3521685 433.77389455 48.58915102 C433.78537836 44.56386637 433.78146501 40.53874594 433.77597332 36.51344872 C433.78471131 34.74401925 433.78471131 34.74401925 433.79362583 32.93884373 C433.78964409 31.85914877 433.78566235 30.77945381 433.78155994 29.66704082 C433.78269911 28.27099903 433.78269911 28.27099903 433.78386128 26.84675437 C433.40040891 22.84934556 432.38080361 20.10260823 429.53546429 17.25726891 C425.91022815 15.92538717 422.22677478 16.13072204 418.40423965 16.12863445 C417.68187507 16.12688142 416.95951049 16.12512838 416.21525607 16.12332222 C413.78197988 16.11865084 411.34876315 16.12113064 408.91548443 16.12355614 C407.15843022 16.12168874 405.40137642 16.11938833 403.64432329 16.11669081 C398.80593859 16.11055765 393.96757112 16.11070819 389.12918341 16.11188519 C383.91506439 16.11208881 378.70095096 16.10657416 373.48683453 16.10182762 C363.26808819 16.09351243 353.04934762 16.0907724 342.83059818 16.09021524 C334.52743562 16.08974054 326.22427497 16.08768807 317.92111301 16.08451462 C294.39628586 16.07570603 270.87146327 16.07109561 247.34663446 16.07184509 C245.44330713 16.07190503 245.44330713 16.07190503 243.50152874 16.07196617 C242.23110041 16.07200705 240.96067207 16.07204793 239.65174591 16.07209005 C219.0530169 16.07249668 198.45430615 16.06292338 177.85558242 16.0488278 C156.72080842 16.03447914 135.58604333 16.02755677 114.45126432 16.02842158 C102.57927392 16.02875405 90.70730268 16.02598504 78.83531666 16.01524353 C68.72906504 16.00615842 58.62284125 16.00394688 48.51658732 16.01075295 C43.35756678 16.01402812 38.19859969 16.01403906 33.03958416 16.0053997 C28.32025402 15.99757771 23.60102013 15.99892179 18.88169246 16.00768384 C17.17110139 16.00922835 15.46050328 16.00736717 13.74992049 16.00182376 C11.43067259 15.9948035 9.11176606 16.00002575 6.79253006 16.00837994 C4.85750007 16.00805388 4.85750007 16.00805388 2.88337857 16.00772125 C-1.51307918 16.3354255 -4.33223412 17.12496731 -7.46453571 20.25726891 Z M-8.46453571 348.25726891 C-9.88819997 368.59563573 -9.88819997 368.59563573 -6.46453571 376.25726891 C-2.51507231 379.5136444 0.8065605 379.63290718 5.82097149 379.63479233 C6.54786667 379.63915265 7.27476184 379.64351297 8.02368414 379.64800543 C10.46652029 379.65897919 12.90879409 379.64853002 15.3516264 379.63821983 C17.11779571 379.64167556 18.88396287 379.64643955 20.6501255 379.65240157 C25.50910775 379.66495289 30.36791378 379.65872241 35.22689676 379.64944291 C40.46486622 379.64266966 45.70280486 379.65312508 50.94076824 379.66138268 C61.20418244 379.67474064 71.46753093 379.67183308 81.73094773 379.66314475 C90.07032293 379.65637673 98.40967967 379.65544767 106.74905682 379.6587162 C107.93479036 379.6591759 109.12052391 379.6596356 110.34218878 379.66010923 C112.75078846 379.66106838 115.15938813 379.66204102 117.5679878 379.663027 C140.16718122 379.67158694 162.76633816 379.66173729 185.3655256 379.6456259 C204.76756771 379.63222218 224.16955597 379.63455011 243.5715971 379.64838219 C266.08849665 379.66442733 288.60536421 379.67076291 311.12226868 379.6615454 C313.52213637 379.66058972 315.92200406 379.65964661 318.32187176 379.6587162 C320.0931628 379.65802196 320.0931628 379.65802196 321.9002375 379.6573137 C330.23209457 379.65472061 338.5639314 379.65910166 346.89578533 379.66615486 C357.04594744 379.67455823 367.19603992 379.67231425 377.34619403 379.65631263 C382.52751896 379.64841424 387.7087277 379.64536499 392.89005184 379.65526009 C397.62974541 379.66417505 402.36921468 379.65932709 407.10888779 379.64332743 C408.82684867 379.63996603 410.54482835 379.64170404 412.26277721 379.64895479 C414.59210927 379.65803461 416.92066597 379.64876471 419.24995708 379.63479233 C420.54551053 379.63430527 421.84106398 379.63381821 423.17587662 379.6333164 C426.849259 379.22214504 428.69213998 378.6016207 431.53546429 376.25726891 C434.95912855 368.59563573 434.95912855 368.59563573 433.53546429 348.25726891 C287.67546429 348.25726891 141.81546429 348.25726891 -8.46453571 348.25726891 Z M172.53546429 395.25726891 C171.54546429 399.21726891 170.55546429 403.17726891 169.53546429 407.25726891 C168.10577679 410.80805016 168.10577679 410.80805016 166.66046429 413.56976891 C166.18866741 414.49402672 165.71687054 415.41828453 165.23077679 416.37055016 C163.21519615 419.80261027 160.84888006 423.01848682 158.53546429 426.25726891 C194.17546429 426.25726891 229.81546429 426.25726891 266.53546429 426.25726891 C264.55546429 423.28726891 262.57546429 420.31726891 260.53546429 417.25726891 C259.40356613 415.30547016 258.3113698 413.3293036 257.28546429 411.31976891 C256.80593304 410.40324547 256.32640179 409.48672203 255.83233929 408.54242516 C254.53546429 405.25726891 254.53546429 405.25726891 252.53546429 395.25726891 C226.13546429 395.25726891 199.73546429 395.25726891 172.53546429 395.25726891 Z M112.97687054 449.03851891 C111.22883239 452.45690461 110.53546429 454.34319706 110.53546429 458.25726891 C177.85546429 458.25726891 245.17546429 458.25726891 314.53546429 458.25726891 C313.59002657 452.58464261 313.04466488 450.52521558 309.53546429 446.25726891 C304.99922182 443.45190571 301.17750972 442.82379818 295.95161724 442.86958885 C295.20822312 442.86420331 294.46482901 442.85881778 293.69890779 442.85326904 C291.21855626 442.83901036 288.73873999 442.84608782 286.25836468 442.85321617 C284.47575229 442.8475115 282.69314356 442.84054687 280.91054058 442.83241844 C276.07581659 442.81448269 271.24127406 442.8156562 266.4065268 442.82136083 C262.36821386 442.82445204 258.3299358 442.81836098 254.29162782 442.81232208 C244.76390901 442.79827712 235.23627985 442.79983794 225.70855999 442.81122398 C215.88369914 442.82270576 206.05911125 442.80862843 196.23428637 442.78182751 C187.79419123 442.75966713 179.35418175 442.75303388 170.91405958 442.75890392 C165.87525359 442.76227381 160.83662257 442.75985619 155.79784107 442.74265289 C151.05926082 442.72718046 146.32108479 442.73114264 141.58252048 442.74995804 C139.84550713 442.75364307 138.10846381 442.75053795 136.37147808 442.74007225 C133.99595253 442.72685419 131.62176362 442.73841568 129.24629498 442.75606346 C128.22079 442.74165595 128.22079 442.74165595 127.17456776 442.72695738 C121.46482157 442.81394246 116.79744806 444.6721446 112.97687054 449.03851891 Z " fill="#000000" transform="translate(163.4645357131958,138.74273109436035)"/>
<path d="M0 0 C0.97974208 -0.00480972 0.97974208 -0.00480972 1.97927693 -0.0097166 C4.16518934 -0.0180097 6.35082727 -0.01209485 8.53674412 -0.00622082 C10.12085877 -0.00924181 11.70497197 -0.01313104 13.28908259 -0.01781338 C17.64024166 -0.02810871 21.99131848 -0.02590766 26.34248435 -0.02163279 C31.03581724 -0.01916837 35.72913018 -0.02817617 40.42245579 -0.03567028 C49.61623441 -0.04842697 58.80998383 -0.05020978 68.00376981 -0.04787002 C75.47544329 -0.04608787 82.9471079 -0.04783428 90.41878033 -0.05209446 C92.0131374 -0.05298724 92.0131374 -0.05298724 93.63970371 -0.05389806 C95.79890239 -0.0551098 97.95810107 -0.05632393 100.11729974 -0.05754044 C120.37118947 -0.06841961 140.62506256 -0.06625163 160.87895323 -0.06015559 C179.41339515 -0.05498545 197.94778453 -0.06624378 216.48221605 -0.08525381 C235.50846357 -0.10461886 254.53468622 -0.1128906 273.56094366 -0.10913056 C284.24472759 -0.10721657 294.9284668 -0.10972534 305.6122427 -0.1238451 C314.70684066 -0.13574285 323.80136635 -0.13718181 332.89596527 -0.12505493 C337.53680681 -0.11915511 342.17751606 -0.11809728 346.81834888 -0.13005733 C351.06651493 -0.14087831 355.31443762 -0.13785807 359.5625921 -0.12379565 C361.09953911 -0.12113827 362.63650496 -0.12354781 364.17343353 -0.13153151 C366.26343264 -0.14163478 368.35258534 -0.13321905 370.44255066 -0.12025452 C372.18343622 -0.12033704 372.18343622 -0.12033704 373.95949119 -0.12042123 C380.46890159 0.613586 385.1692411 3.1989597 389.2841959 8.25447559 C391.70774239 13.69165011 391.56736574 18.88649886 391.54489231 24.72357655 C391.54871786 25.77732064 391.55254341 26.83106474 391.55648488 27.91674048 C391.56680273 31.44725698 391.56282498 34.97761048 391.5588541 38.5081377 C391.56320122 41.03950622 391.56838437 43.57087342 391.57434177 46.10223866 C391.58635064 52.26402991 391.58888324 58.42576109 391.58654151 64.58756178 C391.58475761 69.59642184 391.58650954 74.60526868 391.59076595 79.61412716 C391.59136114 80.32733636 391.59195633 81.04054556 391.59256956 81.77536716 C391.59378132 83.22430384 391.59499546 84.67324052 391.59621193 86.12217719 C391.60708505 99.70624394 391.60492599 113.29028586 391.59882709 126.87435401 C391.59365748 139.29793876 391.60491492 151.7214451 391.62392531 164.14501434 C391.64330281 176.90647556 391.6515599 189.66789968 391.64780205 202.42937571 C391.64588996 209.59201294 391.64837842 216.75458344 391.66251659 223.91720867 C391.67567561 230.65183374 391.67317159 237.38627637 391.66010571 244.12090969 C391.65773564 246.59325049 391.66048991 249.06560228 391.66872883 251.53793049 C391.67916121 254.91160067 391.67112329 258.28474005 391.6584177 261.658391 C391.66579199 262.63777305 391.67316627 263.6171551 391.68076402 264.6262154 C391.63128844 270.86651418 391.04488886 276.12147544 386.74903965 280.99666309 C381.98535473 284.52983094 379.88203517 285.37973205 373.96408558 285.38869667 C372.97562181 285.39222502 372.97562181 285.39222502 371.96718907 285.39582464 C369.73749427 285.40253323 367.50785749 285.40205586 365.27815342 285.40164661 C363.67203041 285.40494408 362.06590824 285.4086694 360.45978713 285.41278809 C356.02927448 285.42282952 351.59877537 285.42652832 347.16825294 285.4291774 C342.39648008 285.43307411 337.624718 285.44265287 332.852952 285.45139027 C321.32084478 285.47117247 309.78873666 285.48122304 298.25661671 285.49011806 C292.83010718 285.49449802 287.40359863 285.49986558 281.97708988 285.50510693 C263.9453117 285.52212085 245.91353413 285.53661599 227.88174915 285.54385567 C223.20014285 285.54576566 218.51853656 285.54768598 213.83693027 285.54964161 C212.67329538 285.55012535 211.50966048 285.55060909 210.31076393 285.55110749 C191.45205645 285.55941139 172.59341233 285.58475366 153.73473254 285.61722229 C134.38656664 285.65026292 115.03843298 285.66830171 95.69023871 285.67149991 C84.82140441 285.67366777 73.9526625 285.68245672 63.08385563 285.70796108 C53.8291927 285.72962718 44.5746446 285.7377387 35.31995919 285.7279943 C30.59619065 285.72343772 25.87265922 285.7254144 21.14892292 285.74475574 C16.82596496 285.7623036 12.50341855 285.76145828 8.18045673 285.74585845 C6.61513924 285.74346958 5.04979387 285.74787183 3.48451915 285.7596871 C1.35840075 285.77474393 -0.7662476 285.76517893 -2.89232922 285.74946022 C-4.66437666 285.75092543 -4.66437666 285.75092543 -6.47222304 285.75242025 C-11.53248365 284.9755845 -14.61295191 282.44674823 -18.0283041 278.75447559 C-20.481537 275.12005648 -20.84030632 272.07751489 -20.84723186 267.75255585 C-20.85107301 266.85019249 -20.85491416 265.94782913 -20.8588717 265.01812142 C-20.85757197 263.53696374 -20.85757197 263.53696374 -20.85624599 262.02588367 C-20.85921712 260.97384843 -20.86218824 259.92181318 -20.8652494 258.83789808 C-20.87394359 255.30121215 -20.87544525 251.76456004 -20.87693691 248.22786427 C-20.88156454 245.69679155 -20.88658912 243.16571953 -20.89198208 240.63464832 C-20.90511256 233.75033695 -20.91158885 226.86603673 -20.91599274 219.98171496 C-20.9187562 215.68266823 -20.92299373 211.38362373 -20.92749691 207.08457851 C-20.9396882 195.1802427 -20.94998806 183.27590869 -20.953372 171.37156677 C-20.95359157 170.60982449 -20.95381113 169.8480822 -20.95403735 169.06325682 C-20.95425563 168.29970085 -20.95447391 167.53614489 -20.9546988 166.74945086 C-20.95514227 165.20221627 -20.95558883 163.65498167 -20.95603848 162.10774708 C-20.9562599 161.34026665 -20.95648133 160.57278621 -20.95670947 159.7820488 C-20.96065772 147.34540808 -20.97811315 134.90882595 -21.001398 122.47220787 C-21.02511475 109.70177496 -21.03757399 96.93137144 -21.03873992 84.16091615 C-21.03965646 76.99153598 -21.04540342 69.82223217 -21.06355953 62.65287304 C-21.08057534 55.91007614 -21.08221074 49.16744889 -21.07342052 42.42462826 C-21.07264852 39.94906063 -21.07701432 37.4734853 -21.08687878 34.9979372 C-21.09955107 31.61979054 -21.09374671 28.24216127 -21.08329678 24.86401844 C-21.09135318 23.88327215 -21.09940958 22.90252586 -21.10771012 21.89205998 C-21.05650413 14.81950888 -20.00544487 10.03917383 -15.4033041 4.44197559 C-10.64888625 0.5721006 -6.00416207 0.00448479 0 0 Z M-3.7158041 17.25447559 C-3.7158041 100.41447559 -3.7158041 183.57447559 -3.7158041 269.25447559 C121.0241959 269.25447559 245.7641959 269.25447559 374.2841959 269.25447559 C374.2841959 186.09447559 374.2841959 102.93447559 374.2841959 17.25447559 C249.5441959 17.25447559 124.8041959 17.25447559 -3.7158041 17.25447559 Z " fill="#000000" transform="translate(190.71580410003662,169.7455244064331)"/>
<path d="M0 0 C4.54264309 1.55441474 7.67494988 -0.62743741 11.8125 -2.609375 C12.95460938 -3.18171875 14.09671875 -3.7540625 15.2734375 -4.34375 C34.00844281 -13.41069747 57.33719278 -19.33296299 77.8984375 -13.46875 C88.32498211 -9.60756509 97.34098623 -3.01231431 102.22265625 7.19921875 C110.3162221 27.72301753 107.06592406 49.86058567 98.6484375 69.90625 C96.92015801 73.50525412 95.09777257 77.0546228 93.15161133 80.54077148 C91.68326975 83.26479828 90.6312202 85.31633091 90.72265625 88.44921875 C91.91140284 91.60416224 93.3318125 94.57553892 94.8359375 97.59375 C104.39467159 117.44345047 110.98485947 140.51112358 104.5546875 162.33203125 C100.93084171 172.62562771 95.10199253 180.24863139 85.43359375 185.5859375 C65.95499766 194.81983017 44.7885503 191.02972546 25.07617188 184.39575195 C19.09850578 182.25719038 13.76019297 179.46133082 8.34765625 176.12890625 C5.05760808 174.63862394 4.02643578 174.71490239 0.6484375 175.90625 C-1.94182759 177.11787126 -4.48864914 178.36693315 -7.0390625 179.65625 C-25.3344502 188.56457986 -49.12661256 194.93223471 -69.1640625 189.28125 C-80.26483627 185.38576374 -88.89604689 179.58246104 -94.6015625 169.09375 C-95.21794891 167.71219426 -95.80029138 166.31505397 -96.3515625 164.90625 C-96.80015625 163.77703125 -96.80015625 163.77703125 -97.2578125 162.625 C-104.55068613 140.7463791 -96.50060448 116.87815294 -87.3515625 96.90625 C-86.58447609 95.47974961 -85.81380451 94.05516961 -85.0390625 92.6328125 C-83.79841678 90.16985572 -83.34783758 89.11298324 -83.3984375 86.3046875 C-84.60909521 83.25819638 -86.05216752 80.42120846 -87.6015625 77.53125 C-97.56365993 58.23928486 -103.73091153 34.0027189 -97.390625 12.58203125 C-92.81230999 0.79200951 -85.72246753 -6.32473205 -74.51171875 -11.83203125 C-50.47012225 -21.43083925 -21.35772837 -12.48417361 0 0 Z M-76.3515625 9.90625 C-83.65687078 19.13400782 -83.25724864 29.69838399 -82.3515625 40.90625 C-80.88466403 51.11341852 -76.64525153 60.61756939 -72.3515625 69.90625 C-68.34963202 68.38426302 -66.71252385 65.98298374 -64.2890625 62.53125 C-59.4565384 55.86306929 -54.05814287 49.83323422 -48.3515625 43.90625 C-47.74892578 43.27638184 -47.14628906 42.64651367 -46.52539062 41.99755859 C-38.58708764 33.74148366 -30.52766061 26.08854205 -21.33984375 19.23828125 C-18.40454258 16.94759524 -15.91970405 14.58874294 -13.3515625 11.90625 C-32.49836805 2.9311849 -58.79902556 -6.79303862 -76.3515625 9.90625 Z M20.6484375 12.90625 C21.31488281 13.45152344 21.98132813 13.99679688 22.66796875 14.55859375 C28.16796875 19.05859375 28.16796875 19.05859375 29.75 20.35888672 C31.20094541 21.54151172 32.66099172 22.71297942 34.125 23.87939453 C40.78191279 29.22634552 46.99096687 34.86584638 53.0234375 40.90625 C53.92884277 41.80891602 54.83424805 42.71158203 55.76708984 43.64160156 C62.02398635 49.98879 67.6575964 56.58249995 72.82958984 63.83984375 C75.5044529 67.78755667 75.5044529 67.78755667 79.6484375 69.90625 C87.02216692 53.95441536 93.24522012 36.658829 88.91796875 18.91015625 C88.00614608 16.70317323 87.00220641 14.86765116 85.6484375 12.90625 C84.9471875 11.83375 84.2459375 10.76125 83.5234375 9.65625 C77.60751616 3.99754263 70.50474581 1.10258113 62.36328125 0.7734375 C48.82200864 1.25756291 31.31415351 3.90202744 20.6484375 12.90625 Z M-4.6640625 27.21875 C-5.38537354 27.76635986 -6.10668457 28.31396973 -6.84985352 28.87817383 C-24.72852451 42.55102704 -41.00669185 57.70869911 -54.3515625 75.90625 C-55.09664063 76.86789062 -55.84171875 77.82953125 -56.609375 78.8203125 C-57.59550781 80.13128906 -57.59550781 80.13128906 -58.6015625 81.46875 C-59.44460938 82.58443359 -59.44460938 82.58443359 -60.3046875 83.72265625 C-61.53362624 85.86043624 -61.53362624 85.86043624 -61.2890625 88.28515625 C-60.0739349 91.68245051 -58.22368422 94.40245338 -56.1015625 97.28125 C-55.44099854 98.18883057 -55.44099854 98.18883057 -54.76708984 99.11474609 C-43.18575482 114.75336464 -29.71534788 128.96127168 -14.3515625 140.90625 C-13.51214111 141.56101318 -13.51214111 141.56101318 -12.65576172 142.22900391 C-4.8896657 149.36997255 -4.8896657 149.36997255 4.015625 152.75 C17.62285201 148.38922695 30.30240983 133.65650922 40.6484375 123.90625 C41.380625 123.21660156 42.1128125 122.52695312 42.8671875 121.81640625 C48.27876188 116.56589063 53.00972733 110.84291404 57.6484375 104.90625 C58.38441162 103.9769165 58.38441162 103.9769165 59.13525391 103.02880859 C60.69929796 101.04286818 62.23883559 99.04000047 63.7734375 97.03125 C64.27141846 96.40081787 64.76939941 95.77038574 65.2824707 95.12084961 C67.94017201 91.58480282 67.94017201 91.58480282 68.69140625 87.33203125 C58.95752846 64.69256269 34.99230469 44.1183099 15.6484375 29.90625 C14.56699074 29.09209814 13.48624861 28.2770094 12.40625 27.4609375 C4.47042912 21.54514376 3.28953381 21.16127779 -4.6640625 27.21875 Z M-72.3515625 104.90625 C-79.31892584 121.27955385 -86.13577342 138.92386393 -81.5859375 156.9375 C-80.67252433 159.11229325 -79.67531442 160.95982732 -78.3515625 162.90625 C-77.7946875 163.81375 -77.2378125 164.72125 -76.6640625 165.65625 C-69.36178297 172.76117062 -61.35644082 174.24006475 -51.54614258 174.29345703 C-38.00986381 174.04155346 -24.99252312 169.66776605 -13.3515625 162.90625 C-16.43618437 159.65108414 -19.75634226 157.01813564 -23.3515625 154.34375 C-30.07296689 149.25468667 -36.27203152 143.74006063 -42.3515625 137.90625 C-43.30160156 136.99746094 -44.25164062 136.08867187 -45.23046875 135.15234375 C-54.10284428 126.47740634 -61.66547988 117.11948045 -68.72265625 106.92578125 C-69.26019531 106.25933594 -69.79773438 105.59289062 -70.3515625 104.90625 C-71.0115625 104.90625 -71.6715625 104.90625 -72.3515625 104.90625 Z M77.6484375 104.90625 C76.27211445 106.58506163 74.97402568 108.32816742 73.7109375 110.09375 C58.80058372 130.45223427 41.21631947 147.30583862 20.6484375 161.90625 C23.29809628 165.15546661 26.72019114 166.42726293 30.5234375 167.90625 C31.1932666 168.16680176 31.8630957 168.42735352 32.55322266 168.69580078 C45.42973936 173.56676132 60.99341151 177.21060406 74.3984375 172.15625 C81.37032335 168.99633052 85.2516676 164.46545884 88.47265625 157.640625 C94.1086185 139.74035952 86.61879166 121.28658228 79.6484375 104.90625 C78.9884375 104.90625 78.3284375 104.90625 77.6484375 104.90625 Z " fill="#000000" transform="translate(372.3515625,225.09375)"/>
<path d="M0 0 C7.77578884 5.41699575 13.27037229 12.56566703 15 22 C15.99141526 32.61576952 14.20892724 41.50551421 7.375 49.875 C1.42576447 56.07999706 -5.78679286 59.45699702 -14.32421875 60.203125 C-24.37511925 60.4024817 -32.62257994 58.01251541 -40 51 C-47.07070222 43.40019761 -49.67672732 35.37542795 -49.3359375 25.046875 C-48.21773164 14.90500787 -43.58628466 7.70184096 -36 1 C-25.43767546 -6.01679908 -10.92474169 -6.44084771 0 0 Z M-30.375 19.6875 C-32.75259619 24.53413839 -33.04898483 28.83442449 -31.33984375 33.9921875 C-29.05496569 38.60150862 -25.86172336 41.33001779 -21 43 C-15.9506371 43.96415 -11.84020185 43.13268931 -7.54296875 40.3203125 C-4.12090518 37.3920657 -2.37046127 34.19221412 -1.62109375 29.7578125 C-1.34029131 24.37727544 -2.34578722 21.13503025 -6 17 C-10.35061345 13.06373068 -13.91777006 12.36116081 -19.6015625 12.6171875 C-24.56029164 13.4086459 -27.15743681 16.04657323 -30.375 19.6875 Z " fill="#000000" transform="translate(393,285)"/>
</svg>
