<?xml version="1.0" standalone="no"?>
<!DOCTYPE svg PUBLIC "-//W3C//DTD SVG 20010904//EN"
 "http://www.w3.org/TR/2001/REC-SVG-20010904/DTD/svg10.dtd">
<svg version="1.0" xmlns="http://www.w3.org/2000/svg"
 width="1049.000000pt" height="998.000000pt" viewBox="0 0 1049.000000 998.000000"
 preserveAspectRatio="xMidYMid meet">

<g transform="translate(0.000000,998.000000) scale(0.100000,-0.100000)"
fill="#000000" stroke="none">
<path d="M1930 7362 c0 -1739 3 -2646 10 -2702 51 -420 272 -867 649 -1315
100 -119 388 -412 526 -535 527 -470 1203 -931 1953 -1329 l192 -103 157 83
c1098 574 2099 1353 2615 2035 323 427 492 822 528 1234 6 73 10 1059 10 2683
l0 2567 -3320 0 -3320 0 0 -2618z m6210 488 l0 -1730 -600 0 -600 0 -1 238
c-1 130 -4 435 -8 678 l-6 441 -28 36 c-16 21 -46 46 -68 58 -40 20 -52 20
-1577 21 -1410 0 -1540 -1 -1577 -16 -50 -21 -72 -42 -97 -89 -18 -37 -19 -66
-21 -703 l-2 -664 -597 0 -597 0 -3 913 c-2 501 -2 1280 0 1730 l3 817 2889 0
2890 0 0 -1730z m-3890 -575 c33 -17 36 -24 17 -49 -12 -16 -15 -16 -51 -1
-79 33 -136 -9 -136 -100 0 -91 66 -138 141 -101 30 15 34 15 48 1 15 -15 13
-19 -12 -41 -39 -33 -129 -34 -178 -1 -97 64 -90 235 11 288 42 23 120 25 160
4z m300 -6 c77 -43 104 -152 57 -233 -28 -50 -77 -76 -142 -76 -98 0 -165 66
-165 164 0 130 136 209 250 145z m204 -1 c8 -13 35 -60 59 -106 l44 -83 25 43
c14 24 40 71 57 106 30 60 34 63 64 60 l32 -3 3 -162 2 -163 -30 0 -30 0 0
113 -1 112 -47 -87 c-69 -128 -80 -128 -150 7 l-37 70 -3 -107 -3 -108 -29 0
-30 0 0 165 0 165 30 0 c20 0 34 -7 44 -22z m558 -17 c27 -30 30 -39 25 -80
-7 -60 -38 -87 -112 -96 l-55 -7 0 -54 0 -54 -35 0 -35 0 0 158 c0 87 3 162 8
166 4 4 44 6 90 4 81 -3 85 -4 114 -37z m128 -66 c0 -57 5 -115 11 -129 25
-54 103 -54 128 1 6 13 11 71 11 128 l0 105 31 0 31 0 -4 -131 -3 -131 -37
-34 c-33 -30 -44 -34 -93 -34 -49 0 -60 4 -93 34 l-37 34 -3 131 -4 131 31 0
31 0 0 -105z m505 75 c0 -23 -4 -25 -47 -28 l-48 -3 0 -135 0 -134 -35 0 -35
0 0 135 0 135 -45 0 c-43 0 -45 1 -45 30 l0 31 128 -3 127 -3 0 -25z m245 5
c0 -24 -2 -25 -70 -25 l-70 0 0 -45 0 -45 55 0 c52 0 55 -1 55 -25 0 -24 -3
-25 -55 -25 l-55 0 0 -45 0 -45 70 0 c68 0 70 -1 70 -25 l0 -25 -105 0 -105 0
0 158 c0 87 3 162 7 165 3 4 51 7 105 7 98 0 98 0 98 -25z m225 11 c63 -27 75
-97 25 -147 l-30 -30 45 -67 45 -67 -31 -3 c-36 -4 -47 5 -92 74 -18 27 -40
50 -50 52 -15 3 -17 -5 -17 -62 l0 -66 -35 0 -35 0 0 158 c0 87 3 162 7 165
12 13 133 7 168 -7z m-2165 -476 c45 -23 47 -29 21 -61 -19 -23 -19 -23 -55
-6 -48 22 -81 22 -106 -3 -40 -40 -17 -69 77 -101 75 -25 104 -54 110 -111 5
-50 -18 -101 -59 -131 -53 -39 -163 -32 -222 14 -24 19 -25 21 -10 45 20 29
34 30 76 4 18 -11 46 -20 61 -20 29 0 77 39 77 63 0 20 -41 55 -75 63 -115 27
-163 105 -117 193 34 68 141 92 222 51z m408 0 c51 -23 62 -45 35 -72 -20 -19
-21 -19 -54 -2 -43 22 -110 22 -143 1 -45 -30 -61 -65 -61 -137 0 -57 4 -72
28 -103 43 -57 127 -68 194 -26 20 12 25 11 45 -8 19 -19 20 -24 7 -39 -24
-29 -91 -54 -147 -54 -90 0 -154 37 -195 115 -31 57 -30 174 1 232 22 43 68
84 112 102 42 17 131 12 178 -9z m207 -210 l0 -225 -42 -3 -43 -3 0 231 0 231
43 -3 42 -3 0 -225z m383 193 l3 -33 -100 0 -101 0 0 -60 0 -59 78 -3 77 -3 3
-32 3 -33 -80 0 -81 0 0 -60 0 -59 98 -3 97 -3 0 -35 0 -35 -140 0 -140 0 -3
215 c-1 118 0 220 3 228 3 10 36 12 142 10 l138 -3 3 -32z m249 -114 l118
-152 5 149 5 149 35 0 35 0 3 -223 c2 -195 0 -223 -13 -229 -32 -12 -65 18
-172 156 -59 77 -111 140 -115 141 -5 0 -8 -67 -8 -150 l0 -150 -35 0 -35 0 0
230 0 230 29 0 c26 0 43 -18 148 -151z m593 129 c52 -27 57 -37 31 -69 l-19
-24 -34 19 c-41 25 -114 26 -150 2 -82 -53 -77 -217 7 -272 34 -22 106 -22
139 -1 33 22 49 21 71 -3 22 -25 11 -40 -49 -69 -109 -53 -246 -5 -297 104
-23 50 -25 152 -3 203 48 115 192 167 304 110z m398 -15 l3 -33 -100 0 -101 0
0 -60 0 -59 78 -3 77 -3 3 -32 3 -33 -80 0 -81 0 0 -60 0 -59 98 -3 97 -3 0
-35 0 -35 -140 0 -140 0 -3 215 c-1 118 0 220 3 228 3 10 36 12 142 10 l138
-3 3 -32z m-1977 -607 c97 -45 105 -69 45 -125 l-25 -24 -48 29 c-42 25 -58
29 -125 29 -69 0 -80 -3 -119 -30 -26 -18 -53 -50 -68 -80 -22 -42 -26 -63
-26 -140 0 -81 3 -95 29 -143 43 -76 97 -107 192 -107 62 0 77 4 123 32 l52
33 37 -35 37 -34 -34 -35 c-56 -58 -120 -80 -231 -81 -82 0 -103 4 -151 27
-72 33 -134 95 -168 167 -24 51 -26 67 -26 176 0 111 2 124 28 177 39 79 121
152 200 178 87 28 202 23 278 -14z m329 -281 l0 -305 145 0 145 0 0 -60 0 -60
-215 0 -215 0 0 365 0 365 70 0 70 0 0 -305z m492 58 c3 -239 4 -250 26 -289
31 -53 72 -77 136 -78 68 -1 114 26 144 84 21 42 22 55 22 287 l0 243 70 0 70
0 0 -243 c0 -272 -7 -315 -63 -389 -20 -27 -55 -54 -92 -73 -52 -27 -68 -30
-144 -30 -98 1 -163 24 -219 78 -77 74 -92 144 -92 439 l0 218 69 0 69 0 4
-247z m996 232 c93 -28 142 -89 142 -178 0 -52 -30 -102 -77 -132 -18 -11 -32
-22 -32 -25 0 -3 19 -14 42 -25 23 -11 52 -36 65 -55 20 -29 23 -45 20 -96 -5
-80 -36 -129 -109 -169 -54 -30 -55 -30 -241 -33 l-188 -4 0 366 0 366 163 0
c117 0 178 -4 215 -15z m-3433 -348 c80 -45 118 -143 118 -298 -1 -154 -42
-257 -118 -293 -113 -54 -224 -11 -275 106 -49 112 -36 338 25 429 49 75 169
102 250 56z m4182 12 c98 -37 153 -174 140 -354 -14 -191 -104 -291 -245 -270
l-44 7 7 36 c4 20 8 38 9 39 1 2 17 -3 35 -10 27 -10 37 -9 68 8 56 31 76 79
81 199 6 135 -10 210 -53 253 -35 35 -77 43 -116 23 -17 -10 -19 -7 -19 28 0
21 3 42 7 45 10 11 99 8 130 -4z m-3515 -309 l3 -310 -112 0 -113 0 0 40 0 40
65 0 65 0 0 231 c0 215 -1 230 -17 225 -10 -2 -34 -7 -53 -11 -19 -4 -43 -9
-52 -11 -15 -5 -18 1 -18 35 0 34 4 41 23 46 83 19 108 23 154 24 l52 1 3
-310z m4198 40 l0 -270 71 0 70 0 -3 -37 -3 -38 -175 0 -175 0 -3 38 -3 37 70
0 71 0 0 230 c0 127 -3 230 -7 230 -7 0 -57 -11 -120 -25 -21 -5 -23 -2 -23
35 0 33 4 41 23 45 83 19 108 23 155 24 l52 1 0 -270z m-4169 -746 c81 -41
123 -142 122 -299 0 -121 -21 -200 -66 -251 -39 -46 -82 -64 -147 -64 -144 0
-219 125 -207 345 8 143 33 209 98 258 51 37 139 42 200 11z m2806 -1 c68 -32
110 -120 120 -253 7 -88 -9 -196 -37 -249 -38 -74 -96 -111 -175 -111 -109 0
-179 71 -204 205 -30 159 10 339 87 393 60 43 139 49 209 15z m1405 1 c35 -18
73 -68 95 -125 12 -33 17 -77 17 -174 1 -128 0 -132 -32 -198 -41 -83 -90
-117 -171 -117 -147 0 -216 105 -214 325 0 88 5 121 23 168 26 70 74 121 127
135 45 12 116 6 155 -14z m-4942 -264 l0 -270 65 0 65 0 0 -35 0 -35 -175 0
-175 0 0 35 0 35 65 0 65 0 0 231 0 232 -32 -7 c-18 -4 -52 -10 -76 -13 l-43
-6 3 39 c3 38 4 39 53 51 28 6 80 12 118 12 l67 1 0 -270z m1400 0 l0 -270 65
0 65 0 0 -35 0 -35 -175 0 -175 0 0 35 0 35 65 0 65 0 0 231 0 232 -32 -7
c-18 -4 -50 -9 -70 -13 l-38 -6 0 40 0 40 53 10 c28 6 80 11 115 12 l62 1 0
-270z m2802 3 l3 -268 68 -3 67 -3 0 -34 0 -35 -180 0 -180 0 0 35 0 34 68 3
67 3 3 229 2 229 -37 -7 c-21 -3 -55 -9 -75 -12 l-38 -7 0 40 0 40 53 10 c28
6 80 11 114 12 l63 1 2 -267z m-1536 -495 c-3 -13 -68 -239 -145 -503 l-138
-480 -147 -3 c-80 -1 -146 0 -146 2 0 5 276 968 285 994 3 9 43 12 151 12
l146 0 -6 -22z m-698 -214 l-3 -116 -167 -71 c-92 -39 -164 -74 -160 -78 4 -4
79 -41 167 -82 l160 -74 3 -117 c1 -64 0 -116 -4 -116 -4 0 -160 69 -346 152
l-339 153 3 89 3 89 335 142 c184 79 339 144 343 144 4 1 6 -51 5 -115z m1224
-44 l303 -128 3 -89 3 -88 -328 -147 c-181 -81 -336 -150 -345 -154 -17 -6
-18 4 -18 110 l0 117 118 56 c64 30 142 66 171 80 l55 24 -170 74 -169 74 -3
115 -3 116 40 -16 c22 -8 176 -73 343 -144z m-3167 11 c22 -10 48 -27 57 -37
30 -34 59 -113 65 -172 l4 -57 -41 45 c-22 25 -50 63 -62 85 -11 22 -43 61
-69 87 -27 26 -49 52 -49 57 0 17 51 12 95 -8z m4192 8 c98 -37 153 -174 140
-354 -15 -207 -118 -306 -272 -264 -98 27 -150 135 -150 309 1 170 39 260 130
301 45 21 110 24 152 8z m-3517 -269 l0 -270 65 0 65 0 0 -40 0 -40 -172 2
-173 3 -3 38 -3 37 65 0 66 0 0 231 c0 215 -1 230 -17 225 -10 -2 -34 -7 -53
-11 -19 -4 -43 -9 -52 -11 -15 -5 -18 1 -18 35 0 34 4 41 23 46 83 19 108 23
155 24 l52 1 0 -270z m4118 226 c-24 -33 -42 -46 -68 -51 -19 -3 -45 -9 -57
-12 -21 -5 -23 -2 -23 35 l0 41 58 11 c31 6 62 13 67 15 6 2 20 4 33 4 22 1
22 0 -10 -43z m-2671 -981 c76 -50 106 -130 107 -285 1 -132 -17 -200 -67
-256 -42 -48 -77 -64 -142 -64 -133 0 -201 89 -212 275 -9 151 25 270 92 321
58 44 161 48 222 9z m1417 -9 c17 -13 42 -47 56 -75 l24 -52 -30 -24 c-16 -13
-34 -24 -39 -25 -6 0 -16 21 -23 46 -18 65 -50 94 -107 94 -82 0 -115 -60
-123 -218 l-5 -103 -36 -25 -36 -24 -6 27 c-11 48 -9 156 4 219 16 76 59 149
100 171 70 37 165 32 221 -11z m-2164 -141 l0 -166 -45 31 -45 31 0 96 0 96
-32 -7 c-18 -4 -50 -9 -70 -13 l-38 -6 0 40 0 40 53 10 c28 6 80 11 115 12
l62 1 0 -165z m1400 -105 l0 -270 70 0 70 0 0 -35 0 -35 -180 0 -180 0 0 35 0
35 65 0 65 0 0 231 0 232 -32 -7 c-18 -4 -50 -9 -70 -13 l-38 -6 0 40 0 40 53
10 c28 6 80 11 115 12 l62 1 0 -270z"/>
<path d="M4423 7230 c-52 -22 -74 -121 -39 -175 32 -49 113 -57 151 -15 37 41
36 134 -2 172 -23 22 -79 32 -110 18z"/>
<path d="M5170 7185 l0 -55 38 0 c47 0 62 14 62 57 0 37 -21 53 -69 53 -31 0
-31 0 -31 -55z"/>
<path d="M6310 7184 l0 -56 32 6 c38 8 68 33 68 57 0 24 -37 49 -72 49 -27 0
-28 -1 -28 -56z"/>
<path d="M6090 5989 l0 -101 96 4 c91 3 97 5 120 31 40 47 28 133 -23 156 -13
6 -62 11 -108 11 l-85 0 0 -101z"/>
<path d="M6090 5685 l0 -105 85 0 c132 0 175 26 175 105 0 79 -43 105 -175
105 l-85 0 0 -105z"/>
<path d="M2752 5777 c-45 -21 -66 -81 -70 -201 -7 -170 25 -263 94 -280 40
-10 91 11 113 47 44 71 52 274 15 368 -28 70 -90 97 -152 66z"/>
<path d="M3461 4772 c-62 -31 -76 -76 -76 -237 0 -117 3 -146 19 -175 25 -48
55 -70 97 -70 74 0 115 65 126 199 6 87 -10 200 -34 242 -29 49 -84 66 -132
41z"/>
<path d="M6262 4775 c-23 -10 -39 -28 -55 -62 -19 -42 -22 -65 -22 -178 0
-115 3 -135 23 -176 50 -102 165 -91 204 19 8 23 13 85 13 162 0 108 -3 132
-22 173 -17 35 -31 51 -57 62 -42 18 -42 18 -84 0z"/>
<path d="M7671 4777 c-55 -19 -81 -81 -88 -204 -10 -180 36 -283 126 -283 86
0 126 92 119 274 -3 80 -10 122 -23 149 -29 61 -77 84 -134 64z"/>
<path d="M6947 3760 c-45 -36 -62 -100 -62 -235 0 -101 4 -127 22 -167 55
-119 183 -94 212 42 14 66 14 195 0 262 -22 100 -107 149 -172 98z"/>
<path d="M4835 2746 c-35 -35 -55 -116 -55 -221 0 -165 41 -245 125 -245 32 0
48 6 68 26 41 41 52 87 52 219 0 132 -11 178 -52 219 -35 36 -103 37 -138 2z"/>
<path d="M950 2875 c-44 -289 -67 -415 -76 -415 -7 0 -205 54 -440 120 -236
65 -429 118 -430 117 -3 -3 1138 -1828 1141 -1825 2 2 -26 293 -61 648 -35
355 -63 661 -63 680 -1 35 2 37 225 184 124 83 227 153 230 158 4 7 -452 748
-460 748 -1 0 -31 -187 -66 -415z"/>
<path d="M9265 2952 c-115 -184 -220 -352 -232 -372 l-22 -37 235 -157 236
-157 -6 -42 c-12 -89 -137 -1309 -134 -1312 2 -2 261 406 576 907 315 501 571
912 570 914 -2 1 -194 -52 -427 -117 -233 -66 -429 -118 -435 -116 -6 3 -39
178 -75 398 -35 217 -67 402 -70 411 -4 11 -71 -87 -216 -320z"/>
<path d="M1855 2569 c-269 -176 -496 -324 -504 -328 -18 -11 29 -92 156 -270
248 -348 585 -701 937 -981 961 -764 2134 -1097 3366 -954 757 87 1512 389
2131 851 351 262 643 542 915 878 148 183 337 457 323 469 -4 4 -1006 638
-1025 649 -6 4 -39 -30 -76 -81 -148 -198 -388 -450 -608 -637 -1019 -871
-2232 -1102 -3380 -645 -368 147 -746 380 -1089 674 -203 173 -477 462 -601
633 -25 34 -47 62 -50 62 -3 0 -225 -144 -495 -320z m6550 -105 l25 -16 -55
-78 -54 -77 45 -33 c26 -18 49 -29 53 -23 76 111 80 114 114 88 18 -13 17 -17
-24 -74 -23 -33 -41 -62 -38 -64 2 -1 21 -15 41 -30 20 -15 40 -27 45 -27 4 0
30 32 56 70 26 39 54 70 61 70 7 0 20 -8 29 -18 16 -17 13 -25 -58 -125 -42
-59 -77 -107 -80 -107 -5 0 -317 219 -333 234 -10 10 3 34 63 119 42 59 78
107 81 107 2 0 16 -7 29 -16z m-6215 -66 c0 -4 -63 -51 -140 -104 -77 -54
-140 -102 -140 -106 0 -5 18 -36 40 -68 22 -32 40 -62 40 -66 0 -9 -32 -33
-46 -34 -6 0 -42 45 -80 101 -55 81 -66 102 -54 109 8 5 87 59 175 120 l160
111 22 -28 c13 -15 23 -31 23 -35z m211 -272 l83 -98 -23 -19 c-13 -11 -26
-19 -30 -18 -3 0 -30 29 -60 65 -29 35 -57 64 -62 64 -5 0 -26 -15 -46 -34
l-37 -33 47 -55 47 -55 -24 -22 -23 -22 -47 56 c-26 30 -51 55 -54 55 -4 0
-24 -16 -45 -36 l-38 -35 60 -71 59 -72 -23 -18 c-13 -10 -25 -18 -28 -18 -8
0 -167 188 -167 198 0 12 311 273 321 270 4 -2 44 -47 90 -102z m5880 13 c121
-37 189 -185 133 -291 -18 -35 -133 -176 -144 -177 -5 -1 -176 148 -278 241
l-43 39 73 81 c100 111 161 136 259 107z m-5716 -489 l-89 -210 -30 30 -30 30
21 49 20 49 -61 60 -61 61 -35 -19 c-47 -26 -72 -25 -100 5 l-23 25 69 31 c38
18 132 60 209 95 l140 62 29 -28 30 -29 -89 -211z m5433 171 c149 -77 176
-258 53 -362 -72 -62 -145 -73 -227 -35 -77 36 -134 122 -134 204 0 77 72 175
150 205 35 13 122 6 158 -12z m-5137 -146 c75 -61 101 -100 101 -152 0 -66
-61 -118 -132 -111 l-37 3 -6 -104 c-3 -57 -9 -106 -12 -109 -3 -3 -19 8 -36
24 l-31 29 6 96 c6 85 5 97 -12 112 -18 17 -21 15 -66 -43 -26 -33 -53 -60
-60 -60 -7 0 -22 11 -35 23 l-21 24 127 161 c71 89 132 161 137 161 5 1 40
-24 77 -54z m4777 -107 c-3 -29 -7 -33 -39 -39 -81 -13 -130 -82 -110 -154 22
-80 101 -143 163 -131 43 9 88 44 104 82 11 26 20 34 39 34 36 0 41 -25 17
-76 -25 -50 -86 -99 -144 -115 -140 -37 -294 123 -258 270 21 88 108 161 193
161 37 0 38 -1 35 -32z m-4541 -80 c6 -7 16 -74 22 -148 6 -74 14 -152 17
-174 l6 -38 70 108 c38 60 74 113 78 118 5 5 21 1 39 -10 l30 -19 -110 -170
c-61 -94 -114 -174 -120 -179 -5 -6 -18 -1 -32 12 -22 21 -25 37 -37 175 -7
84 -16 160 -20 171 -5 14 -23 -7 -80 -97 l-74 -116 -28 17 c-15 9 -28 21 -28
26 0 5 50 87 111 182 116 180 122 185 156 142z m3603 -414 c6 -14 10 -27 10
-29 0 -1 -35 -15 -77 -31 -43 -15 -82 -31 -87 -35 -4 -4 -1 -29 8 -57 l17 -49
66 24 c69 25 81 23 85 -16 3 -21 -4 -26 -57 -44 -33 -11 -62 -21 -64 -23 -3
-3 3 -28 12 -58 l17 -53 86 30 c87 31 96 30 108 -9 6 -20 -3 -25 -109 -63 -64
-22 -122 -41 -129 -41 -12 0 -146 356 -146 386 0 10 208 92 238 93 7 1 17 -11
22 -25z m-2519 -85 c43 -15 99 -56 99 -73 0 -7 -9 -21 -20 -31 -20 -18 -21
-18 -43 2 -51 47 -93 55 -122 23 -23 -26 -10 -54 41 -89 49 -34 94 -88 94
-113 0 -36 -38 -102 -69 -121 -61 -36 -150 -16 -209 45 l-32 34 25 24 24 23
41 -37 c50 -45 100 -50 126 -11 15 23 15 27 0 50 -9 13 -29 31 -45 39 -15 8
-43 32 -61 52 -28 32 -31 43 -27 76 7 51 31 86 70 103 40 18 64 18 108 4z
m2193 -18 c21 -9 23 -14 17 -38 -7 -27 -10 -28 -64 -25 -46 3 -59 0 -76 -17
-46 -46 -17 -76 80 -86 94 -10 130 -38 136 -111 3 -38 -1 -57 -17 -82 -37 -59
-133 -87 -209 -61 -32 11 -38 27 -21 58 8 16 15 17 53 8 56 -12 92 -4 113 27
31 49 -15 86 -105 86 -57 0 -96 26 -117 77 -17 40 -5 100 24 126 45 41 131 58
186 38z m-298 -88 c4 -21 22 -114 40 -208 18 -93 32 -171 30 -172 -2 -2 -20
-4 -42 -6 l-38 -2 -38 190 c-20 105 -37 198 -38 207 0 15 18 23 62 27 12 1 19
-10 24 -36z m-1490 8 c86 -39 135 -142 114 -237 -26 -115 -96 -174 -207 -174
-195 1 -292 212 -165 361 20 23 50 48 66 55 45 19 143 17 192 -5z m1197 -53
c3 -18 14 -97 24 -175 l17 -143 56 7 c105 14 115 12 118 -23 l3 -31 -122 -16
c-68 -9 -124 -15 -125 -14 -4 3 -54 382 -54 405 0 19 6 22 39 22 36 0 39 -2
44 -32z m-734 -7 c53 -27 57 -38 30 -67 l-22 -24 -35 22 c-42 26 -107 28 -144
4 -33 -21 -58 -82 -58 -140 0 -59 33 -107 88 -126 38 -13 47 -13 90 2 45 17
48 17 66 -1 23 -24 15 -38 -38 -62 -119 -54 -259 16 -285 142 -41 195 135 338
308 250z m556 -191 l93 -205 -30 -3 c-45 -5 -57 3 -78 54 l-20 46 -83 -7 c-45
-4 -85 -9 -88 -11 -4 -2 -10 -19 -13 -39 -9 -45 -30 -65 -71 -65 l-34 0 70
208 c38 114 71 213 74 220 3 9 19 12 46 10 l42 -3 92 -205z m-377 -12 l-3
-213 -40 3 c-22 2 -40 5 -41 5 0 1 1 95 4 210 l5 207 38 0 39 0 -2 -212z"/>
<path d="M8142 2057 c-12 -7 -37 -30 -54 -52 l-32 -38 44 -40 c25 -22 73 -64
108 -95 l63 -55 30 29 c62 59 75 121 38 181 -44 71 -135 104 -197 70z"/>
<path d="M2475 1784 c-38 -19 -71 -38 -73 -42 -3 -10 76 -87 82 -81 12 11 75
159 68 158 -4 0 -38 -16 -77 -35z"/>
<path d="M7839 1749 c-93 -54 -91 -171 4 -240 64 -47 140 -34 186 30 50 69 1
185 -92 220 -40 15 -57 13 -98 -10z"/>
<path d="M2766 1583 c-20 -26 -35 -51 -33 -57 6 -19 55 -48 81 -48 35 0 66 29
66 62 0 25 -51 90 -71 90 -3 0 -23 -21 -43 -47z"/>
<path d="M4415 818 c-53 -41 -72 -145 -39 -209 27 -53 114 -75 175 -43 60 30
89 152 52 215 -35 58 -136 78 -188 37z"/>
<path d="M5453 692 c-41 -129 -44 -116 23 -107 33 4 60 8 62 10 2 1 -12 39
-31 84 l-33 81 -21 -68z"/>
<path d="M1220 2043 c0 -56 70 -959 78 -994 l7 -37 228 180 227 179 -47 62
c-436 567 -493 638 -493 610z"/>
<path d="M9015 1725 c-146 -190 -265 -350 -263 -355 2 -5 104 -88 228 -186
l225 -176 41 528 c23 291 40 530 39 532 -2 2 -123 -153 -270 -343z"/>
</g>
</svg>
