<svg xmlns="http://www.w3.org/2000/svg" xmlns:xlink="http://www.w3.org/1999/xlink" version="1.1" x="0px" y="0px" viewBox="0 0 100 125" style="enable-background:new 0 0 100 100;" xml:space="preserve"><g><path d="M50.0000839,0C29.6696358,0.5225254,12.7150612,5.004581,9.3526087,5.9479098v46.6561852   c2.7787943,17.7212982,13.7448702,29.6848755,22.4613037,36.6064377C40.3267365,95.9692307,48.3781662,99.3553772,50.0000839,100   c1.6252289-0.6479416,9.7139359-4.0511475,18.2267609-10.8234329c8.6995316-6.9147644,19.6452332-18.8748627,22.4205475-36.5724716   V5.9479098C87.284935,5.004581,70.3305283,0.5225254,50.0000839,0z M85.557991,52.1291161   c0,0.0440712-0.0033188,0.0916176-0.013588,0.139164c-2.0934143,12.6080399-8.8893967,23.6079102-20.1980743,32.6976013   c-6.0869102,4.8927536-12.0041695,7.9463959-14.9900551,9.330574c-0.1119919,0.0510254-0.2340927,0.0781937-0.3561897,0.0781937   c-0.1222649,0-0.2443657-0.0271683-0.3563576-0.0781937c-2.9857178-1.3841782-8.9029808-4.4378204-14.9898872-9.330574   C23.3451576,75.8761902,16.5490131,64.8763199,14.4555979,52.26828c-0.0101061-0.0475464-0.0135851-0.0916138-0.0135851-0.139164   V10.5520649c0-0.3934679,0.271534-0.7327623,0.6515827-0.824544c6.5380287-1.5573044,19.7638531-4.2342114,34.8826294-4.6346378   h0.0475464c15.1156311,0.4004264,28.3446045,3.0773335,34.8827972,4.6346378   c0.3800507,0.0917816,0.6514206,0.431076,0.6514206,0.824544V52.1291161z"/><path d="M16.1384811,11.2238588v40.8340225c2.0357609,12.1569176,8.6249828,22.783535,19.5773087,31.5847893   c5.7136497,4.5907364,11.2714043,7.525589,14.2842941,8.9472122c3.012886-1.4216232,8.5704765-4.3564758,14.2842941-8.9472122   C75.236702,74.8414154,81.8257599,64.214798,83.8615189,52.0578804V11.2238588   c-6.6738815-1.5573044-19.3940735-4.0476665-33.8614349-4.4345074   C35.5292435,7.1761923,22.8125248,9.6665545,16.1384811,11.2238588z"/></g><text x="0" y="115" fill="#000000" font-size="5px" font-weight="bold" font-family="'Helvetica Neue', Helvetica, Arial-Unicode, Arial, Sans-serif">Created by ABDUL LATIF</text><text x="0" y="120" fill="#000000" font-size="5px" font-weight="bold" font-family="'Helvetica Neue', Helvetica, Arial-Unicode, Arial, Sans-serif">from the Noun Project</text></svg>