<svg xmlns="http://www.w3.org/2000/svg" xmlns:xlink="http://www.w3.org/1999/xlink" version="1.1" x="0px" y="0px" viewBox="0 0 100 125" enable-background="new 0 0 100 100" xml:space="preserve"><path fill="#000000" d="M97.786,8.498H2.214c-0.579,0-1.049,0.469-1.049,1.049v62.028v4.415c0,0.58,0.47,1.049,1.049,1.049h36.807  l-4.052,7.123H20.633c-0.277,0-0.545,0.111-0.741,0.308l-5.244,5.244c-0.3,0.3-0.391,0.75-0.228,1.143  c0.162,0.392,0.545,0.647,0.969,0.647h69.224c0.003,0,0.007,0,0.011,0c0.579,0,1.049-0.469,1.049-1.049  c0-0.335-0.157-0.633-0.4-0.824l-5.162-5.161c-0.197-0.197-0.464-0.308-0.742-0.308H65.032l-4.052-7.123h36.806  c0.58,0,1.049-0.469,1.049-1.049v-4.415V9.546C98.835,8.967,98.366,8.498,97.786,8.498z M96.737,10.595v59.93H3.263v-59.93H96.737z"/><text x="0" y="115" fill="#000000" font-size="5px" font-weight="bold" font-family="'Helvetica Neue', Helvetica, Arial-Unicode, Arial, Sans-serif">Created by Tanuj Abraham</text><text x="0" y="120" fill="#000000" font-size="5px" font-weight="bold" font-family="'Helvetica Neue', Helvetica, Arial-Unicode, Arial, Sans-serif">from the Noun Project</text></svg>