<svg xmlns="http://www.w3.org/2000/svg" data-name="Layer 1" viewBox="0 0 95 118.75" x="0px" y="0px"><defs><style>.cls-1{fill-rule:evenodd;}</style></defs><title>a</title><path class="cls-1" d="M28.1,25.957c.409,6,5.567,14.191,19.4,23.248,13.833-9.057,18.99-17.249,19.4-23.248a8.715,8.715,0,0,0-7.1-9.534c-3.792-.785-8.333.569-11.676,4.757a.788.788,0,0,1-1.241.006c-3.344-4.193-7.887-5.548-11.681-4.763a8.713,8.713,0,0,0-7.1,9.534Zm14.557,48.6H27.627v4.232h15.03V74.557ZM29.043,72.974V71.786a5.586,5.586,0,0,0-1.557-3.922L16.634,56.334a3.967,3.967,0,0,1-1.127-2.807l-.2-27.647a6.021,6.021,0,0,1,.516-3.261.386.386,0,0,1,.3-.2,1.374,1.374,0,0,1,.7.322,8.949,8.949,0,0,1,2.562,3.873l2.024,16.576a2.88,2.88,0,0,0-1.408.428,2.175,2.175,0,0,0-.968,1.481,5.116,5.116,0,0,0,.686,3.114.8.8,0,0,0,.141.2L28.56,58.594a.789.789,0,1,0,1.2-1.026L21.1,47.428a3.59,3.59,0,0,1-.511-2.043.642.642,0,0,1,.276-.442,1.452,1.452,0,0,1,.77-.183,4.988,4.988,0,0,1,2.726.962L39.883,60.283a3.952,3.952,0,0,1,1.307,3.022v9.669Zm24.767,0V63.305a3.952,3.952,0,0,1,1.307-3.022L70.635,45.722a4.988,4.988,0,0,1,2.726-.962,1.452,1.452,0,0,1,.77.183.642.642,0,0,1,.276.442,3.59,3.59,0,0,1-.511,2.043L65.24,57.568a.789.789,0,0,0,1.2,1.026l8.692-10.181a.841.841,0,0,0,.141-.2,5.116,5.116,0,0,0,.686-3.114,2.175,2.175,0,0,0-.968-1.481,2.88,2.88,0,0,0-1.408-.428l2.024-16.576a8.949,8.949,0,0,1,2.562-3.873,1.371,1.371,0,0,1,.7-.322.383.383,0,0,1,.3.2,6.008,6.008,0,0,1,.517,3.261l-.2,27.647a3.967,3.967,0,0,1-1.127,2.807L67.514,67.864a5.586,5.586,0,0,0-1.557,3.922v1.188Zm13.563,1.583H52.342v4.232H67.373V74.557ZM47.5,28.79a2.156,2.156,0,1,1,1.524-.631,2.151,2.151,0,0,1-1.524.631Zm7.245,1.642a1.873,1.873,0,1,1,1.325-.549,1.867,1.867,0,0,1-1.325.549Zm-2.851,2.687A4.233,4.233,0,0,1,58.9,35.451H50.587a4.226,4.226,0,0,1,1.307-2.332ZM40.255,30.432a1.874,1.874,0,1,1,1.324-.549,1.867,1.867,0,0,1-1.324.549ZM37.4,33.119a4.233,4.233,0,0,1,7.009,2.332H36.1A4.224,4.224,0,0,1,37.4,33.119Zm6.65-1.272a4.76,4.76,0,0,1,6.894,0c-.04.034-.079.068-.117.1a5.806,5.806,0,0,0-1.575,2.393h-3.51A5.806,5.806,0,0,0,44.17,31.95c-.039-.035-.077-.069-.117-.1ZM34.47,35.719a5.813,5.813,0,0,1,3.319-4.739,3.456,3.456,0,1,1,5.184-.287,6.342,6.342,0,0,1,1.577-1.174q.181-.1.369-.18l-.063-.061a3.739,3.739,0,1,1,5.288,0l-.063.061q.188.084.369.18a6.342,6.342,0,0,1,1.577,1.174,3.457,3.457,0,1,1,5.184.287,5.819,5.819,0,0,1,3.319,4.739,1.2,1.2,0,0,1-.056.49,1.217,1.217,0,0,1-.256.43,1.184,1.184,0,0,1-.89.395H50.162a1.188,1.188,0,0,1-.89-.395,1.217,1.217,0,0,1-.256-.43,1.175,1.175,0,0,1-.057-.283H46.041a1.13,1.13,0,0,1-.058.283,1.235,1.235,0,0,1-.658.723,1.2,1.2,0,0,1-.487.1H35.672a1.184,1.184,0,0,1-.89-.395,1.217,1.217,0,0,1-.256-.43A1.2,1.2,0,0,1,34.47,35.719Z"/><text x="0" y="110" fill="#000000" font-size="5px" font-weight="bold" font-family="'Helvetica Neue', Helvetica, Arial-Unicode, Arial, Sans-serif">Created by dewi persik</text><text x="0" y="115" fill="#000000" font-size="5px" font-weight="bold" font-family="'Helvetica Neue', Helvetica, Arial-Unicode, Arial, Sans-serif">from the Noun Project</text></svg>