<svg xmlns="http://www.w3.org/2000/svg" xmlns:xlink="http://www.w3.org/1999/xlink" version="1.1" x="0px" y="0px" viewBox="0 0 58 72.5" style="enable-background:new 0 0 58 58;" xml:space="preserve"><g><path d="M33.358,30.796C34.459,32.14,36.131,33,38,33s3.541-0.86,4.642-2.204C40.403,30.985,38.506,31,38,31   S35.597,30.985,33.358,30.796z"/><path d="M38.035,21.002c1.029,0.879,2.071,1.841,3.097,2.866s1.988,2.068,2.866,3.097C43.979,23.685,41.315,21.021,38.035,21.002z"/><path d="M26.06,27.005c0.389,0.408,1.797,0.946,4.066,1.361C30.048,27.921,30,27.467,30,27c0-0.467,0.049-0.923,0.126-1.368   C27.489,26.113,26.365,26.714,26.06,27.005z"/><path d="M28.985,18.025c-0.079,0.193,0.041,1.618,2.233,4.752c0.647-1.035,1.521-1.91,2.556-2.557   C31.245,18.458,29.468,17.779,28.985,18.025z"/><path d="M32,27c0,0.585,0.088,1.148,0.245,1.683C33.88,28.876,35.807,29,38,29c1.825,0,3.462-0.087,4.905-0.227   c-0.904-1.091-1.957-2.26-3.187-3.491c-1.494-1.493-2.901-2.732-4.181-3.747C33.455,22.477,32,24.57,32,27z"/><path d="M42.223,33.782c3.131,2.19,4.561,2.306,4.791,2.193c0.219-0.461-0.468-2.227-2.232-4.752   C44.134,32.259,43.259,33.135,42.223,33.782z"/><path d="M18,24v1.586C18,26.917,16.917,28,15.586,28c-0.636,0-1.258-0.258-1.707-0.707L12,25.414V40h42V14H28v2.285   c1.101-0.641,2.864-0.22,5.371,1.284c0.802,0.481,1.653,1.065,2.527,1.72C36.569,19.106,37.272,19,38,19   c3.151,0,5.874,1.836,7.177,4.489C49.701,24.158,52,25.337,52,27c0,1.743-2.527,2.726-5.444,3.281   c0.315,0.46,0.613,0.912,0.875,1.348c1.703,2.841,2.022,4.73,0.976,5.777c-0.412,0.413-0.952,0.591-1.574,0.591   c-1.877,0-4.508-1.617-6.73-3.287C39.431,34.894,38.728,35,38,35c-3.151,0-5.874-1.836-7.178-4.49C27.372,30.013,24,29.014,24,27   c0-1.484,1.831-2.583,5.44-3.278c-0.55-0.799-1.059-1.62-1.47-2.421C27.816,22.812,26.551,24,25,24H18z M24,38H14v-2h10V38z M24,34   H14v-2h10V34z"/><path d="M49.94,27.005c-0.305-0.291-1.429-0.892-4.066-1.373C45.951,26.077,46,26.533,46,27c0,0.467-0.048,0.921-0.125,1.366   C48.143,27.951,49.552,27.413,49.94,27.005z"/><path d="M55,10H28v2h26c1.103,0,2,0.897,2,2v26c0,1.103-0.897,2-2,2H12c-1.103,0-2-0.897-2-2V24H8v21c0,1.654,1.346,3,3,3h44   c1.654,0,3-1.346,3-3V13C58,11.346,56.654,10,55,10z M47,46c-0.552,0-1-0.448-1-1c0-0.552,0.448-1,1-1s1,0.448,1,1   C48,45.552,47.552,46,47,46z M51,46c-0.552,0-1-0.448-1-1c0-0.552,0.448-1,1-1s1,0.448,1,1C52,45.552,51.552,46,51,46z M55,46   c-0.552,0-1-0.448-1-1c0-0.552,0.448-1,1-1s1,0.448,1,1C56,45.552,55.552,46,55,46z"/><rect x="24" y="50" width="18" height="4"/><path d="M15.293,25.879c0.238,0.238,0.708,0.045,0.707-0.293V22h9c0.552,0,1-0.448,1-1V1c0-0.552-0.448-1-1-1H1   C0.448,0,0,0.448,0,1v20c0,0.552,0.448,1,1,1h10.414L15.293,25.879z M9.819,18.679l-1.273,0.596l-3.82-3.82l0.596-1.273L4,13.701   V8.299l1.321-0.479L4.726,6.546l3.82-3.82l1.273,0.596L10.299,2h5.402l0.479,1.321l1.273-0.596l3.82,3.82l-0.596,1.273L22,8.299   v5.402l-1.321,0.479l0.596,1.273l-3.82,3.82l-1.273-0.596L15.701,20h-5.402L9.819,18.679z"/><rect x="20" y="56" width="26.001" height="2"/><path d="M17.03,16.868l1.838-1.838l-0.561-1.198l0.427-1.031l0.442-0.202l0.823-0.3V9.701l-1.246-0.453l-0.446-1.08l0.561-1.198   L17.03,5.132l-1.198,0.561l-1.031-0.427l-0.202-0.442L14.299,4h-2.598l-0.453,1.246l-1.08,0.446L8.97,5.132L7.132,6.97l0.561,1.198   L7.266,9.199L6.823,9.401L6,9.701v2.598l1.246,0.453l0.446,1.08L7.132,15.03l1.838,1.838l1.198-0.561l1.031,0.427l0.202,0.442   l0.3,0.823h2.598l0.453-1.246l1.08-0.446L17.03,16.868z M13,15c-2.209,0-4-1.791-4-4c0-2.209,1.791-4,4-4s4,1.791,4,4   C17,13.209,15.209,15,13,15z"/></g><text x="0" y="73" fill="#000000" font-size="5px" font-weight="bold" font-family="'Helvetica Neue', Helvetica, Arial-Unicode, Arial, Sans-serif">Created by Eucalyp</text><text x="0" y="78" fill="#000000" font-size="5px" font-weight="bold" font-family="'Helvetica Neue', Helvetica, Arial-Unicode, Arial, Sans-serif">from the Noun Project</text></svg>