<svg xmlns="http://www.w3.org/2000/svg" xmlns:xlink="http://www.w3.org/1999/xlink" version="1.1" x="0px" y="0px" viewBox="0 0 64 80" enable-background="new 0 0 64 64" xml:space="preserve"><path d="M54.1,2.3C53.4,2.1,52.7,2,52,2c-9.9,0-19.8,0-29.6,0C18.9,2,15.5,2,12,2C6.6,2,2.3,6.6,2,11.9c-0.3,4.6,2.4,9.1,6.8,10.6  c1.1,0.4,2.2,0.5,3.4,0.5c0.4,0,0.7,0.7,0.9,1.1c0.8,1.3,1.5,2.5,2.3,3.8c-5,2.8-5.1,10.3-0.4,13.4c-2.1,1.1-3.6,3.3-3.9,5.7  c-0.1,1.1-0.1,2.2-0.1,3.3c0,1.5,0,3.1,0,4.6c0,0.9-0.1,2.1,1.1,2.1c2.7,0,5.3,0,8,0c0.9,0,1.7,0,2.6,0c0,0,0,3.3,0,3.6  c0,1,0.6,1.4,1.5,1.4c1.1,0,2.1,0,3.2,0c3.1,0,6.3,0,9.4,0c1,0,2,0,3.1,0c1,0,1.4-0.5,1.4-1.6c0-0.3,0-3.4,0-3.4c0.9,0,1.8,0,2.8,0  c2.2,0,4.5,0,6.7,0c0.5,0,1,0.1,1.5,0c0.9-0.3,0.7-1.3,0.7-2.1c0-4.7,1.1-11-3.9-13.7c4.3-2.9,4.6-9.5,0.5-12.8  c-0.4-0.3,0-0.5,0.2-0.9c0.4-0.7,0.8-1.3,1.2-2c0.4-0.6,0.7-1.2,1.1-1.8c0.4-0.6,0.3-0.7,1.1-0.8c5.4-0.7,9.1-5.7,8.8-11  C61.8,7.4,58.6,3.3,54.1,2.3z M13.5,34.7c0-1.2,0.4-2.5,1.1-3.5c0.3-0.4,1.6-2,2-1.4c0.8,1.3,1.6,2.6,2.3,3.9c0.2,0.4,0.5,0.9,1,0.9  c0.8,0.1,1.1-0.6,1.1-1.3c0-1.3,0-2.6,0-4c0.9,0.4,1.7,1,2.2,1.8c0.2,0.3,0.7,0.8,0.5,1.3c-0.2,0.5-0.3,1-0.4,1.6  c-0.2,1.1-0.1,2.2,0.1,3.3c0.1,0.9-1.2,1.9-1.9,2.4C17.8,42,13.5,38.8,13.5,34.7z M24.9,30.1c-0.7-1-1.7-1.9-2.8-2.4  C22,27.6,21,27.3,21,27.2c0-0.3,0-0.5,0-0.8c0-0.3,0-3.4,0-3.4c1.7,0,3.3,0,5,0c5.7,0,11.4,0,17.1,0c0.3,0,0.9-0.2,0.9,0.2  c0,1.3,0,2.5,0,3.8c-2,0.3-3.8,1.5-4.9,3.1C35.7,25.1,28.3,25.1,24.9,30.1z M33.6,42.3c-3.6,0.9-7.1-1.4-8-4.8c-1.1-3.7,1-8,4.8-9  c3.5-0.9,7,1.4,8,4.8C39.5,37,37.5,41.3,33.6,42.3z M23.6,46.3c-0.9,1.6-0.9,3.2-0.9,5c0,0.8,0,1.5,0,2.3c0,0.2,0.1,1.2,0,1.4  c-0.1,0.1-0.6,0-0.7,0c-0.6,0-1.3,0-1.9,0c-2.4,0-4.7,0-7.1,0c0-2.3,0-4.7,0-7c0-1.9,0.9-3.8,2.6-4.8c1.3-0.8,2.7-0.7,4.1-0.7  c1.1,0,2.1,0.3,2.9,1c0.5,0.3,0.9,0.8,1.2,1.2c0.2,0.2,0.3,0.5,0.4,0.8C24,45.7,23.8,46,23.6,46.3z M22.9,41.3  c0.6-0.4,1.1-0.8,1.5-1.4c0.7,1.3,1.6,2.4,2.8,3.2c-0.5,0.2-1.1,0.5-1.5,0.9C25,42.8,24,41.9,22.9,41.3z M39.3,60  c-4.7,0-9.5,0-14.2,0c-0.1,0-0.3,0.1-0.3-0.1c0-0.6,0-1.3,0-1.9c0-0.9,0-1.8,0-2.7c0-3-0.7-7,1.6-9.3c1.9-1.9,4.5-1.5,6.9-1.5  c1.2,0,2.4,0.1,3.4,0.7c1.6,1,2.6,2.8,2.6,4.7C39.3,53.3,39.3,56.7,39.3,60z M38.3,43.9c-0.5-0.4-1-0.6-1.5-0.9  c1.2-0.8,2.1-1.9,2.8-3.2c0.4,0.5,1,1,1.5,1.4C40,41.9,39,42.8,38.3,43.9z M50.8,46.2c0.4,1.2,0.2,2.5,0.2,3.7c0,1.5,0,3,0,4.5  c0,0.9-0.2,0.6-1.1,0.6c-2.8,0-5.6,0-8.3,0c-0.2,0-0.3,0.1-0.3-0.2c0-0.7,0-1.3,0-2c0-1.4,0.1-2.8-0.1-4.2c-0.2-1.2-0.7-2.3-1.4-3.3  c0.5-1,1.3-1.9,2.3-2.4c1.2-0.6,2.5-0.5,3.8-0.5C48.2,42.5,50.1,44.1,50.8,46.2z M44.5,40.4c-1.2-0.1-2.3-0.7-3.2-1.6  c-0.6-0.6-0.9-1-0.8-1.8c0.1-0.8,0.2-1.6,0.1-2.4c0-0.6-0.2-1.2-0.3-1.7c-0.2-0.7-0.1-1,0.4-1.7c0.8-1.1,1.9-1.9,3.2-2.2  c0,0.9,0,1.8,0,2.8c0,0.8-0.3,2.5,0.7,2.8c1,0.3,1.6-1.3,2.1-2c0.5-0.8,1-1.7,1.5-2.5C52.5,33.3,50.2,41.1,44.5,40.4z M57.6,18.5  c-0.9,0.9-2,1.6-3.2,2.1c-0.6,0.2-1.2,0.3-1.8,0.4c-0.6,0-1.2,0-1.5,0.5c-0.5,0.7-0.9,1.5-1.3,2.2c-1.3,2.1-2.5,4.2-3.8,6.3  c0-2.4,0-4.7,0-7.1c0-0.9,0-1.9-1.1-1.9c-0.6,0-1.3,0-1.9,0c-5.9,0-11.9,0-17.8,0c-1.3,0-2.6,0-4,0c-0.8,0-2.2-0.2-2.2,1  c-0.2,1.4,0,2.9,0,4.3c0,1.2,0,2.4,0,3.7c-1.3-2.1-2.5-4.2-3.8-6.3c-0.4-0.7-0.8-1.6-1.3-2.2C13.5,20.8,12.6,21,12,21  c-1.1,0-2.3-0.3-3.3-0.7c-4.4-2.1-5.9-7.8-3.6-12C6.7,5.4,9.5,4,12.7,4c10.9,0,21.9,0,32.8,0c2.2,0,4.4,0,6.5,0  C59.3,4,62.4,13.5,57.6,18.5z"/><path d="M16,9.3c9.9,0,19.8,0,29.6,0c0.7,0,1.3,0,2,0c0.1,0,0.2,0,0.3,0c1,0,1.4-1.4,0.5-1.9c-0.4-0.2-0.9-0.1-1.3-0.1  c-0.8,0-1.7,0-2.5,0c-6.1,0-12.1,0-18.2,0c-2.7,0-5.4,0-8.1,0c-0.7,0-1.4,0-2.1,0c-0.1,0-0.2,0-0.3,0C14.7,7.3,14.7,9.3,16,9.3z"/><path d="M54,11.5c-9.6,0-19.3,0-28.9,0c-4.7,0-9.4,0-14.1,0c-0.3,0-0.7,0-1,0c-1.4,0-1.3,2,0,2c1.2,0,2.3,0,3.5,0  c11.7,0,23.4,0,35,0c1.4,0,2.9,0,4.3,0c0.3,0,0.6,0,0.9,0C55.2,13.5,55.4,11.5,54,11.5z"/><path d="M54,15.7c-9.6,0-19.3,0-28.9,0c-4.7,0-9.4,0-14.1,0c-0.3,0-0.7,0-1,0c-1.4,0-1.3,2,0,2c1.2,0,2.3,0,3.5,0  c11.7,0,23.4,0,35,0c1.4,0,2.9,0,4.3,0c0.3,0,0.6,0,0.9,0C55.2,17.7,55.4,15.7,54,15.7z"/><text x="0" y="79" fill="#000000" font-size="5px" font-weight="bold" font-family="'Helvetica Neue', Helvetica, Arial-Unicode, Arial, Sans-serif">Created by Akbar azis</text><text x="0" y="84" fill="#000000" font-size="5px" font-weight="bold" font-family="'Helvetica Neue', Helvetica, Arial-Unicode, Arial, Sans-serif">from the Noun Project</text></svg>