<svg xmlns="http://www.w3.org/2000/svg" data-name="Layer 1" viewBox="0 0 64 80" x="0px" y="0px"><title>x</title><path d="M60.84,4.5H3.09C1.86,4.5.86,4.51.86,5.74V50.65a2.24,2.24,0,0,0,2.23,2.24H23.16v3.89H20.45a2.73,2.73,0,0,0-2.74,2.72H46.78A2.81,2.81,0,0,0,44,56.78H40.91V52.89h20a2.24,2.24,0,0,0,2.23-2.24V6.81A2.3,2.3,0,0,0,60.84,4.5ZM32,52.43a2.37,2.37,0,1,1,2.38-2.35A2.38,2.38,0,0,1,32,52.43Zm26.11-8H5.89V9.55H58.11Z"/><path d="M35.83,14.78c-2.63-2.64-7.28-2.38-12.17.27-4.89-2.65-9.53-2.91-12.17-.27S9.12,22.06,11.76,27c-2.64,4.89-2.9,9.53-.27,12.16,3,3,7.76,2.06,12.16-.33,4.41,2.42,9.18,3.34,12.18.33,2.64-2.63,2.38-7.27-.27-12.16C38.21,22.06,38.47,17.41,35.83,14.78Zm-2.7,2.7c1,1,.95,3.13-.06,5.7a33.2,33.2,0,0,0-5.64-5.64C29.76,16.56,31.92,16.28,33.13,17.48ZM31.07,27A27.93,27.93,0,0,1,27.72,31a26.84,26.84,0,0,1-4.06,3.35A26.79,26.79,0,0,1,19.61,31,27.29,27.29,0,0,1,16.26,27a26.84,26.84,0,0,1,3.35-4.06,27.41,27.41,0,0,1,4-3.26,27.69,27.69,0,0,1,4.08,3.26A27.46,27.46,0,0,1,31.07,27ZM14.2,17.48c1.18-1.18,3.33-.88,5.65.09a35.11,35.11,0,0,0-3,2.62,32.7,32.7,0,0,0-2.64,3C13.25,20.6,13.21,18.47,14.2,17.48Zm0,18.93c-1-1-.95-3.12.06-5.7a31.42,31.42,0,0,0,2.64,3,30.34,30.34,0,0,0,3,2.64C17.34,37.36,15.19,37.4,14.2,36.41Zm18.93,0c-1,1-3.14,1-5.73-.07a31.48,31.48,0,0,0,5.67-5.63C34.08,33.29,34.12,35.42,33.13,36.41Z"/><path d="M23.66,24.72A2.23,2.23,0,0,0,21.43,27a2.19,2.19,0,0,0,.66,1.57,2.23,2.23,0,1,0,1.57-3.8Z"/><path d="M47.81,22.29h-5a1.7,1.7,0,1,1,0-3.39h5a1.7,1.7,0,1,1,0,3.39Z"/><path d="M49.75,28.66H42.82a1.7,1.7,0,1,1,0-3.39h6.93a1.7,1.7,0,1,1,0,3.39Z"/><path d="M52.66,35H42.82a1.7,1.7,0,1,1,0-3.39h9.84a1.7,1.7,0,1,1,0,3.39Z"/><text x="0" y="79" fill="#000000" font-size="5px" font-weight="bold" font-family="'Helvetica Neue', Helvetica, Arial-Unicode, Arial, Sans-serif">Created by Arafat Uddin</text><text x="0" y="84" fill="#000000" font-size="5px" font-weight="bold" font-family="'Helvetica Neue', Helvetica, Arial-Unicode, Arial, Sans-serif">from the Noun Project</text></svg>