<svg xmlns="http://www.w3.org/2000/svg" xmlns:xlink="http://www.w3.org/1999/xlink" xml:space="preserve" style="shape-rendering:geometricPrecision;text-rendering:geometricPrecision;image-rendering:optimizeQuality;" viewBox="0 0 173.397 216.74624999999997" x="0px" y="0px" fill-rule="evenodd" clip-rule="evenodd"><defs><style type="text/css">
   
    .fil1 {fill:none}
    .fil0 {fill:black;fill-rule:nonzero}
   
  </style></defs><g><g><path class="fil0" d="M42.8599 32.6604c-5.6232,0 -10.2002,4.5745 -10.2002,10.1978l0 87.6797c0,5.6245 4.577,10.199 10.2002,10.199l87.6798 0c5.6246,0 10.199,-4.5745 10.199,-10.199l0 -87.6797c0,-5.6233 -4.5744,-10.1978 -10.199,-10.1978l-87.6798 0zm87.6798 110.432l-87.6798 0c-6.9233,0 -12.5552,-5.6332 -12.5552,-12.5541l0 -87.6797c0,-6.9234 5.6319,-12.5529 12.5552,-12.5529l87.6798 0c6.9209,0 12.5541,5.6295 12.5541,12.5529l0 87.6797c0,6.9209 -5.6332,12.5541 -12.5541,12.5541z"/><path class="fil0" d="M45.9692 44.4134c-0.8578,0 -1.5577,0.6951 -1.5577,1.554l0 81.4588c0,0.8578 0.6999,1.5577 1.5577,1.5577l81.4589 0c0.8589,0 1.5576,-0.6999 1.5576,-1.5577l0 -81.4588c0,-0.8589 -0.6987,-1.554 -1.5576,-1.554l-81.4589 0zm81.4589 86.9256l-81.4589 0c-2.1554,0 -3.9115,-1.7537 -3.9115,-3.9128l0 -81.4588c0,-2.1554 1.7561,-3.9091 3.9115,-3.9091l81.4589 0c2.159,0 3.9127,1.7537 3.9127,3.9091l0 81.4588c0,2.1591 -1.7537,3.9128 -3.9127,3.9128z"/><path class="fil0" d="M53.5703 32.6604c-0.6518,0 -1.1768,-0.5274 -1.1768,-1.1781l0 -20.1441c0,-0.6507 0.525,-1.1782 1.1768,-1.1782 0.6508,0 1.1782,0.5275 1.1782,1.1782l0 20.1441c0,0.6507 -0.5274,1.1781 -1.1782,1.1781z"/><path class="fil0" d="M75.6579 32.6604c-0.6506,0 -1.1781,-0.5274 -1.1781,-1.1781l0 -20.1441c0,-0.6507 0.5275,-1.1782 1.1781,-1.1782 0.6495,0 1.1769,0.5275 1.1769,1.1782l0 20.1441c0,0.6507 -0.5274,1.1781 -1.1769,1.1781z"/><path class="fil0" d="M97.743 32.6604c-0.6494,0 -1.1768,-0.5274 -1.1768,-1.1781l0 -20.1441c0,-0.6507 0.5274,-1.1782 1.1768,-1.1782 0.6507,0 1.1782,0.5275 1.1782,1.1782l0 20.1441c0,0.6507 -0.5275,1.1781 -1.1782,1.1781z"/><path class="fil0" d="M119.829 32.6604c-0.6494,0 -1.1769,-0.5274 -1.1769,-1.1781l0 -20.1441c0,-0.6507 0.5275,-1.1782 1.1769,-1.1782 0.6508,0 1.1782,0.5275 1.1782,1.1782l0 20.1441c0,0.6507 -0.5274,1.1781 -1.1782,1.1781z"/><path class="fil0" d="M162.059 54.7467l-20.1416 0c-0.6507,0 -1.1782,-0.5275 -1.1782,-1.1781 0,-0.6495 0.5275,-1.1769 1.1782,-1.1769l20.1416 0c0.6532,0 1.177,0.5274 1.177,1.1769 0,0.6506 -0.5238,1.1781 -1.177,1.1781z"/><path class="fil0" d="M162.059 76.833l-20.1416 0c-0.6507,0 -1.1782,-0.5274 -1.1782,-1.1781 0,-0.6495 0.5275,-1.1769 1.1782,-1.1769l20.1416 0c0.6532,0 1.177,0.5274 1.177,1.1769 0,0.6507 -0.5238,1.1781 -1.177,1.1781z"/><path class="fil0" d="M162.059 98.9193l-20.1416 0c-0.6507,0 -1.1782,-0.5274 -1.1782,-1.1781 0,-0.6494 0.5275,-1.1769 1.1782,-1.1769l20.1416 0c0.6532,0 1.177,0.5275 1.177,1.1769 0,0.6507 -0.5238,1.1781 -1.177,1.1781z"/><path class="fil0" d="M162.059 121.006l-20.1416 0c-0.6507,0 -1.1782,-0.5275 -1.1782,-1.1782 0,-0.6494 0.5275,-1.1768 1.1782,-1.1768l20.1416 0c0.6532,0 1.177,0.5274 1.177,1.1768 0,0.6507 -0.5238,1.1782 -1.177,1.1782z"/><path class="fil0" d="M119.829 163.237c-0.6494,0 -1.1769,-0.5274 -1.1769,-1.1781l0 -20.1454c0,-0.6494 0.5275,-1.1769 1.1769,-1.1769 0.6508,0 1.1782,0.5275 1.1782,1.1769l0 20.1454c0,0.6507 -0.5274,1.1781 -1.1782,1.1781z"/><path class="fil0" d="M97.743 163.237c-0.6494,0 -1.1768,-0.5274 -1.1768,-1.1781l0 -20.1454c0,-0.6494 0.5274,-1.1769 1.1768,-1.1769 0.6507,0 1.1782,0.5275 1.1782,1.1769l0 20.1454c0,0.6507 -0.5275,1.1781 -1.1782,1.1781z"/><path class="fil0" d="M75.6579 163.237c-0.6506,0 -1.1781,-0.5274 -1.1781,-1.1781l0 -20.1454c0,-0.6494 0.5275,-1.1769 1.1781,-1.1769 0.6495,0 1.1769,0.5275 1.1769,1.1769l0 20.1454c0,0.6507 -0.5274,1.1781 -1.1769,1.1781z"/><path class="fil0" d="M53.5703 163.237c-0.6518,0 -1.1768,-0.5274 -1.1768,-1.1781l0 -20.1454c0,-0.6494 0.525,-1.1769 1.1768,-1.1769 0.6508,0 1.1782,0.5275 1.1782,1.1769l0 20.1454c0,0.6507 -0.5274,1.1781 -1.1782,1.1781z"/><path class="fil0" d="M31.4816 121.006l-20.1417 0c-0.6506,0 -1.1781,-0.5275 -1.1781,-1.1782 0,-0.6494 0.5275,-1.1768 1.1781,-1.1768l20.1417 0c0.6495,0 1.1781,0.5274 1.1781,1.1768 0,0.6507 -0.5286,1.1782 -1.1781,1.1782z"/><path class="fil0" d="M31.4816 98.9193l-20.1417 0c-0.6506,0 -1.1781,-0.5274 -1.1781,-1.1781 0,-0.6494 0.5275,-1.1769 1.1781,-1.1769l20.1417 0c0.6495,0 1.1781,0.5275 1.1781,1.1769 0,0.6507 -0.5286,1.1781 -1.1781,1.1781z"/><path class="fil0" d="M31.4816 76.833l-20.1417 0c-0.6506,0 -1.1781,-0.5274 -1.1781,-1.1781 0,-0.6495 0.5275,-1.1769 1.1781,-1.1769l20.1417 0c0.6495,0 1.1781,0.5274 1.1781,1.1769 0,0.6507 -0.5286,1.1781 -1.1781,1.1781z"/><path class="fil0" d="M31.4816 54.7467l-20.1417 0c-0.6506,0 -1.1781,-0.5275 -1.1781,-1.1781 0,-0.6495 0.5275,-1.1769 1.1781,-1.1769l20.1417 0c0.6495,0 1.1781,0.5274 1.1781,1.1769 0,0.6506 -0.5286,1.1781 -1.1781,1.1781z"/><path class="fil0" d="M130.163 87.8737l-22.1406 0c-0.6507,0 -1.1781,-0.5262 -1.1781,-1.1769 0,-0.6495 0.5274,-1.1769 1.1781,-1.1769l22.1406 0c0.6506,0 1.1781,0.5274 1.1781,1.1769 0,0.6507 -0.5275,1.1769 -1.1781,1.1769z"/><path class="fil0" d="M86.6987 66.5515c-0.6495,0 -1.177,-0.5275 -1.177,-1.1769l0 -22.1381c0,-0.6544 0.5275,-1.1782 1.177,-1.1782 0.6506,0 1.178,0.5238 1.178,1.1782l0 22.1381c0,0.6494 -0.5274,1.1769 -1.178,1.1769z"/><path class="fil0" d="M65.3764 87.8737l-22.1418 0c-0.6507,0 -1.1769,-0.5262 -1.1769,-1.1769 0,-0.6495 0.5262,-1.1769 1.1769,-1.1769l22.1418 0c0.6494,0 1.1768,0.5274 1.1768,1.1769 0,0.6507 -0.5274,1.1769 -1.1768,1.1769z"/><path class="fil0" d="M86.6987 131.339c-0.6495,0 -1.177,-0.5274 -1.177,-1.1782l0 -22.1405c0,-0.6507 0.5275,-1.1781 1.177,-1.1781 0.6506,0 1.178,0.5274 1.178,1.1781l0 22.1405c0,0.6508 -0.5274,1.1782 -1.178,1.1782z"/><path class="fil0" d="M68.5657 84.688c-1.1103,0 -2.0125,0.9022 -2.0125,2.0088 0,1.1104 0.9022,2.0113 2.0125,2.0113 1.1067,0 2.0076,-0.9009 2.0076,-2.0113 0,-1.1066 -0.9009,-2.0088 -2.0076,-2.0088zm0 6.3751c-2.408,0 -4.3675,-1.9595 -4.3675,-4.3663 0,-2.4031 1.9595,-4.3638 4.3675,-4.3638 2.4031,0 4.3626,1.9607 4.3626,4.3638 0,2.4068 -1.9595,4.3663 -4.3626,4.3663z"/><path class="fil0" d="M104.837 84.688c-1.1079,0 -2.0088,0.9022 -2.0088,2.0088 0,1.1104 0.9009,2.0113 2.0088,2.0113 1.1066,0 2.0075,-0.9009 2.0075,-2.0113 0,-1.1066 -0.9009,-2.0088 -2.0075,-2.0088zm0 6.3751c-2.4081,0 -4.3638,-1.9595 -4.3638,-4.3663 0,-2.4031 1.9557,-4.3638 4.3638,-4.3638 2.4068,0 4.3625,1.9607 4.3625,4.3638 0,2.4068 -1.9557,4.3663 -4.3625,4.3663z"/><path class="fil0" d="M86.6987 66.5515c-1.1068,0 -2.0076,0.9021 -2.0076,2.0124 0,1.1067 0.9008,2.0075 2.0076,2.0075 1.1102,0 2.0111,-0.9008 2.0111,-2.0075 0,-1.1103 -0.9009,-2.0124 -2.0111,-2.0124zm0 6.3749c-2.4069,0 -4.3626,-1.9594 -4.3626,-4.3625 0,-2.408 1.9557,-4.3675 4.3626,-4.3675 2.4067,0 4.3637,1.9595 4.3637,4.3675 0,2.4031 -1.957,4.3625 -4.3637,4.3625z"/><path class="fil0" d="M61.1999 67.4067c-0.6531,0 -1.1781,-0.5274 -1.1781,-1.1768l0 -6.709 -16.7872 0c-0.6507,0 -1.1769,-0.525 -1.1769,-1.1769 0,-0.6507 0.5262,-1.1757 1.1769,-1.1757l17.9653 0c0.6494,0 1.1769,0.525 1.1769,1.1757l0 7.8859c0,0.6494 -0.5275,1.1768 -1.1769,1.1768z"/><path class="fil0" d="M61.1999 67.4067c-1.1104,0 -2.0112,0.9021 -2.0112,2.0088 0,1.1104 0.9008,2.0112 2.0112,2.0112 1.1066,0 2.0087,-0.9008 2.0087,-2.0112 0,-1.1067 -0.9021,-2.0088 -2.0087,-2.0088zm0 6.375c-2.4068,0 -4.3662,-1.9595 -4.3662,-4.3662 0,-2.4031 1.9594,-4.3638 4.3662,-4.3638 2.4043,0 4.3638,1.9607 4.3638,4.3638 0,2.4067 -1.9595,4.3662 -4.3638,4.3662z"/><path class="fil0" d="M112.201 67.4067c-0.6508,0 -1.177,-0.5274 -1.177,-1.1768l0 -7.8859c0,-0.6507 0.5262,-1.1757 1.177,-1.1757l17.9616 0c0.6506,0 1.1781,0.525 1.1781,1.1757 0,0.6519 -0.5275,1.1769 -1.1781,1.1769l-16.7835 0 0 6.709c0,0.6494 -0.5287,1.1768 -1.1781,1.1768z"/><path class="fil0" d="M112.201 67.4067c-1.1068,0 -2.0113,0.9021 -2.0113,2.0088 0,1.1104 0.9045,2.0112 2.0113,2.0112 1.1066,0 2.0087,-0.9008 2.0087,-2.0112 0,-1.1067 -0.9021,-2.0088 -2.0087,-2.0088zm0 6.375c-2.4069,0 -4.3638,-1.9595 -4.3638,-4.3662 0,-2.4031 1.9569,-4.3638 4.3638,-4.3638 2.4067,0 4.3638,1.9607 4.3638,4.3638 0,2.4067 -1.9571,4.3662 -4.3638,4.3662z"/><path class="fil0" d="M61.1999 109.857c-0.6531,0 -1.1781,-0.5274 -1.1781,-1.1781l0 -6.709 -16.7872 0c-0.6507,0 -1.1769,-0.5262 -1.1769,-1.1768 0,-0.6495 0.5262,-1.177 1.1769,-1.177l17.9653 0c0.6494,0 1.1769,0.5275 1.1769,1.177l0 7.8858c0,0.6507 -0.5275,1.1781 -1.1769,1.1781z"/><path class="fil0" d="M112.201 109.857c-0.6508,0 -1.177,-0.5274 -1.177,-1.1781l0 -7.8858c0,-0.6495 0.5262,-1.177 1.177,-1.177l17.9616 0c0.6506,0 1.1781,0.5275 1.1781,1.177 0,0.6506 -0.5275,1.1768 -1.1781,1.1768l-16.7835 0 0 6.709c0,0.6507 -0.5287,1.1781 -1.1781,1.1781z"/><path class="fil0" d="M61.1999 109.857c-1.1104,0 -2.0112,0.9021 -2.0112,2.0088 0,1.1066 0.9008,2.0075 2.0112,2.0075 1.1066,0 2.0087,-0.9009 2.0087,-2.0075 0,-1.1067 -0.9021,-2.0088 -2.0087,-2.0088zm0 6.3713c-2.4068,0 -4.3662,-1.9557 -4.3662,-4.3625 0,-2.4081 1.9594,-4.3638 4.3662,-4.3638 2.4043,0 4.3638,1.9557 4.3638,4.3638 0,2.4068 -1.9595,4.3625 -4.3638,4.3625z"/><path class="fil0" d="M86.6987 102.826c-1.1068,0 -2.0076,0.9008 -2.0076,2.0088 0,1.1066 0.9008,2.0075 2.0076,2.0075 1.1102,0 2.0111,-0.9009 2.0111,-2.0075 0,-1.108 -0.9009,-2.0088 -2.0111,-2.0088zm0 6.3713c-2.4069,0 -4.3626,-1.9558 -4.3626,-4.3625 0,-2.4081 1.9557,-4.3638 4.3626,-4.3638 2.4067,0 4.3637,1.9557 4.3637,4.3638 0,2.4067 -1.957,4.3625 -4.3637,4.3625z"/><path class="fil0" d="M112.201 109.857c-1.1068,0 -2.0113,0.9021 -2.0113,2.0088 0,1.1066 0.9045,2.0075 2.0113,2.0075 1.1066,0 2.0087,-0.9009 2.0087,-2.0075 0,-1.1067 -0.9021,-2.0088 -2.0087,-2.0088zm0 6.3713c-2.4069,0 -4.3638,-1.9557 -4.3638,-4.3625 0,-2.4081 1.9569,-4.3638 4.3638,-4.3638 2.4067,0 4.3638,1.9557 4.3638,4.3638 0,2.4068 -1.9571,4.3625 -4.3638,4.3625z"/><path class="fil0" d="M73.9499 131.339c-0.6507,0 -1.1781,-0.5274 -1.1781,-1.1782l0 -14.9324c0,-0.6495 0.5274,-1.1769 1.1781,-1.1769 0.6495,0 1.1769,0.5274 1.1769,1.1769l0 14.9324c0,0.6508 -0.5274,1.1782 -1.1769,1.1782z"/><path class="fil0" d="M73.9499 110.031c-1.1079,0 -2.0087,0.9009 -2.0087,2.0112 0,1.1067 0.9008,2.0088 2.0087,2.0088 1.1067,0 2.0075,-0.9021 2.0075,-2.0088 0,-1.1103 -0.9008,-2.0112 -2.0075,-2.0112zm0 6.3737c-2.4068,0 -4.3638,-1.9581 -4.3638,-4.3625 0,-2.4068 1.957,-4.3663 4.3638,-4.3663 2.4068,0 4.3625,1.9595 4.3625,4.3663 0,2.4044 -1.9557,4.3625 -4.3625,4.3625z"/><path class="fil0" d="M99.451 131.339c-0.6531,0 -1.1768,-0.5274 -1.1768,-1.1782l0 -14.9324c0,-0.6495 0.5237,-1.1769 1.1768,-1.1769 0.6508,0 1.1782,0.5274 1.1782,1.1769l0 14.9324c0,0.6508 -0.5274,1.1782 -1.1782,1.1782z"/><path class="fil0" d="M99.451 110.031c-1.109,0 -2.0112,0.9009 -2.0112,2.0112 0,1.1067 0.9022,2.0088 2.0112,2.0088 1.1068,0 2.0088,-0.9021 2.0088,-2.0088 0,-1.1103 -0.902,-2.0112 -2.0088,-2.0112zm0 6.3737c-2.4067,0 -4.3662,-1.9581 -4.3662,-4.3625 0,-2.4068 1.9595,-4.3663 4.3662,-4.3663 2.4044,0 4.3638,1.9595 4.3638,4.3663 0,2.4044 -1.9594,4.3625 -4.3638,4.3625z"/><path class="fil0" d="M73.9499 59.3459c-0.6507,0 -1.1781,-0.5275 -1.1781,-1.1769l0 -14.9325c0,-0.6544 0.5274,-1.1782 1.1781,-1.1782 0.6495,0 1.1769,0.5238 1.1769,1.1782l0 14.9325c0,0.6494 -0.5274,1.1769 -1.1769,1.1769z"/><path class="fil0" d="M73.9499 59.3459c-1.1079,0 -2.0087,0.9008 -2.0087,2.0088 0,1.1066 0.9008,2.0111 2.0087,2.0111 1.1067,0 2.0075,-0.9045 2.0075,-2.0111 0,-1.108 -0.9008,-2.0088 -2.0075,-2.0088zm0 6.3725c-2.4068,0 -4.3638,-1.957 -4.3638,-4.3637 0,-2.4081 1.957,-4.3638 4.3638,-4.3638 2.4068,0 4.3625,1.9557 4.3625,4.3638 0,2.4067 -1.9557,4.3637 -4.3625,4.3637z"/><path class="fil0" d="M99.451 59.3459c-0.6531,0 -1.1768,-0.5275 -1.1768,-1.1769l0 -14.9325c0,-0.6544 0.5237,-1.1782 1.1768,-1.1782 0.6508,0 1.1782,0.5238 1.1782,1.1782l0 14.9325c0,0.6494 -0.5274,1.1769 -1.1782,1.1769z"/><path class="fil0" d="M99.451 59.3459c-1.109,0 -2.0112,0.9008 -2.0112,2.0088 0,1.1066 0.9022,2.0111 2.0112,2.0111 1.1068,0 2.0088,-0.9045 2.0088,-2.0111 0,-1.108 -0.902,-2.0088 -2.0088,-2.0088zm0 6.3725c-2.4067,0 -4.3662,-1.957 -4.3662,-4.3637 0,-2.4081 1.9595,-4.3638 4.3662,-4.3638 2.4044,0 4.3638,1.9557 4.3638,4.3638 0,2.4067 -1.9594,4.3637 -4.3638,4.3637z"/></g></g><rect class="fil1" width="173.397" height="173.397"/><text x="0" y="188.397" fill="#000000" font-size="5px" font-weight="bold" font-family="'Helvetica Neue', Helvetica, Arial-Unicode, Arial, Sans-serif">Created by Muhammad Atiq</text><text x="0" y="193.397" fill="#000000" font-size="5px" font-weight="bold" font-family="'Helvetica Neue', Helvetica, Arial-Unicode, Arial, Sans-serif">from the Noun Project</text></svg>