<svg xmlns="http://www.w3.org/2000/svg" xmlns:xlink="http://www.w3.org/1999/xlink" version="1.1" x="0px" y="0px" viewBox="0 0 100 125" enable-background="new 0 0 100 100" xml:space="preserve"><g><path d="M83.475,47.507l0.317-2.329c0.271-1.993,0.438-3.997,0.496-5.969C74.556,47.201,62.72,51.419,50,51.419   c-12.721,0-24.557-4.219-34.289-12.21c0.059,1.977,0.225,3.98,0.496,5.969l0.318,2.329l-2.239,0.716   c-1.896,0.607-3.856,1.133-5.839,1.566C20.2,59.099,34.922,64.217,50,64.217s29.8-5.118,41.553-14.428   c-1.983-0.433-3.944-0.959-5.84-1.566L83.475,47.507z"/><path d="M86.566,45.556c0.586-4.294,0.693-8.516,0.354-12.572c-20.2,20.846-53.64,20.846-73.84,0   c-0.341,4.056-0.233,8.277,0.353,12.572c-3.569,1.142-7.346,1.982-11.295,2.472c26.838,25.318,68.886,25.318,95.725,0   C93.913,47.538,90.136,46.698,86.566,45.556z M50,65.018c-15.543,0-30.713-5.375-42.714-15.135L6.631,49.35l0.827-0.17   c2.236-0.458,4.452-1.037,6.584-1.719l1.599-0.512l-0.227-1.663c-0.315-2.315-0.491-4.651-0.521-6.942l-0.012-0.879l0.67,0.568   C25.262,46.267,37.174,50.619,50,50.619c12.824,0,24.736-4.352,34.448-12.585l0.671-0.568l-0.012,0.879   c-0.031,2.285-0.206,4.621-0.522,6.942l-0.228,1.663l1.6,0.512c2.132,0.683,4.348,1.261,6.585,1.719l0.827,0.17l-0.655,0.533   C80.713,59.643,65.543,65.018,50,65.018z"/></g><text x="0" y="115" fill="#000000" font-size="5px" font-weight="bold" font-family="'Helvetica Neue', Helvetica, Arial-Unicode, Arial, Sans-serif">Created by karen tyler</text><text x="0" y="120" fill="#000000" font-size="5px" font-weight="bold" font-family="'Helvetica Neue', Helvetica, Arial-Unicode, Arial, Sans-serif">from the Noun Project</text></svg>