<svg xmlns="http://www.w3.org/2000/svg" xmlns:xlink="http://www.w3.org/1999/xlink" version="1.1" x="0px" y="0px" viewBox="0 0 32 40" enable-background="new 0 0 32 32" xml:space="preserve"><g><path d="M25,13H7c-1.1045532,0-2,0.8953857-2,2v10h22V15C27,13.8953857,26.1045532,13,25,13z M12.8201904,21.1157227   c0.2119141,0.1767578,0.2407227,0.4921875,0.0639648,0.7045898C12.7850342,21.9389648,12.6429443,22,12.4993896,22   c-0.112793,0-0.2260742-0.0380859-0.3198242-0.1157227l-3-2.5C9.0657959,19.2890625,8.9998779,19.1484375,8.9998779,19   s0.065918-0.2890625,0.1796875-0.3842773l3-2.5c0.2124023-0.1767578,0.5268555-0.1479492,0.7045898,0.0639648   c0.1767578,0.2124023,0.1479492,0.527832-0.0639648,0.7045898L10.2811279,19L12.8201904,21.1157227z M17.928833,16.7573242l-3,5   C14.835083,21.9135742,14.6695557,22,14.4996338,22c-0.0874023,0-0.1762695-0.0229492-0.2568359-0.0712891   c-0.2368164-0.1420898-0.3134766-0.4492188-0.1713867-0.6860352l3-5c0.1425781-0.2368164,0.4492188-0.3144531,0.6860352-0.1713867   C17.9942627,16.2133789,18.0709229,16.5205078,17.928833,16.7573242z M22.8203125,19.3842773l-3,2.5   C19.7265625,21.9619141,19.6132813,22,19.5004883,22c-0.1435547,0-0.2856445-0.0610352-0.3847656-0.1796875   c-0.1767578-0.2124023-0.1479492-0.527832,0.0639648-0.7045898L21.71875,19l-2.5390625-2.1157227   c-0.2119141-0.1767578-0.2407227-0.4921875-0.0639648-0.7045898c0.1777344-0.2119141,0.4921875-0.2407227,0.7045898-0.0639648   l3,2.5C22.934082,18.7109375,23,18.8515625,23,19S22.934082,19.2890625,22.8203125,19.3842773z"/><path d="M26.0000038,30H5.9999962C3.7908592,30,2,28.2091408,2,26.0000038V26h28v0.0000038   C30,28.2091408,28.2091408,30,26.0000038,30z"/><path d="M16,2c-1.6542969,0-3,1.3457031-3,3c0,1.3019409,0.838501,2.4015503,2,2.8156738V12h2V7.8157349   C18.161499,7.4016113,19,6.3019409,19,5C19,3.3457031,17.6542969,2,16,2z"/><path d="M25,2c-1.6542969,0-3,1.3457031-3,3c0,1.3019409,0.838501,2.4015503,2,2.8156738V9h-4c-0.5522461,0-1,0.4477539-1,1v2h2v-1   h4c0.5522461,0,1-0.4477539,1-1V7.8157349C27.161499,7.4016113,28,6.3019409,28,5C28,3.3457031,26.6542969,2,25,2z"/><path d="M12,9H8V7.8157349C9.161499,7.4016113,10,6.3019409,10,5c0-1.6542969-1.3457031-3-3-3S4,3.3457031,4,5   c0,1.3019409,0.838501,2.4015503,2,2.8156738V10c0,0.5522461,0.4477539,1,1,1h4v1h2v-2C13,9.4477539,12.5522461,9,12,9z"/></g><text x="0" y="47" fill="#000000" font-size="5px" font-weight="bold" font-family="'Helvetica Neue', Helvetica, Arial-Unicode, Arial, Sans-serif">Created by M. Oki Orlando</text><text x="0" y="52" fill="#000000" font-size="5px" font-weight="bold" font-family="'Helvetica Neue', Helvetica, Arial-Unicode, Arial, Sans-serif">from the Noun Project</text></svg>