<svg xmlns="http://www.w3.org/2000/svg" viewBox="0 0 24 30" x="0px" y="0px"><title>user, interface, ui, app, infinity, loop, infinite</title><g><path d="M22,11.9v.18a4.7508,4.7508,0,0,1-3.31,4.52,4.9567,4.9567,0,0,1-4.09-.36,4.6679,4.6679,0,0,1-1.4-1.16c-.0536-.0357-3.836-4.7751-3.88-4.83a2.9475,2.9475,0,0,0-1.2-.9,3.049,3.049,0,0,0-2.16-.06A2.8174,2.8174,0,0,0,4,11.93v.15A2.7783,2.7783,0,0,0,5.96,14.7a3.0005,3.0005,0,0,0,3.36-.95l.76-.95,1.28,1.6-.48.6a4.9754,4.9754,0,0,1-3.89,1.88,5.1935,5.1935,0,0,1-1.68-.28A4.7448,4.7448,0,0,1,2,12.1v-.2A4.7448,4.7448,0,0,1,5.31,7.4a4.97,4.97,0,0,1,4.09.36,4.6679,4.6679,0,0,1,1.4,1.16c.0561.0374,1.1579,1.4273,1.2,1.48.6686.8379,1.0521,1.3151,2.68,3.35a2.7794,2.7794,0,0,0,1.2.9,3.05,3.05,0,0,0,2.16.06A2.808,2.808,0,0,0,20,12.06v-.13a2.8174,2.8174,0,0,0-1.96-2.64,2.992,2.992,0,0,0-3.36.96l-.76.95L12.64,9.6l.48-.6a5.0049,5.0049,0,0,1,5.57-1.6A4.7448,4.7448,0,0,1,22,11.9Z"/></g><text x="0" y="39" fill="#000000" font-size="5px" font-weight="bold" font-family="'Helvetica Neue', Helvetica, Arial-Unicode, Arial, Sans-serif">Created by Kmg Design</text><text x="0" y="44" fill="#000000" font-size="5px" font-weight="bold" font-family="'Helvetica Neue', Helvetica, Arial-Unicode, Arial, Sans-serif">from the Noun Project</text></svg>