<svg xmlns="http://www.w3.org/2000/svg" viewBox="0 0 60 75" x="0px" y="0px"><path d="M57,0H3A3,3,0,0,0,0,3V47a3,3,0,0,0,3,3H22.9c-.59,3.233-3.933,3.984-4.1,4.02A4,4,0,0,0,15,58a2,2,0,0,0,2,2H43a2,2,0,0,0,2-2,4,4,0,0,0-3.8-3.98h0c-.157-.032-3.514-.753-4.1-4.02H57a3,3,0,0,0,3-3V3A3,3,0,0,0,57,0ZM3,2H57a1,1,0,0,1,1,1V42H2V3A1,1,0,0,1,3,2ZM43,58H17a2,2,0,0,1,2-2H41A2.005,2.005,0,0,1,43,58Zm-5.918-4H22.916a6.6,6.6,0,0,0,2.014-4H35.07A6.6,6.6,0,0,0,37.084,54ZM57,48H3a1,1,0,0,1-1-1V44H58v3A1,1,0,0,1,57,48Z"/><path d="M6,40H54a2,2,0,0,0,2-2V6a2,2,0,0,0-2-2H6A2,2,0,0,0,4,6V38A2,2,0,0,0,6,40ZM6,6H54V38L6,38Z"/><path d="M30,26a4,4,0,1,0-4-4A4,4,0,0,0,30,26Zm0-6a2,2,0,1,1-2,2A2,2,0,0,1,30,20Z"/><path d="M41.439,10.561c-2.367-2.367-6.8-1.946-11.439.679-4.638-2.625-9.074-3.047-11.439-.679s-1.945,6.8.68,11.439c-2.625,4.638-3.046,9.073-.68,11.439A5.786,5.786,0,0,0,22.792,35,15.207,15.207,0,0,0,30,32.763,15.207,15.207,0,0,0,37.208,35a5.786,5.786,0,0,0,4.231-1.557c2.366-2.366,1.945-6.8-.68-11.439C43.384,17.362,43.805,12.927,41.439,10.561ZM19.975,11.975a3.869,3.869,0,0,1,2.828-1,12.3,12.3,0,0,1,5.24,1.5,30.5,30.5,0,0,0-7.569,7.572C18.756,16.627,18.432,13.517,19.975,11.975ZM30,13.577A28.174,28.174,0,0,1,38.414,22,28.008,28.008,0,0,1,30,30.414,28.008,28.008,0,0,1,21.586,22,28.174,28.174,0,0,1,30,13.577ZM19.975,32.025c-1.543-1.542-1.219-4.652.5-8.076a30.715,30.715,0,0,0,7.569,7.58C24.622,33.242,21.515,33.564,19.975,32.025Zm20.05,0c-1.541,1.539-4.648,1.217-8.069-.5a30.048,30.048,0,0,0,4.117-3.456,30.052,30.052,0,0,0,3.453-4.124C41.244,27.373,41.568,30.483,40.025,32.025Zm-.5-11.974a30.5,30.5,0,0,0-7.569-7.572,12.3,12.3,0,0,1,5.24-1.5,3.869,3.869,0,0,1,2.828,1C41.568,13.517,41.244,16.627,39.526,20.051Z"/><text x="0" y="75" fill="#000000" font-size="5px" font-weight="bold" font-family="'Helvetica Neue', Helvetica, Arial-Unicode, Arial, Sans-serif">Created by Juicy Fish</text><text x="0" y="80" fill="#000000" font-size="5px" font-weight="bold" font-family="'Helvetica Neue', Helvetica, Arial-Unicode, Arial, Sans-serif">from the Noun Project</text></svg>