<svg xmlns="http://www.w3.org/2000/svg" xmlns:xlink="http://www.w3.org/1999/xlink" version="1.1" x="0px" y="0px" viewBox="0 0 32 40" enable-background="new 0 0 32 32" xml:space="preserve"><circle cx="16" cy="15.5" r="3.5"/><path d="M19.583,18.195C18.762,19.285,17.469,20,16,20s-2.762-0.715-3.583-1.805C10.953,19.29,10,21.031,10,23v1  c0,1.104,0.896,2,2,2h8c1.104,0,2-0.896,2-2v-1C22,21.031,21.047,19.29,19.583,18.195z"/><circle cx="16" cy="7.5" r="3.5"/><circle cx="24" cy="10.5" r="3.5"/><path d="M27.583,13.196C26.762,14.285,25.469,15,24,15s-2.762-0.715-3.583-1.804c-0.138,0.102-0.265,0.216-0.394,0.329  c0.295,0.599,0.477,1.263,0.477,1.975c0,0.656-0.143,1.275-0.396,1.835l0.078,0.06c1.235,0.922,2.096,2.184,2.519,3.604H28  c1.104,0,2-0.896,2-2v-1C30,16.031,29.047,14.29,27.583,13.196z"/><circle cx="8" cy="10.5" r="3.5"/><path d="M11.818,17.395l0.079-0.059c-0.254-0.561-0.397-1.18-0.397-1.836c0-0.712,0.181-1.376,0.476-1.975  c-0.128-0.113-0.256-0.227-0.393-0.329C10.762,14.285,9.469,15,8,15s-2.762-0.715-3.583-1.804C2.953,14.29,2,16.031,2,18v1  c0,1.104,0.896,2,2,2h5.3C9.722,19.579,10.583,18.316,11.818,17.395z"/><text x="0" y="47" fill="#000000" font-size="5px" font-weight="bold" font-family="'Helvetica Neue', Helvetica, Arial-Unicode, Arial, Sans-serif">Created by David Khai</text><text x="0" y="52" fill="#000000" font-size="5px" font-weight="bold" font-family="'Helvetica Neue', Helvetica, Arial-Unicode, Arial, Sans-serif">from the Noun Project</text></svg>