<svg xmlns="http://www.w3.org/2000/svg" xmlns:xlink="http://www.w3.org/1999/xlink" version="1.1" x="0px" y="0px" viewBox="0 0 100 125" style="enable-background:new 0 0 100 100;" xml:space="preserve"><style type="text/css">
	.st0{fill-rule:evenodd;clip-rule:evenodd;}
</style><path class="st0" d="M6.083,17.452L49.618,5.059c0.26-0.074,0.524-0.069,0.766,0.001l43.599,12.411  c0.613,0.174,1.013,0.733,1.013,1.341h0.001v21.743c0,12.675-5.362,23.997-12.776,33.016c-9.57,11.643-22.627,19.471-31.944,21.395  c-0.204,0.042-0.407,0.036-0.597-0.009c-9.315-1.939-22.347-9.76-31.903-21.386C10.365,64.552,5.002,53.23,5.002,40.555V18.812  C5.002,18.15,5.464,17.595,6.083,17.452L6.083,17.452z M85.004,51.435H51.395v34.583c7.734-2.533,16.024-8.782,21.379-14.389  C78.26,65.885,82.733,59.021,85.004,51.435L85.004,51.435z M48.605,51.435H14.996c3.632,12.137,13.077,22.836,23.876,29.779  c3.165,2.035,6.493,3.743,9.732,4.804V51.435L48.605,51.435z M14.27,48.644h34.335V14.048L13.374,24.078v16.477  C13.374,43.316,13.687,46.018,14.27,48.644L14.27,48.644z M51.395,48.644H85.73c0.582-2.626,0.896-5.329,0.896-8.09V24.078  L51.395,14.048V48.644L51.395,48.644z M10.583,40.555c0,12.59,6.11,24.077,14.626,32.993c6.046,6.33,15.651,13.442,24.447,15.682  c0.24,0.061,0.482,0.055,0.705-0.005c4.073-1.043,8.305-3.118,12.27-5.667c14.567-9.364,26.785-25.249,26.785-43.002V23.026  c0-0.662-0.462-1.217-1.08-1.36L50.382,10.861c-0.26-0.074-0.524-0.069-0.766,0.001L11.597,21.685  c-0.613,0.174-1.013,0.733-1.013,1.341h-0.001V40.555L10.583,40.555z M50,7.849L7.793,19.864v20.691  c0,11.962,5.093,22.685,12.133,31.251C28.992,82.836,41.222,90.268,50,92.182c8.778-1.914,21.008-9.346,30.075-20.376  c7.04-8.565,12.133-19.289,12.133-31.251V19.864L50,7.849z"/><text x="0" y="115" fill="#000000" font-size="5px" font-weight="bold" font-family="'Helvetica Neue', Helvetica, Arial-Unicode, Arial, Sans-serif">Created by Purwanto</text><text x="0" y="120" fill="#000000" font-size="5px" font-weight="bold" font-family="'Helvetica Neue', Helvetica, Arial-Unicode, Arial, Sans-serif">from the Noun Project</text></svg>