<?xml version="1.0" encoding="utf-8"?>
<!-- Generator: Adobe Illustrator 27.8.1, SVG Export Plug-In . SVG Version: 6.00 Build 0)  -->
<svg version="1.1" id="Layer_1" xmlns="http://www.w3.org/2000/svg" xmlns:xlink="http://www.w3.org/1999/xlink" x="0px" y="0px"
	 viewBox="0 0 612 792" style="enable-background:new 0 0 612 792;" xml:space="preserve">
<style type="text/css">
	.st0{fill:#EE2671;}
	.st1{fill:#F8C1D9;}
	.st2{fill:#06B7A1;}
	.st3{fill:#C0E5E7;}
	.st4{fill:none;}
	.st5{fill:#F6A952;}
	.st6{fill:#FFE0A9;}
	.st7{fill:#FBAE24;}
	.st8{fill:#5E2D85;}
	.st9{fill:#0572BA;}
	.st10{fill:#CBB3D7;}
	.st11{fill:#FFFFFF;}
</style>
<g>
	<g>
		<path class="st0" d="M219.7,149.8c13.2,0,24.2,10.1,24.2,22.3v63c0,12.2-11,22.3-24.2,22.3h-41.7l-31,27.3
			c-6.1,5.3-16.2,1.5-16.2-6.2v-21.1h-10c-13.2,0-24.2-10.1-24.2-22.3v-63c0-0.4,0.1-0.8,0.1-1.2l-51.6,18.9v150.8
			c0,11,0.5,22,1.3,32.8c5-11.7,17.1-20.1,31.4-20.1h23.6c10.7,0,20.4,4.8,26.5,11.9c-9.4,6.8-15.8,16.9-17.1,28.8l-2.7,20.6h9.8
			h4.7l1.1-8.6l1.4-10.6c1.8-12.1,10.9-22.1,23.1-25.8c2.2-0.7,4.5-1.1,6.9-1.4c1.2-0.1,2.4-0.2,3.6-0.2h23.6
			c17.1,0,31.3,11.9,33.9,27.3l2,15.3l0.5,3.8h5.2h8.6l-2.7-20.6c-1.3-11.6-7.8-22-17.1-28.8c6.1-7.4,15.8-11.9,26.5-11.9h23.6
			c15.7,0,29.2,10.1,32.8,24V98l-141.2,51.8H219.7z M89.8,345.7c-17.7,0-32-13.2-32-29.4c0-16.2,14.3-29.4,32-29.4
			c17.7,0,32,13.2,32,29.4C121.8,332.5,107.5,345.7,89.8,345.7z M170.3,360.5c-17.7,0-32-13.2-32-29.4c0-16.2,14.3-29.4,32-29.4
			s32,13.2,32,29.4C202.3,347.3,188,360.5,170.3,360.5z M282.7,316.2c0,16.2-14.3,29.4-32,29.4c-17.7,0-32-13.2-32-29.4
			c0-16.2,14.3-29.4,32-29.4C268.4,286.8,282.7,300,282.7,316.2z"/>
		<ellipse class="st1" cx="89.8" cy="316.2" rx="32" ry="29.4"/>
		<path class="st1" d="M128,365.3c-6.1-7.1-15.8-11.9-26.5-11.9H77.9c-14.3,0-26.5,8.3-31.4,20.1c0.9,11.8,2.2,23.6,4,35.1
			c0.1,0.7,0.2,1.3,0.3,2c0.2,1.1,0.4,2.2,0.5,3.4c0,0.3,0.1,0.5,0.1,0.8h4.3h52.4l2.7-20.6C112.1,382.2,118.6,372.1,128,365.3z"/>
		<ellipse class="st1" cx="250.8" cy="316.2" rx="32" ry="29.4"/>
		<path class="st1" d="M262.7,353.4h-23.6c-10.7,0-20.4,4.5-26.5,11.9c9.4,6.8,15.8,17.2,17.1,28.8l2.7,20.6h52.4h10.7v-2.1v-35.2
			C291.9,363.5,278.5,353.4,262.7,353.4z"/>
		<path class="st1" d="M216.2,395.6c-2.6-15.5-16.8-27.3-33.9-27.3h-23.6c-1.2,0-2.4,0.1-3.6,0.2c-2.4,0.2-4.7,0.7-6.9,1.4
			c-12.2,3.7-21.3,13.6-23.1,25.8l-1.4,10.6l-1.1,8.6h96l-0.5-3.8L216.2,395.6z"/>
		<ellipse class="st1" cx="170.3" cy="331.1" rx="32" ry="29.4"/>
		<path class="st1" d="M96.6,235.1c0,12.2,11,22.3,24.2,22.3h10v21.1c0,7.7,10,11.6,16.2,6.2l31-27.3h41.7
			c13.2,0,24.2-10.1,24.2-22.3v-63c0-12.2-11-22.3-24.2-22.3h-65.4l-16.4,6l-41.2,15.1c0,0.4-0.1,0.8-0.1,1.2V235.1z M117.1,191.5
			c8.2-5.6,18.5-7.5,28.1-5.2c4.1,0.9,8,2.6,11.5,5c0.2,0.1,3,2,5.6,3.8c2.5,1.7,4.9,3.4,5.1,3.6c3.8,2.7,6.6,4.6,11.8,8.3
			c3,2.1,6.8,4.8,12.2,8.6c2.8,2.1,6.2,3.3,9.7,3.6c5.1,0.6,10.3-0.7,14.6-3.6c7.1-4.5,10.5-12.9,8.5-20.9L224,194
			c-2.3-7.8-9.5-13.3-17.9-13.6c-8.9-0.6-17.3,4.4-20.9,12.4l-2.6,8.9l-1.9-1.5l-7.7-5.9l-2.7-2.1l2.2-4.8
			c6-13.3,19.8-21.6,34.6-20.7c14.3,0.4,26.5,9.8,30.3,23.2l0.3,1.2c3.7,13.5-2.1,27.8-14.2,35.5c-8.2,5.6-18.5,7.5-28.1,5.2
			c-4.1-0.9-8-2.6-11.5-5c-0.2-0.1-10.9-7.5-20.3-14.2c-1.5-1-2.9-2-4.3-3c-5.6-3.9-10-7-10.1-7.1c-2.8-2-6.2-3.3-9.7-3.6
			c-5.1-0.6-10.3,0.7-14.6,3.6c-7.1,4.5-10.5,12.9-8.5,20.8l0.3,1c2.3,7.8,9.5,13.3,17.8,13.4c8.9,0.6,17.3-4.4,20.9-12.4l3.1-8.7
			l11.8,9.2l-2.2,4.8c-4.2,9.5-12.6,16.6-22.8,19.4c-3.8,1.1-7.8,1.5-11.8,1.3c-14.3-0.4-26.5-9.8-30.3-23.2l-0.4-1.3
			C99.3,213.5,105,199.2,117.1,191.5z"/>
		<path class="st0" d="M103.2,228.2c3.7,13.4,16,22.8,30.3,23.2c4,0.2,8-0.2,11.8-1.3c10.2-2.8,18.6-9.9,22.8-19.4l2.2-4.8
			l-11.8-9.2l-3.1,8.7c-3.6,8-12,13-20.9,12.4c-8.4-0.2-15.6-5.6-17.8-13.4l-0.3-1c-2-7.9,1.4-16.3,8.5-20.8
			c4.3-2.9,9.5-4.2,14.6-3.6c3.5,0.4,6.8,1.6,9.7,3.6c0.1,0.1,4.5,3.2,10.1,7.1c1.4,1,2.8,2,4.3,3c9.4,6.6,20.1,14.1,20.3,14.2
			c3.4,2.4,7.3,4.1,11.5,5c9.6,2.3,19.9,0.4,28.1-5.2c12.1-7.7,17.9-22.1,14.2-35.5l-0.3-1.2c-3.7-13.4-16-22.8-30.3-23.2
			c-14.8-0.9-28.6,7.4-34.6,20.7l-2.2,4.8l2.7,2.1l7.7,5.9l1.9,1.5l2.6-8.9c3.6-8,12-13,20.9-12.4c8.4,0.3,15.6,5.7,17.9,13.6
			l0.2,0.8c2.1,7.9-1.3,16.3-8.5,20.9c-4.3,2.9-9.5,4.2-14.6,3.6c-3.5-0.3-6.9-1.6-9.7-3.6c-5.3-3.7-9.2-6.4-12.2-8.6
			c-5.2-3.7-8-5.6-11.8-8.3c-0.2-0.1-2.6-1.8-5.1-3.6c-2.7-1.9-5.4-3.8-5.6-3.8c-3.4-2.4-7.3-4.1-11.5-5c-9.6-2.3-19.9-0.4-28.1,5.2
			c-12.1,7.7-17.8,22-14.2,35.4L103.2,228.2z"/>
	</g>
	<g>
		<path class="st2" d="M149.1,621.4c7,9.1,14.2,17.8,21.6,26.2h0C163.3,639.2,156.1,630.4,149.1,621.4L149.1,621.4z"/>
		<path class="st2" d="M127.9,591.8l2.7,3.8c-0.9-1.3-1.8-2.6-2.7-3.9V591.8z"/>
		<path class="st2" d="M144.1,614.8L144.1,614.8c-0.4-0.6-0.8-1.1-1.2-1.7L144.1,614.8z"/>
		<path class="st2" d="M179.6,557c-1.2-1.4-3.2-1.6-4.6-0.4L155.3,573c-0.7,0.6-1.2,1.5-1.2,2.5s0.4,1.9,1.2,2.5l19.7,16.4
			c0.6,0.5,1.4,0.8,2.1,0.8c0.9,0,1.9-0.4,2.5-1.2c1.2-1.4,1-3.5-0.4-4.6l-16.6-13.9l16.6-13.9C180.5,560.4,180.7,558.4,179.6,557z"
			/>
		<path class="st2" d="M211.5,556.3c-1.6-0.9-3.6-0.4-4.5,1.1l-19.7,32.8c-0.9,1.6-0.4,3.6,1.1,4.5c0.5,0.3,1.1,0.5,1.7,0.5
			c1.1,0,2.2-0.6,2.8-1.6l19.7-32.8C213.6,559.2,213.1,557.2,211.5,556.3z"/>
		<path class="st2" d="M225,556.6c-1.4-1.2-3.5-1-4.6,0.4c-1.2,1.4-1,3.5,0.4,4.6l16.6,13.9l-16.6,13.9c-1.4,1.2-1.6,3.2-0.4,4.6
			c0.7,0.8,1.6,1.2,2.5,1.2c0.7,0,1.5-0.2,2.1-0.8l19.7-16.4c0.7-0.6,1.2-1.5,1.2-2.5s-0.4-1.9-1.2-2.5L225,556.6z"/>
		<path class="st2" d="M100.8,429.3H56.6c0.4,1.8,0.8,3.6,1.3,5.4c0.1,0.5,0.2,0.9,0.4,1.4c0.3,1.3,0.7,2.7,1,4
			c0.1,0.5,0.2,0.9,0.4,1.4c0.4,1.4,0.7,2.7,1.1,4.1c0.1,0.4,0.2,0.7,0.3,1.1c0.4,1.5,0.8,2.9,1.2,4.4c0.1,0.2,0.1,0.5,0.2,0.7
			c0.5,1.6,0.9,3.2,1.4,4.8c0,0.1,0,0.1,0.1,0.2c1.9,6.2,3.8,12.4,5.9,18.5c14.4,41.7,34.3,80.9,58,116.4v-42.3
			c0-7.2,5.9-13.1,13.1-13.1h118c7.2,0,13.1,5.9,13.1,13.1v65.6H144.2c1.7,2.2,3.3,4.4,5,6.6h142.6c0,14.5-11.7,26.2-26.2,26.2
			h-94.9c17.6,20,36.3,38.2,55.6,54.2c16.7,13.8,34,26,51.2,35.3c6,3.3,12,6.2,18,8.7v-35.4V451.9v-22.6h-33.7H100.8z M180.3,529.6
			h-13.1V523H141c-3.6,0-6.6-2.9-6.6-6.6v-14.3c-7.6-2.7-13.1-9.9-13.1-18.5c0-10.8,8.8-19.7,19.7-19.7s19.7,8.8,19.7,19.7
			c0,8.5-5.5,15.7-13.1,18.5v7.8h26.2c3.6,0,6.6,2.9,6.6,6.6V529.6z M206.5,502.1v27.4h-13.1v-27.4c-7.6-2.7-13.1-9.9-13.1-18.5
			c0-10.8,8.8-19.7,19.7-19.7c10.8,0,19.7,8.8,19.7,19.7C219.7,492.2,214.2,499.4,206.5,502.1z M278.7,483.7
			c0,8.5-5.5,15.7-13.1,18.5v14.3c0,3.6-2.9,6.6-6.6,6.6h-26.2v6.6h-13.1v-13.1c0-3.6,2.9-6.6,6.6-6.6h26.2v-7.8
			c-7.6-2.7-13.1-9.9-13.1-18.5c0-10.8,8.8-19.7,19.7-19.7S278.7,472.8,278.7,483.7z"/>
		<path class="st3" d="M272.1,549.2c0-7.2-5.9-13.1-13.1-13.1H141c-7.2,0-13.1,5.9-13.1,13.1v42.3c0.9,1.3,1.8,2.6,2.7,3.9
			c4,6,8.2,11.9,12.4,17.6c0.4,0.6,0.8,1.1,1.2,1.7h127.9V549.2z M179.1,589.3c1.4,1.2,1.6,3.2,0.4,4.6c-0.7,0.8-1.6,1.2-2.5,1.2
			c-0.7,0-1.5-0.2-2.1-0.8L155.3,578c-0.7-0.6-1.2-1.5-1.2-2.5s0.4-1.9,1.2-2.5l19.7-16.4c1.4-1.2,3.5-1,4.6,0.4
			c1.2,1.4,1,3.5-0.4,4.6l-16.6,13.9L179.1,589.3z M212.6,560.8L193,593.6c-0.6,1-1.7,1.6-2.8,1.6c-0.6,0-1.2-0.2-1.7-0.5
			c-1.6-0.9-2.1-2.9-1.1-4.5l19.7-32.8c0.9-1.6,2.9-2.1,4.5-1.1C213.1,557.2,213.6,559.2,212.6,560.8z M244.7,578L225,594.4
			c-0.6,0.5-1.4,0.8-2.1,0.8c-0.9,0-1.9-0.4-2.5-1.2c-1.2-1.4-1-3.5,0.4-4.6l16.6-13.9l-16.6-13.9c-1.4-1.2-1.6-3.2-0.4-4.6
			c1.2-1.4,3.2-1.6,4.6-0.4l19.7,16.4c0.7,0.6,1.2,1.5,1.2,2.5S245.5,577.4,244.7,578z"/>
		<path class="st3" d="M291.8,621.4H149.2c7,9,14.1,17.8,21.5,26.2h94.9C280,647.6,291.8,635.9,291.8,621.4z"/>
		<path class="st3" d="M200,464c-10.8,0-19.7,8.8-19.7,19.7c0,8.5,5.5,15.7,13.1,18.5v27.4h13.1v-27.4c7.6-2.7,13.1-9.9,13.1-18.5
			C219.7,472.8,210.8,464,200,464z"/>
		<path class="st3" d="M239.3,483.7c0,8.5,5.5,15.7,13.1,18.5v7.8h-26.2c-3.6,0-6.6,2.9-6.6,6.6v13.1h13.1V523H259
			c3.6,0,6.6-2.9,6.6-6.6v-14.3c7.6-2.7,13.1-9.9,13.1-18.5c0-10.8-8.8-19.7-19.7-19.7S239.3,472.8,239.3,483.7z"/>
		<path class="st3" d="M173.8,510.9h-26.2v-7.8c7.6-2.7,13.1-9.9,13.1-18.5c0-10.8-8.8-19.7-19.7-19.7s-19.7,8.8-19.7,19.7
			c0,8.5,5.5,15.7,13.1,18.5v14.3c0,3.6,2.9,6.6,6.6,6.6h26.2v6.6h13.1v-13.1C180.3,513.8,177.4,510.9,173.8,510.9z"/>
	</g>
	<g>
		<path class="st4" d="M513.7,527h2.6c3.7-0.3,7,2.5,7.2,6.2c0.3,3.7-2.5,7-6.2,7.2c-0.3,0-0.7,0-1,0H507c-2,3.9-4.1,7.8-6.2,11.7
			h27c3.7-0.3,7,2.5,7.2,6.2c0.3,3.7-2.5,7-6.2,7.2c-0.3,0-0.7,0-1,0h-34.6c-5.2,8.9-10.6,17.5-16.2,26v0.2l-2.7,3.8
			c-1.7,2.5-3.4,5-5.2,7.5h80.4V464.6h-11c-1.1,3.5-2.3,7.1-3.5,10.6C528.8,492.9,521.7,510.2,513.7,527z"/>
		<path class="st4" d="M445.8,634.8c5.2,0,9.4-4.2,9.4-9.3c0,0,0,0,0,0c0-1-0.2-2-0.4-2.9c-3.2,4.1-6.4,8.2-9.7,12.2
			C445.3,634.8,445.5,634.8,445.8,634.8z"/>
		<path class="st5" d="M445.9,616c-5.2,0-9.4,4.2-9.4,9.4c0,4.9,3.8,9,8.6,9.4c3.3-4,6.5-8.1,9.7-12.2
			C453.6,618.8,450,616,445.9,616z"/>
		<path class="st5" d="M375.3,548.6c-4,10.2-4.2,18.7-0.2,22.6c3.9,3.9,12.5,3.8,22.6-0.2c-4.2-3.2-8.2-6.7-11.9-10.5
			C382.1,556.7,378.6,552.8,375.3,548.6z"/>
		<path class="st5" d="M427.5,570.9c10.3,4.2,18.8,4.2,22.7,0.3c3.9-3.9,3.8-12.4-0.2-22.6C443.5,557,435.9,564.5,427.5,570.9z"/>
		<path class="st5" d="M450,518.7c4-10.2,4.2-18.7,0.2-22.6c-4.8-4.8-13.4-3.7-22.6,0.2C436,502.8,443.5,510.3,450,518.7z"/>
		<path class="st5" d="M342.1,603.1h127c1.7-2.5,3.5-5,5.2-7.5l2.7-3.8v-0.2c5.6-8.5,11-17.1,16.2-26h-4.4c-3.7,0.3-7-2.5-7.2-6.2
			c-0.3-3.7,2.5-7,6.2-7.2c0.3,0,0.7,0,1,0h12c2.1-3.9,4.2-7.8,6.2-11.7h-18.2c-3.7,0.3-7-2.5-7.2-6.2c-0.3-3.7,2.5-7,6.2-7.2
			c0.3,0,0.7,0,1,0h24.9c8-16.8,15.1-34.1,21.3-51.8c1.2-3.5,2.4-7.1,3.5-10.6H342.1V603.1z M487.7,501.7c0.3,0,0.7,0,1,0h19.9
			c3.7-0.3,7,2.5,7.2,6.2c0.3,3.7-2.5,7-6.2,7.2c-0.3,0-0.7,0-1,0h-19.9c-3.7,0.3-7-2.5-7.2-6.2C481.2,505.2,483.9,502,487.7,501.7z
			 M364.3,485.3c10.5-10.5,28.9-9.4,48.3,1.1c19.4-10.5,37.9-11.6,48.3-1.1c10.5,10.4,9.4,28.9-1.1,48.5
			c10.5,19.4,11.6,37.8,1.1,48.3c-11.9,12-30.8,8.3-48.4-1.3c-17.5,9.5-36.4,13.2-48.3,1.3c-10.4-10.4-9.4-28.9,1.1-48.3
			C354.9,514.2,353.9,495.8,364.3,485.3z"/>
		<path class="st5" d="M385.6,506.8c3.8-3.7,7.7-7.2,11.9-10.4c-9.2-3.9-17.7-5-22.4-0.4c-3.9,3.9-3.8,12.4,0,22.7
			C378.4,514.5,381.9,510.6,385.6,506.8z"/>
		<path class="st5" d="M389,662.9c0-6,4.9-10.8,10.9-10.8h10.8v-15.4H331c-4.9,0-8.9-4-8.9-8.9V449.4c0-4.9,4-4.9,8.9-4.9h213.3
			c0.3-1,0.6-2.1,0.8-3.1c0.1-0.5,0.2-0.9,0.4-1.4c0.3-1.3,0.7-2.7,1-4c0.1-0.5,0.2-0.9,0.4-1.4c0.4-1.8,0.9-3.6,1.3-5.4H504H343
			h-33.7v22.6v258.5v35.4c6-2.5,12-5.4,18-8.7c17.2-9.3,34.5-21.5,51.2-35.3c14.3-11.8,28.2-24.9,41.7-39L389,662.9
			C389,662.9,389,662.9,389,662.9z"/>
		<path class="st5" d="M383.3,533.8c3.9,5.7,8.4,11,13.3,15.9c4.9,4.9,10.3,9.4,16.1,13.3c5.8-3.9,11.2-8.3,16.1-13.3
			c4.9-4.9,9.4-10.2,13.3-15.9c-3.9-5.8-8.4-11.2-13.4-16.1c-5-4.8-10.4-9.1-16.2-12.9c-5.7,3.8-11,8.1-15.9,12.9
			C391.6,522.7,387.2,528.1,383.3,533.8z M412.7,524.8v0.2c2.4,0,4.7,0.9,6.3,2.6c3.4,3.5,3.4,9.1-0.1,12.5
			c-3.5,3.4-9.1,3.4-12.5-0.1c-1.7-1.6-2.6-3.9-2.6-6.2c0-0.1,0-0.1,0-0.2C403.8,528.8,407.8,524.8,412.7,524.8z"/>
		<path class="st6" d="M434.1,647.6c3.7-4.2,7.3-8.5,10.9-12.8c-4.8-0.4-8.7-4.5-8.6-9.4c0-5.2,4.3-9.4,9.4-9.4
			c4.2,0,7.7,2.8,8.9,6.6c0.3-0.4,0.6-0.8,0.9-1.2h-0.1c1.7-2.2,3.4-4.3,5-6.6h0l1.2-1.7c2.4-3.3,4.9-6.7,7.2-10.1h-127V464.6h196.3
			c0.8-2.6,1.7-5.2,2.4-7.9c0-0.1,0-0.1,0.1-0.2c0.5-1.6,1-3.2,1.4-4.8c0.1-0.2,0.1-0.5,0.2-0.7c0.4-1.5,0.8-2.9,1.2-4.4
			c0.1-0.4,0.2-0.7,0.3-1.1c0.1-0.3,0.2-0.6,0.3-1H331c-4.9,0-8.9,0-8.9,4.9v178.3c0,4.9,4,8.9,8.9,8.9h79.7v15.4h-10.8
			c-6,0-10.9,4.8-10.9,10.8c0,0,0,0,0,0h31.1C424.9,657.9,429.5,652.8,434.1,647.6L434.1,647.6z"/>
		<path class="st6" d="M364.3,582.1c11.9,11.9,30.8,8.2,48.3-1.3c17.5,9.6,36.4,13.3,48.4,1.3c10.5-10.4,9.4-28.9-1.1-48.3
			c10.5-19.6,11.6-38.1,1.1-48.5c-10.4-10.5-28.9-9.4-48.3,1.1c-19.4-10.5-37.8-11.6-48.3-1.1c-10.5,10.5-9.4,28.9,1.1,48.5
			C354.9,553.3,353.9,571.7,364.3,582.1z M375.1,571.2c-4-4-3.8-12.4,0.2-22.6c3.2,4.2,6.7,8.2,10.5,11.9c3.7,3.8,7.7,7.3,11.9,10.5
			C387.6,575,379,575.1,375.1,571.2z M450.3,571.2c-4,4-12.5,4-22.7-0.3c8.4-6.5,16-14,22.5-22.4C454,558.8,454.2,567.3,450.3,571.2
			z M450.3,496.1c4,4,3.8,12.4-0.2,22.6c-6.5-8.3-14.1-15.9-22.4-22.4C436.9,492.4,445.5,491.3,450.3,496.1z M428.7,517.7
			c5,4.9,9.5,10.3,13.4,16.1c-3.9,5.7-8.4,11-13.3,15.9c-4.9,5-10.3,9.4-16.1,13.3c-5.8-3.9-11.2-8.4-16.1-13.3
			c-4.9-4.9-9.4-10.2-13.3-15.9c3.9-5.8,8.3-11.2,13.3-16.1c4.9-4.8,10.2-9.1,15.9-12.9C418.3,508.6,423.7,512.9,428.7,517.7z
			 M375.1,496.1c4.7-4.7,13.2-3.5,22.4,0.4c-4.2,3.2-8.1,6.7-11.9,10.4c-3.7,3.8-7.2,7.7-10.5,11.9
			C371.3,508.4,371.2,500,375.1,496.1z"/>
		<path class="st6" d="M406.4,540.1c3.4,3.5,9,3.5,12.5,0.1c3.5-3.4,3.5-9,0.1-12.5c-1.7-1.7-4-2.6-6.3-2.6v-0.2
			c-4.9,0-8.9,4-8.9,8.9c0,0.1,0,0.1,0,0.2C403.8,536.2,404.8,538.4,406.4,540.1z"/>
		<path class="st6" d="M488.7,515.1h19.9c0.3,0,0.7,0,1,0c3.7-0.3,6.5-3.5,6.2-7.2c-0.3-3.7-3.5-6.5-7.2-6.2h-19.9c-0.3,0-0.7,0-1,0
			c-3.7,0.3-6.5,3.5-6.2,7.2C481.7,512.7,485,515.4,488.7,515.1z"/>
		<path class="st6" d="M488.7,527c-0.3,0-0.7,0-1,0c-3.7,0.3-6.5,3.5-6.2,7.2c0.3,3.7,3.5,6.5,7.2,6.2H507c2.3-4.4,4.5-8.9,6.7-13.5
			H488.7z"/>
		<path class="st6" d="M488.7,552.2c-0.3,0-0.7,0-1,0c-3.7,0.3-6.5,3.5-6.2,7.2c0.3,3.7,3.5,6.5,7.2,6.2h4.4
			c2.6-4.4,5.1-8.9,7.6-13.5H488.7z"/>
	</g>
</g>
<g>
	<polygon class="st7" points="386.7,126.4 309.3,98 309.3,164.3 489.9,164.3 	"/>
	<path class="st8" d="M556.4,317.8c-28.4,0-51.4-23-51.4-51.4c0,0,0-0.1,0-0.1v-0.8h-17.9c-5.8-23.7-27.2-44.6-52.7-44.6
		s-46.9,20.7-52.7,44.6H364v0.8c0,28.4-22.9,51.4-51.3,51.5c0,0,0,0-0.1,0h-3.3v96.9h244c0.5-3,1-6,1.5-9c0.5-3.4,1-6.8,1.4-10.2
		c2.3-17.9,3.5-36.2,3.5-54.8v-22.9L556.4,317.8L556.4,317.8z"/>
	<path class="st9" d="M312.6,301c19.2,0,34.7-15.5,34.7-34.7c0,0,0,0,0-0.1v-17.3h22.6c10.9-26.3,36.2-43.8,64.6-44.6
		c28.4,0.9,53.7,18.3,64.6,44.6h22.6v17.3c0,19.1,15.5,34.6,34.7,34.7h3.3V189.8l-69.7-25.6L309.3,98v118.6v8.5V301h1H312.6z"/>
</g>
<g>
	<path class="st10" d="M437.1,367c-5,0-10-0.7-14.8-2l-41.3-12.4v28.2c0,5.2,3.3,9.6,8.3,11.1l18.1,5.3c19.9,5.9,40.9,5.9,60.9,0
		l18.1-5.3c5-1.5,8.3-5.9,8.3-11.1v-28.6L451.9,365C447.1,366.5,442.1,367,437.1,367z"/>
	<path class="st10" d="M521,321.3l-72.8-21.6c-7.2-2.2-14.9-2.2-22.3,0l-72.7,21.6c-5,1.5-5,8.7,0,10.1l72.8,21.6
		c7.2,2.2,14.9,2.2,22.3,0l62.3-18.4V351c-1.3,0.7-2.2,2-2.2,3.5v4.4c0,1.7,0.9,3.1,2.4,3.7l-3.9,9c-0.6,1.3,0.2,2.6,1.7,2.8
		l4.1,0.4c0.7,0,1.7,0,2.4,0l4.1-0.4c1.3-0.2,2-1.5,1.7-2.8l-3.9-9c1.5-0.7,2.4-2,2.4-3.7v-4.4c0-1.5-0.9-2.8-2.2-3.5v-18.3l4.1-1.3
		C526,329.8,526,322.8,521,321.3z"/>
</g>
<path class="st11" d="M542.2,203.9c0.7-1.2,1.9-2.2,3.2-1.7c0.9,0.4,1.2,1.4,0.9,2.3c-0.3,0.8-0.5,0.7-1.6,0.3L542.2,203.9z
	 M546.6,209.9c-0.9,0.5-2,0.6-3,0.2c-2.3-0.8-2.5-3.3-1.7-5.6l5.8,2.1l0.3-0.1c0.8-2.1,0.2-4.2-2-5c-2.9-1.1-5.7,0.9-6.7,3.6
	c-0.9,2.4-0.3,5.5,2.4,6.5c1.8,0.6,3.7,0.1,5.1-1.2L546.6,209.9z M531.4,199.8c0.4-1.1,1.2-2.5,2.6-2c1.4,0.5,1,2.6,0.7,3.7
	c-0.4,1.1-1.2,2.3-2.5,1.8C530.9,202.8,531,200.9,531.4,199.8 M533.7,210.4c-0.5,1.5-2.8,1.5-4.3,1c-1.4-0.5-2.6-1.5-2.1-2.9
	c0.6-1.6,2.9-1.1,4.2-0.6C532.7,208.3,534.2,209,533.7,210.4 M527.6,203.6c-0.5,1.1-0.1,2.4,0.9,2.9c0.1,0.1,0.2,0.1,0.4,0.1
	c-1.8,0.1-2.9,0.1-3.4,1.6c-0.6,1.6,1.3,3.1,3.3,3.8c2.3,0.8,6,0.9,7.2-2.4c0.6-1.6-0.5-2.8-2-3.3c-0.9-0.3-1.9-0.6-2.9-0.9
	c-0.9-0.3-1.7-0.6-1.2-1.7l0.7-0.2c0.4,0.3,0.9,0.5,1.3,0.7c2,0.7,4.5,0.1,5.3-1.9c0.2-0.6,0.3-1.2,0.3-1.8l1.6,0.6l0.4-1.1
	l-1.9-0.7c-0.3-0.1-0.7-0.3-0.9-0.5c-0.7-0.7-1.5-1.2-2.4-1.5c-2-0.7-4.6-0.2-5.4,1.9c-0.5,1.4,0,2.8,1,3.8L527.6,203.6z
	 M521.5,196.4c0.7-1.2,1.9-2.2,3.2-1.7c0.9,0.4,1.2,1.4,0.9,2.3c-0.3,0.8-0.5,0.7-1.6,0.3L521.5,196.4z M525.9,202.3
	c-0.9,0.5-2,0.6-3,0.2c-2.3-0.8-2.6-3.3-1.7-5.6l5.8,2.1l0.3-0.1c0.8-2.1,0.2-4.2-2-5c-2.9-1.1-5.7,0.9-6.7,3.6
	c-0.9,2.4-0.3,5.5,2.4,6.5c1.8,0.6,3.7,0.1,5.1-1.2L525.9,202.3z M512.2,199c-0.2,0.7-0.8,0.5-1.5,0.2l-0.2,0.6
	c0.8,0.3,1.7,0.5,2.6,0.8c0.9,0.3,1.6,0.6,2.4,1l0.2-0.6l-0.2-0.1c-0.6-0.2-1.1-0.4-0.8-1l5.4-14.9l-0.2-0.3c-1.3,0.1-2.6,0.1-3.9,0
	l-0.2,0.5l0.6,0.5c0.4,0.4,0.4,0.6,0.2,1.1L512.2,199z M506,196.7c-0.2,0.7-0.8,0.5-1.5,0.2l-0.2,0.6c0.8,0.3,1.7,0.5,2.6,0.8
	c0.9,0.3,1.6,0.6,2.4,1l0.2-0.6l-0.2-0.1c-0.6-0.2-1.1-0.4-0.8-1l5.4-14.9l-0.2-0.3c-1.3,0.1-2.6,0.1-3.9,0l-0.2,0.5l0.6,0.5
	c0.4,0.4,0.4,0.6,0.2,1.1L506,196.7z M494.2,188.5c-1.1,2.7,0.2,5.8,2.9,6.9c0.1,0.1,0.3,0.1,0.4,0.1c2.9,1,6-0.5,7.1-3.3
	c0,0,0-0.1,0-0.1c1.1-2.6-0.1-5.6-2.7-6.7c-0.2-0.1-0.4-0.2-0.6-0.2c-2.7-1.1-5.8,0.2-6.9,3C494.3,188.2,494.3,188.3,494.2,188.5
	 M500.9,185.9c2.1,0.8,1.4,4.1,0.9,5.7c-0.7,1.9-1.9,3.8-3.9,3.1s-1.7-3.5-1.1-5.3C497.5,187.6,498.7,185.1,500.9,185.9
	 M494.6,181.9c0.3-1.2,0.7-2.5,1.1-3.6c-1.9-1-2.4-2.1-4.9-3c-4.4-1.6-9.3-0.2-11.1,4.6c-2,5.4,0.7,9.3,5.5,11.1
	c1.7,0.6,3.5,0.9,5.3,0.8c0.5-1.1,1.1-2.2,1.8-3.3l-0.6-0.3c-1.2,2-3.6,2.8-5.7,2c-4.1-1.5-4.5-5.8-3.2-9.3c1.4-3.8,4.2-5.9,7.7-4.6
	c3.2,1.2,3.6,3.2,3.4,5.5L494.6,181.9z M466.2,181.1c-0.6,0.5-1.5,0.7-2.3,0.5c-0.7-0.2-1.1-0.9-0.9-1.6c0-0.1,0.1-0.2,0.1-0.3
	c0.5-1.5,2.7-1.2,4-1.1L466.2,181.1z M467.4,177.8l-3,0c-1.7,0-3.3,0-3.9,1.7c-0.5,1.2,0.1,2.5,1.2,3c0.1,0,0.2,0.1,0.3,0.1
	c1.3,0.4,2.7,0.2,3.9-0.5c-0.3,1,0,1.9,1,2.3c0.9,0.3,2,0.1,2.7-0.5l-0.1-0.5c-0.2,0.1-0.5,0.1-0.7,0.1c-0.6-0.2-0.4-0.9-0.1-1.8
	l1.6-4.4c0.7-1.4,0.1-3-1.2-3.7c-0.2-0.1-0.4-0.2-0.6-0.2c-0.4-0.2-0.9-0.3-1.4-0.2c-1,0.2-1.9,0.3-2.8,0.4
	c-0.8,0.1-1.5,0.6-1.8,1.4c-0.1,0.3,0,0.6,0.2,0.6s1.6,0.3,1.8-0.3c0.5-1.2,1-1.4,2.2-0.9c0.9,0.2,1.4,1.1,1.2,2
	c0,0.1-0.1,0.2-0.1,0.3L467.4,177.8z M461.7,171.1l-2.6-0.9l0.8-2.2l-0.2-0.2c-1.4,0.9-2.9,1.5-4.6,1.8L455,170l1.3,0.5l-2.4,6.5
	c-0.5,1-0.1,2.3,0.9,2.8c0.1,0.1,0.3,0.1,0.4,0.2c1.2,0.4,2.5,0.1,3.5-0.7l-0.1-0.5c-0.5,0.1-1,0.1-1.4-0.1c-0.6-0.2-1-0.8-0.8-1.4
	c0-0.1,0-0.1,0.1-0.2l2.1-5.9l2.6,0.9L461.7,171.1z M452.5,170.5c0.2-0.8,0.5-1.5,0.8-2.3c-0.7-0.6-1.5-1.1-2.3-1.4
	c-1.6-0.8-3.6-0.1-4.4,1.5c0,0.1-0.1,0.2-0.1,0.3c-1.2,3.3,3.2,4.5,2.5,6.6c-0.3,0.8-1.2,1.2-2,0.9c0,0-0.1,0-0.1-0.1
	c-1.2-0.5-1.7-1.9-1.3-3.1l-0.6-0.1l-0.7,2.5c0.7,0.6,1.5,1.1,2.3,1.5c1.8,0.6,4,0.5,4.8-1.9c1.2-3.3-3.4-4.3-2.6-6.7
	c0.3-0.7,1.1-1.1,1.9-0.8c0,0,0,0,0.1,0c1.4,0.5,1.5,1.6,1.1,2.8L452.5,170.5z M446.2,160.2c0.3-0.7-0.1-1.5-0.8-1.8
	c-0.7-0.3-1.5,0.1-1.8,0.8c-0.3,0.7,0.1,1.5,0.8,1.8C445.2,161.3,446,160.9,446.2,160.2 M444.5,164.7l-0.2-0.3
	c-0.5,0-1.2,0.1-1.7,0.1c-0.6,0-1.5,0-2.2-0.1l-0.2,0.5l0.7,0.5c0.4,0.3,0.4,0.4,0.3,0.8l-2.2,6.1c-0.2,0.6-0.7,0.5-1.3,0.3
	l-0.1-0.1l-0.2,0.6c0.8,0.3,1.7,0.5,2.6,0.9c0.9,0.3,1.6,0.6,2.4,1l0.2-0.6l-0.3-0.1c-0.5-0.2-1.1-0.4-0.9-0.9L444.5,164.7z
	 M434,154.9c-0.6-0.2-2.2-0.7-3.2-1.1c-1.1-0.4-2.2-0.9-3.3-1.3l-0.2,0.6l0.2,0.1c0.9,0.2,1.5,1,1.4,1.9l0.5,15.4l0.8,0.3
	c0.5-0.6,1.1-1.2,1.7-1.8c2.7-3.1,8.7-9.8,9-10.1c0.3-0.4,0.9-0.6,1.4-0.3l0.2,0.1l0.2-0.6c-0.6-0.2-1.3-0.4-2-0.6
	c-0.9-0.3-1.7-0.7-2.5-1l-0.2,0.6l0.3,0.1c0.7,0.3,1.3,0.6,1.1,1.2c-0.2,0.4-0.4,0.8-0.7,1.1l-6.7,7.7l-0.2-10.9
	c0-0.3,0-0.5,0.1-0.8c0.1-0.3,0.5-0.5,1.3-0.2l0.5,0.2L434,154.9z M418.5,155.3l-2.6-0.9l0.8-2.2l-0.2-0.2c-1.4,0.9-2.9,1.5-4.5,1.8
	l-0.2,0.5l1.3,0.5l-2.4,6.5c-0.5,1-0.1,2.3,0.9,2.8c0.1,0.1,0.3,0.1,0.4,0.2c1.2,0.4,2.5,0.1,3.5-0.7l-0.1-0.5
	c-0.5,0.1-1,0.1-1.4-0.1c-0.6-0.2-1-0.8-0.8-1.4c0-0.1,0-0.1,0.1-0.2l2.1-5.9l2.6,0.9L418.5,155.3z M409.3,154.8
	c0.2-0.8,0.5-1.5,0.8-2.3c-0.7-0.6-1.5-1.1-2.3-1.4c-1.6-0.8-3.6-0.1-4.4,1.5c0,0.1-0.1,0.2-0.1,0.3c-1.2,3.3,3.2,4.5,2.5,6.6
	c-0.3,0.8-1.2,1.2-2,0.9c0,0-0.1,0-0.1-0.1c-1.2-0.5-1.7-1.9-1.3-3.1l-0.6-0.1l-0.7,2.5c0.7,0.6,1.5,1.1,2.3,1.5
	c1.8,0.6,4,0.5,4.8-1.9c1.2-3.3-3.4-4.3-2.6-6.7c0.3-0.7,1.1-1.1,1.9-0.8c0,0,0,0,0.1,0c1.4,0.5,1.5,1.6,1.1,2.8L409.3,154.8z
	 M395.3,150.3c0.7-1.2,1.9-2.2,3.2-1.7c0.9,0.4,1.2,1.4,0.9,2.3c-0.3,0.8-0.5,0.7-1.6,0.3L395.3,150.3z M399.8,156.3
	c-0.9,0.5-2,0.6-3,0.2c-2.3-0.8-2.5-3.3-1.7-5.6l5.8,2.1l0.3-0.1c0.8-2.1,0.2-4.2-2-5c-2.9-1.1-5.7,0.9-6.7,3.6
	c-0.9,2.4-0.3,5.5,2.4,6.5c1.8,0.6,3.7,0.1,5.1-1.2L399.8,156.3z M383.8,146.7l0.3,7.3l0.6,0.2l6.1-6.7c0.5-0.6,1.1-1.3,1.9-1
	l0.2,0.1l0.2-0.6c-0.6-0.2-1.1-0.3-1.7-0.5c-0.6-0.2-1.3-0.5-1.9-0.8l-0.2,0.6l0.3,0.1c0.5,0.2,1,0.4,0.8,0.9
	c-0.1,0.3-0.3,0.5-0.4,0.8l-3.3,3.8l-0.2-5.4c0-0.3,0-0.6,0.1-0.8c0.1-0.3,0.6-0.1,1,0l0.2,0.1l0.2-0.6c-0.8-0.3-1.6-0.5-2.3-0.7
	c-0.9-0.3-1.8-0.7-2.7-1.1l-0.2,0.6l0.2,0.1c0.4,0.1,0.8,0.4,0.9,0.8l0.1,1.6l-3.3,3.5l-0.2-5.8c0-0.2,0-0.5,0.1-0.7
	c0.2-0.2,0.6,0,0.9,0.1l0.2,0.1l0.2-0.6c-0.8-0.3-1.6-0.5-2.3-0.8c-0.8-0.3-1.6-0.6-2.5-1l-0.2,0.6l0.1,0.1c0.9,0.3,0.8,0.6,0.9,1.5
	l0.3,9.4l0.6,0.2L383.8,146.7z M367.9,139.2c0.7-0.2,1.5-0.2,2.2,0c1,0.4,1.4,1.1,1,2.4l-1.9,5.3c-0.2,0.6-0.8,0.3-1.3,0.2l-0.2-0.1
	l-0.2,0.6c0.9,0.3,1.7,0.5,2.6,0.8s1.6,0.6,2.4,1l0.2-0.6l-0.3-0.1c-0.5-0.2-1.1-0.4-0.8-1l2.2-5.9c0.7-1.2,0.2-2.8-1-3.5
	c-0.2-0.1-0.4-0.2-0.6-0.2c-1.3-0.3-2.7-0.2-3.9,0.3l2.8-7.8l-0.2-0.3c-1.3,0.1-2.6,0.1-3.9,0l-0.2,0.5l0.6,0.5
	c0.4,0.4,0.4,0.6,0.2,1.1l-4.4,12.2c-0.2,0.7-0.8,0.5-1.5,0.2l-0.2,0.6c0.8,0.3,1.7,0.5,2.6,0.9c0.9,0.3,1.6,0.6,2.4,1l0.2-0.6
	l-0.3-0.1c-0.5-0.2-1.1-0.4-0.9-0.9L367.9,139.2z M363.9,135.4l-2.6-0.9l0.8-2.2l-0.2-0.2c-1.4,0.9-2.9,1.5-4.5,1.8l-0.2,0.5
	l1.3,0.5l-2.4,6.5c-0.5,1-0.1,2.3,0.9,2.8c0.1,0.1,0.3,0.1,0.4,0.2c1.2,0.4,2.5,0.1,3.5-0.7l-0.1-0.5c-0.5,0.1-1,0.1-1.4-0.1
	c-0.6-0.2-1-0.8-0.8-1.4c0-0.1,0-0.1,0.1-0.2l2.1-5.9l2.6,0.9L363.9,135.4z M351.7,134.2c0.4-1.1,1.2-1.2,1.7-1
	c0.5,0.2,0.4,1,1.2,1.4c0.6,0.3,1.4-0.1,1.6-0.7c0,0,0-0.1,0-0.1c0.3-0.7,0-1.4-0.7-1.7c-0.1,0-0.2-0.1-0.2-0.1
	c-1.1-0.3-2.2,0-3.1,0.7l0.5-1.5l-0.2-0.2c-1.3,0.2-2.7,0.1-4,0l-0.2,0.5l0.6,0.4c0.5,0.3,0.6,0.5,0.3,1.3l-2.1,5.9
	c-0.2,0.5-0.6,0.4-1.4,0.1l-0.2-0.1l-0.2,0.6c0.9,0.3,1.8,0.6,2.7,0.9s2,0.8,3,1.2l0.2-0.6l-0.3-0.1c-1-0.4-1.6-0.6-1.4-1.1
	L351.7,134.2z M335.5,130.5c-1.1,2.7,0.2,5.8,2.9,6.9c0.1,0.1,0.3,0.1,0.4,0.1c2.9,1,6-0.5,7.1-3.3c0,0,0-0.1,0-0.1
	c1.1-2.6-0.1-5.6-2.7-6.7c-0.2-0.1-0.4-0.2-0.6-0.2c-2.7-1.1-5.8,0.2-6.9,3C335.6,130.3,335.6,130.4,335.5,130.5 M342.2,128
	c2.1,0.8,1.4,4.1,0.9,5.7c-0.7,1.9-1.9,3.8-3.9,3.1s-1.7-3.5-1.1-5.3S340,127.2,342.2,128 M325,115.2c-0.6-0.2-1.3-0.4-1.9-0.6
	c-0.8-0.3-1.6-0.7-2.4-1l-0.2,0.6l0.3,0.1c1.1,0.4,1.6,1.5,1.3,2.6c0,0,0,0,0,0l-3.3,9c-0.6,1.7-1.4,2.6-2.9,2l-0.3-0.1l-0.2,0.6
	c1,0.4,2,0.6,2.9,1c1,0.4,1.8,0.8,2.7,1.1l0.2-0.6l-0.4-0.1c-1.6-0.6-1.8-1.4-1.1-3.2l3.2-8.8l6.6,16.3l0.8,0.3
	c0.2-0.7,0.4-1.5,0.6-2.2l3.6-9.8c0.9-2.6,2-2.4,2.9-2l0.3,0.1l0.2-0.7c-0.9-0.3-1.8-0.6-2.7-0.9s-2-0.8-3-1.2l-0.2,0.6l0.5,0.2
	c1,0.3,1.6,1.3,1.3,2.3c0,0.1-0.1,0.2-0.1,0.4l-2.9,8L325,115.2z"/>
<g>
	<path d="M337.7,87.6c2.4-6.5,8.8-9.8,16.2-7.1c2.1,0.8,3.8,1.8,5.6,3.3c-0.3,0.9-0.7,1.6-1.3,2.2c-1.7-1.4-3.3-2.4-5.1-3
		c-5.9-2.2-10.9,0.5-12.7,5.6c-1.9,5.1,0.2,10.3,6,12.5c1.9,0.7,4,1,6.1,0.9c0.1,0.8-0.1,1.7-0.4,2.6c-2.3,0-4.4-0.3-6.5-1.1
		C338.1,100.7,335.3,94,337.7,87.6z"/>
	<path d="M372.8,104.2c-1.7,4.8-6.8,6.8-11.3,5.1c-4.5-1.6-7-6.4-5.3-11.2c1.7-4.8,6.7-6.8,11.3-5.2
		C372,94.6,374.6,99.4,372.8,104.2z M358.8,99c-1.2,3.4,0.4,6.8,3.6,8c3.2,1.2,6.7-0.4,7.9-3.7c1.2-3.3-0.4-6.8-3.6-8
		C363.5,94.1,360,95.7,358.8,99z"/>
	<path d="M397.1,121.7c-0.8,0.1-1.7-0.1-2.7-0.4l3.3-9.2c1-2.8,0.5-5.4-2.3-6.4c-0.9-0.3-2.1-0.5-2.8-0.5c-1.1,0-1.7,0.6-2,1.6
		l-4,11c-0.8,0.1-1.7-0.1-2.7-0.4l3.3-9.2c1-2.7,0.5-5.4-2.3-6.4c-0.9-0.3-2.1-0.5-2.8-0.5c-1,0-1.6,0.5-2,1.6l-4,11
		c-0.8,0.1-1.7-0.1-2.7-0.4l4.5-12.2c0.7-1.8,1.7-2.4,3.4-2.5c1.4-0.1,3.3,0.3,4.7,0.8c2,0.7,3.3,2,4,3.7c0.5-0.4,1.1-0.6,1.9-0.6
		c1.4-0.1,3.3,0.3,4.7,0.8c4.1,1.5,5.4,5.2,3.9,9.3L397.1,121.7z"/>
	<path d="M409.2,109.1c1.5,0,3.5,0.3,4.9,0.9c5.2,1.9,6.5,6.6,4.9,11c-1.7,4.7-5.9,7.1-10.6,5.4c-1.5-0.5-3.2-1.6-4.2-3l-2.7,7.4
		c-0.8,0.1-1.7-0.1-2.7-0.4l6.9-18.8C406.4,109.8,407.5,109.2,409.2,109.1z M405.4,120.1c-0.3,0.9,0,1.6,0.6,2.2
		c0.7,0.7,1.9,1.4,2.9,1.7c3.3,1.2,6.2-0.3,7.5-3.9c1.4-3.7,0-6.7-3.4-7.9c-0.9-0.3-2.1-0.6-3.1-0.6c-1.1,0-1.7,0.5-2.1,1.6
		L405.4,120.1z"/>
	<path d="M423.5,129.8c-0.4,1-1.5,1.5-2.5,1.2s-1.5-1.5-1.2-2.5c0.4-1,1.5-1.5,2.5-1.2C423.3,127.7,423.9,128.8,423.5,129.8z"/>
	<path d="M453.9,135.9c-1.7,4.6-5.9,5-10.6,3.2c-2.8-1-5.3-2.6-7.5-4.3c0.3-0.9,0.8-1.7,1.4-2.3c2,1.7,4.5,3.2,6.8,4.1
		c3,1.1,6.2,1.2,7.3-1.7c1.1-3-1.8-4.6-4.7-6.4c-4-2.4-7.5-4.7-5.8-9.4c1.7-4.5,5.9-4.9,10.4-3.2c2.6,0.9,4.6,2.3,6.6,3.8
		c-0.3,0.9-0.7,1.6-1.3,2.2c-1.8-1.4-3.9-2.7-6.1-3.5c-2.9-1.1-6-1.2-7,1.6c-1,2.8,1.6,4.3,4.8,6.2
		C452,128.7,455.6,131.1,453.9,135.9z"/>
	<path d="M456.9,134.9c1.8-4.8,6.4-6.9,11.6-5c1.5,0.6,3.1,1.5,4.2,2.4c-0.3,0.8-0.7,1.5-1.2,2c-1-0.8-2.5-1.6-3.7-2
		c-3.8-1.4-7.1,0.1-8.4,3.6c-1.3,3.6,0.3,6.8,4,8.1c1.3,0.5,3,0.8,4.3,0.8c0.1,0.7-0.1,1.5-0.4,2.4c-1.5,0-3.3-0.4-4.9-0.9
		C457.3,144.3,455.1,139.7,456.9,134.9z"/>
	<path d="M481.2,129.1c-0.4,1-1.5,1.5-2.4,1.1c-1-0.4-1.5-1.5-1.1-2.4c0.4-1,1.4-1.5,2.4-1.1C481.1,127.1,481.6,128.2,481.2,129.1z
		 M473.2,149.5c-0.8,0.1-1.7-0.1-2.7-0.4l5.8-15.9c0.8-0.1,1.7,0.1,2.7,0.4L473.2,149.5z"/>
	<path d="M481.5,151c-0.4,1-1.5,1.5-2.5,1.2c-1-0.4-1.5-1.5-1.2-2.5c0.4-1,1.5-1.5,2.5-1.2C481.3,148.9,481.9,150,481.5,151z"/>
	<path d="M496.9,145.8c2.4-6.5,8.8-9.8,16.2-7.1c2.1,0.8,3.8,1.8,5.6,3.3c-0.3,0.9-0.7,1.6-1.3,2.2c-1.7-1.4-3.3-2.4-5.1-3
		c-5.9-2.2-10.9,0.5-12.7,5.6c-1.9,5.1,0.2,10.3,6,12.5c1.9,0.7,4,1,6.1,0.9c0.1,0.8-0.1,1.7-0.4,2.6c-2.3,0-4.4-0.3-6.5-1.1
		C497.3,158.9,494.5,152.2,496.9,145.8z"/>
	<path d="M518.3,160.7c-0.7,2-0.8,3.4-0.3,5c-0.7,0.3-1.6,0.4-2.5,0.3c-0.6-1.7-0.6-3.5,0.3-6l6.7-18.2c0.8-0.1,1.7,0.1,2.7,0.4
		L518.3,160.7z"/>
	<path d="M526.2,161.3c-1,2.9-0.4,5.4,2.6,6.5c0.7,0.3,2,0.6,3,0.5c1.2,0,1.7-0.5,2.1-1.6l4-11c0.8-0.1,1.7,0.1,2.7,0.4l-4.5,12.2
		c-0.7,1.9-1.8,2.4-3.5,2.5c-1.4,0-3.4-0.3-4.8-0.8c-4.3-1.6-5.7-5.2-4.2-9.4l3.2-8.9c0.8-0.1,1.7,0.1,2.7,0.4L526.2,161.3z"/>
	<path d="M552.2,160.5c4.7,1.7,6.3,6.3,4.6,10.9c-1.6,4.4-5.6,7.2-10.8,5.3c-1.5-0.5-3.2-1.5-4.3-2.5c-1.3-1.2-1.7-2.4-1.1-4.2
		l7-19.1c0.8-0.1,1.7,0.1,2.7,0.4L547,160C548.7,159.6,550.7,159.9,552.2,160.5z M543.3,170.3c-0.4,1-0.2,1.8,0.6,2.5
		c0.7,0.6,1.8,1.2,2.7,1.5c3.4,1.2,6.3-0.1,7.7-3.9c1.3-3.6,0.1-6.6-3.2-7.8c-1-0.4-2.4-0.6-3.4-0.6c-0.9,0-1.5,0.4-1.9,1.2
		L543.3,170.3z"/>
</g>
<g>
	<path d="M57.6,176.7c-0.7,0.7-1.6,1.2-2.7,1.6l-9.4-25.2c0.7-0.7,1.6-1.2,2.7-1.6L57.6,176.7z"/>
	<path d="M78.7,168.8c-0.7,0.7-1.5,1.2-2.6,1.6l-3.8-10.2c-1.2-3.2-3.7-4.9-7.1-3.6c-0.9,0.3-2.1,1-3,1.7c-1,0.9-1.1,1.7-0.7,2.9
		l4.6,12.3c-0.7,0.7-1.5,1.2-2.6,1.6l-5.1-13.7c-0.7-2-0.3-3.4,1.2-4.7c1.2-1.1,3.2-2.2,4.8-2.8c4.8-1.8,8.8,0.2,10.5,5L78.7,168.8z
		"/>
	<path d="M78.2,149.2l-0.8-2c-0.5-1.4-0.9-2.7-0.8-4c0.2-2.7,2.6-4.1,4.4-4.8c0.7-0.3,1.4-0.5,2.2-0.6c0.3,0.9,0.5,1.8,0.4,2.7
		c-0.4,0.1-0.8,0.2-1.2,0.3c-2.6,1-3.3,2.3-2.2,5.2l0.8,2.1l4.9-1.8c0.4,1,0.5,1.9,0.5,2.7l-4.4,1.7l5.5,14.9
		c-0.7,0.7-1.5,1.2-2.6,1.6l-5.7-15.4l-3.1,1.2c-0.4-1-0.5-1.9-0.5-2.7L78.2,149.2z"/>
	<path d="M90,138.3c0.4,1.1-0.1,2.3-1.3,2.7c-1.1,0.4-2.3-0.2-2.7-1.3c-0.4-1.1,0.1-2.3,1.3-2.7C88.4,136.7,89.6,137.2,90,138.3z
		 M98,161.6c-0.7,0.7-1.5,1.2-2.6,1.6l-6.6-17.8c0.7-0.7,1.5-1.2,2.6-1.6L98,161.6z"/>
	<path d="M118.4,154c-0.7,0.7-1.5,1.2-2.6,1.6l-3.8-10.2c-1.2-3.2-3.7-4.9-7.1-3.6c-0.9,0.3-2.1,1-3,1.7c-1,0.9-1.1,1.7-0.7,2.9
		l4.6,12.3c-0.7,0.7-1.5,1.2-2.6,1.6l-5.1-13.7c-0.7-2-0.3-3.4,1.2-4.7c1.2-1.1,3.2-2.2,4.8-2.8c4.8-1.8,8.8,0.2,10.5,5L118.4,154z"
		/>
	<path d="M118.3,127.8c0.4,1.1-0.2,2.3-1.3,2.7c-1.1,0.4-2.3-0.2-2.7-1.3c-0.4-1.1,0.1-2.3,1.3-2.7
		C116.6,126.1,117.8,126.7,118.3,127.8z M126.2,151.1c-0.7,0.7-1.5,1.2-2.6,1.6l-6.6-17.8c0.7-0.7,1.5-1.2,2.6-1.6L126.2,151.1z"/>
	<path d="M129.9,132.8l3.5,9.4c1.1,3,2.9,2.8,6.2,1.6c0.3,0.9,0.5,1.8,0.4,2.7c-0.3,0.2-0.6,0.3-1,0.5c-1.7,0.6-4.6,1.3-6.6-0.7
		c-0.9-0.9-1.4-2.1-2-3.6l-3.3-8.8l-3.3,1.2c-0.4-1-0.5-1.9-0.5-2.7l2.8-1l-1.9-5.1c0.7-0.7,1.5-1.2,2.6-1.6l2.1,5.7l5-1.9
		c0.4,1,0.5,1.9,0.4,2.8L129.9,132.8z"/>
	<path d="M152.2,142.1c-5.8,2.2-11-0.1-13-5.6c-2-5.4,0.2-10.5,5.7-12.5c4.7-1.7,9-0.2,10.5,3.9c1,2.6-0.1,3.9-2.8,4.9l-10.2,3.8
		c1.8,3.3,5.1,4.4,8.9,3c1.5-0.6,3.2-1.5,4.3-2.4c0.6,0.6,1,1.3,1.4,2.3C155.7,140.4,153.9,141.4,152.2,142.1z M150.9,130.7
		c1.6-0.6,1.8-1.4,1.5-2.3c-0.9-2.4-4-2.9-6.7-1.9c-3.2,1.2-5,4.1-4.2,7.7L150.9,130.7z"/>
	<path d="M173.5,133.8l-9.3-24.9c0.7-0.7,1.6-1.2,2.7-1.6l8.5,22.7l11.4-4.3c0.4,1,0.6,2,0.5,2.9L173.5,133.8z"/>
	<path d="M239.9,89.6c1.2-1.1,3.2-2.2,4.9-2.8c5.9-2.2,10.3,0.9,12.2,5.9c1.9,5.2,0.2,10.4-5.1,12.3c-1.6,0.6-3.9,1-5.8,0.5l3.1,8.3
		c-0.7,0.7-1.5,1.2-2.6,1.6l-7.9-21.1C238,92.3,238.5,90.9,239.9,89.6z M244.7,101.7c0.4,1,1.2,1.3,2.1,1.4c1.1,0.1,2.6-0.3,3.8-0.7
		c3.7-1.4,5.1-4.7,3.6-8.8c-1.5-4.2-4.9-5.7-8.7-4.3c-1,0.4-2.3,1-3,1.7c-0.9,0.9-1.1,1.7-0.6,2.9L244.7,101.7z"/>
	<path d="M275.4,90.3c1.5,3.9-1.2,6.3-5.2,7.8c-2.1,0.8-4.4,1.2-6.7,1.3c-0.3-0.9-0.5-1.8-0.5-2.7c2.3-0.2,4.4-0.6,6.3-1.3
		c2.4-0.9,4-2.2,3.3-4.1c-0.8-2.1-3-1.7-5.5-1.2c-3.5,0.7-7.3,1.3-8.8-2.7c-1.4-3.9,1.3-6.3,5.1-7.7c2.2-0.8,4.4-1.2,6.2-1.3
		c0.3,0.9,0.5,1.8,0.4,2.6c-1.7,0.2-3.9,0.6-5.7,1.3c-2.3,0.9-4,2.1-3.3,4c0.7,2,2.9,1.6,5.5,1.1C270,86.8,273.8,86.1,275.4,90.3z"
		/>
	<path d="M185.9,117.4c1.8,5,6.7,8.3,12.2,8.1c1.5,0,3-0.3,4.5-0.8c3.8-1.3,6.8-4.3,8.2-8l0.7-1.9l-4.7-3.2l-1,3.4
		c-1.2,3.2-4.2,5.3-7.7,5.3c-3.2,0.2-6.1-1.7-7.2-4.7l-0.1-0.4c-1-3,0.1-6.3,2.7-8.2c1.6-1.2,3.5-1.8,5.5-1.8
		c1.4,0.1,2.7,0.4,3.8,1.1c0.1,0,1.8,1.1,4.1,2.5c0.5,0.3,1.1,0.7,1.7,1c3.8,2.3,8.1,4.9,8.1,4.9c1.4,0.8,2.9,1.4,4.5,1.6
		c3.8,0.6,7.6-0.4,10.6-2.7c4.4-3.3,6.2-8.9,4.5-14l-0.2-0.4c-1.8-5-6.7-8.3-12.2-8.1c-5.7,0.1-10.8,3.6-12.7,8.8l-0.7,1.9l1.1,0.7
		l3.1,2l0.8,0.5l0.8-3.5c1.1-3.2,4.2-5.3,7.7-5.3c3.2-0.1,6.1,1.8,7.2,4.7l0.1,0.3c1,3-0.1,6.3-2.7,8.2c-1.6,1.2-3.5,1.8-5.5,1.8
		c-1.4,0-2.7-0.4-3.8-1.1c-2.1-1.3-3.7-2.2-4.9-2.9c-2.1-1.3-3.2-1.9-4.7-2.9c-0.1,0-1-0.6-2-1.2c-1.1-0.6-2.2-1.3-2.3-1.3
		c-1.4-0.8-2.9-1.4-4.5-1.6c-3.8-0.6-7.6,0.4-10.6,2.7c-4.4,3.3-6.2,8.9-4.5,13.9L185.9,117.4z"/>
</g>
</svg>
